<?xml version="1.0" encoding="utf-8"?>
<!-- Generator: Adobe Illustrator 16.0.3, SVG Export Plug-In . SVG Version: 6.00 Build 0)  -->
<!DOCTYPE svg PUBLIC "-//W3C//DTD SVG 1.1//EN" "http://www.w3.org/Graphics/SVG/1.1/DTD/svg11.dtd">
<svg version="1.1" id="Layer_1" xmlns="http://www.w3.org/2000/svg" xmlns:xlink="http://www.w3.org/1999/xlink" x="0px" y="0px"
	 width="140.599px" height="65.625px" viewBox="0 0 140.599 65.625" enable-background="new 0 0 140.599 65.625"
	 xml:space="preserve">
<path d="M0,65.625l0.398-0.201c-0.446-1.945-0.282-3.494,0.582-4.533c1.547-1.84,5.093-1.752,9.827-0.09
	c8.76-3.471,18.468-6.424,28.526-8.744c-0.792-6.385-0.032-10.828,2.503-11.979c3.004-1.363,7.861,2.172,13.113,8.879
	c6.369-1.039,12.74-1.834,18.983-2.352c-2.244-12.939-0.826-23.22,3.908-24.535c5.348-1.488,13.047,8.945,17.961,23.846
	c5.982,0.172,11.615,0.668,16.753,1.5c-1.29-3.762-2.345-7.977-3.04-12.473c-2.688-17.372,0.867-32.307,7.951-33.359
	c7.079-1.06,14.996,12.164,17.692,29.531c1.466,9.426,1.081,18.145-0.71,24.305c3.364,2.619,5.517,6.406,6.15,10.205H0z"/>
</svg>
