  0
SECTION
  2
BLOCKS
  0
ENDSEC
  0
SECTION
  2
ENTITIES
  0
LINE
  8
0
 10
100
 20
159
 11
0
 21
159
  0
LINE
  8
0
 10
0
 20
159
 11
0
 21
137
  0
LINE
  8
0
 10
0
 20
137
 11
100
 21
137
  0
LINE
  8
0
 10
100
 20
137
 11
100
 21
159
  0
LINE
  8
0
 10
36
 20
87
 11
70
 21
87
  0
LINE
  8
0
 10
70
 20
87
 11
70
 21
84
  0
LINE
  8
0
 10
70
 20
84
 11
103
 21
84
  0
LINE
  8
0
 10
103
 20
84
 11
103
 21
123.37
  0
LINE
  8
0
 10
103
 20
123.37
 11
106
 21
123.37
  0
LINE
  8
0
 10
106
 20
123.37
 11
106
 21
129.63
  0
LINE
  8
0
 10
106
 20
129.63
 11
103
 21
129.63
  0
LINE
  8
0
 10
103
 20
129.63
 11
103
 21
130.7
  0
LINE
  8
0
 10
103
 20
130.7
 11
3
 21
130.7
  0
LINE
  8
0
 10
3
 20
130.7
 11
3
 21
129.63
  0
LINE
  8
0
 10
3
 20
129.63
 11
0
 21
129.63
  0
LINE
  8
0
 10
0
 20
129.63
 11
0
 21
123.37
  0
LINE
  8
0
 10
0
 20
123.37
 11
3
 21
123.37
  0
LINE
  8
0
 10
3
 20
123.37
 11
3
 21
84
  0
LINE
  8
0
 10
3
 20
84
 11
36
 21
84
  0
LINE
  8
0
 10
36
 20
84
 11
36
 21
87
  0
LINE
  8
0
 10
52.4035
 20
93.0188
 11
51.2199
 21
93.1683
  0
LINE
  8
0
 10
51.2199
 20
93.1683
 11
50.0643
 21
93.465
  0
LINE
  8
0
 10
50.0643
 20
93.465
 11
48.9551
 21
93.9041
  0
LINE
  8
0
 10
48.9551
 20
93.9041
 11
47.9097
 21
94.4789
  0
LINE
  8
0
 10
47.9097
 20
94.4789
 11
46.9445
 21
95.1801
  0
LINE
  8
0
 10
46.9445
 20
95.1801
 11
46.0748
 21
95.9968
  0
LINE
  8
0
 10
46.0748
 20
95.9968
 11
45.3143
 21
96.916
  0
LINE
  8
0
 10
45.3143
 20
96.916
 11
44.6751
 21
97.9234
  0
LINE
  8
0
 10
44.6751
 20
97.9234
 11
44.1671
 21
99.0028
  0
LINE
  8
0
 10
44.1671
 20
99.0028
 11
43.7985
 21
100.137
  0
LINE
  8
0
 10
43.7985
 20
100.137
 11
43.5749
 21
101.309
  0
LINE
  8
0
 10
43.5749
 20
101.309
 11
43.5
 21
102.5
  0
LINE
  8
0
 10
43.5
 20
102.5
 11
43.5
 21
105.5
  0
LINE
  8
0
 10
43.5
 20
105.5
 11
43.5749
 21
106.691
  0
LINE
  8
0
 10
43.5749
 20
106.691
 11
43.7985
 21
107.863
  0
LINE
  8
0
 10
43.7985
 20
107.863
 11
44.1671
 21
108.997
  0
LINE
  8
0
 10
44.1671
 20
108.997
 11
44.6751
 21
110.077
  0
LINE
  8
0
 10
44.6751
 20
110.077
 11
45.3143
 21
111.084
  0
LINE
  8
0
 10
45.3143
 20
111.084
 11
46.0748
 21
112.003
  0
LINE
  8
0
 10
46.0748
 20
112.003
 11
46.9445
 21
112.82
  0
LINE
  8
0
 10
46.9445
 20
112.82
 11
47.9097
 21
113.521
  0
LINE
  8
0
 10
47.9097
 20
113.521
 11
48.9551
 21
114.096
  0
LINE
  8
0
 10
48.9551
 20
114.096
 11
50.0643
 21
114.535
  0
LINE
  8
0
 10
50.0643
 20
114.535
 11
51.2199
 21
114.832
  0
LINE
  8
0
 10
51.2199
 20
114.832
 11
52.4035
 21
114.981
  0
LINE
  8
0
 10
52.4035
 20
114.981
 11
53.5965
 21
114.981
  0
LINE
  8
0
 10
53.5965
 20
114.981
 11
54.7801
 21
114.832
  0
LINE
  8
0
 10
54.7801
 20
114.832
 11
55.9357
 21
114.535
  0
LINE
  8
0
 10
55.9357
 20
114.535
 11
57.0449
 21
114.096
  0
LINE
  8
0
 10
57.0449
 20
114.096
 11
58.0903
 21
113.521
  0
LINE
  8
0
 10
58.0903
 20
113.521
 11
59.0555
 21
112.82
  0
LINE
  8
0
 10
59.0555
 20
112.82
 11
59.9252
 21
112.003
  0
LINE
  8
0
 10
59.9252
 20
112.003
 11
60.6857
 21
111.084
  0
LINE
  8
0
 10
60.6857
 20
111.084
 11
61.3249
 21
110.077
  0
LINE
  8
0
 10
61.3249
 20
110.077
 11
61.8329
 21
108.997
  0
LINE
  8
0
 10
61.8329
 20
108.997
 11
62.2015
 21
107.863
  0
LINE
  8
0
 10
62.2015
 20
107.863
 11
62.4251
 21
106.691
  0
LINE
  8
0
 10
62.4251
 20
106.691
 11
62.5
 21
105.5
  0
LINE
  8
0
 10
62.5
 20
105.5
 11
62.5
 21
102.5
  0
LINE
  8
0
 10
62.5
 20
102.5
 11
62.4251
 21
101.309
  0
LINE
  8
0
 10
62.4251
 20
101.309
 11
62.2015
 21
100.137
  0
LINE
  8
0
 10
62.2015
 20
100.137
 11
61.8329
 21
99.0028
  0
LINE
  8
0
 10
61.8329
 20
99.0028
 11
61.3249
 21
97.9234
  0
LINE
  8
0
 10
61.3249
 20
97.9234
 11
60.6857
 21
96.916
  0
LINE
  8
0
 10
60.6857
 20
96.916
 11
59.9252
 21
95.9968
  0
LINE
  8
0
 10
59.9252
 20
95.9968
 11
59.0555
 21
95.1801
  0
LINE
  8
0
 10
59.0555
 20
95.1801
 11
58.0903
 21
94.4789
  0
LINE
  8
0
 10
58.0903
 20
94.4789
 11
57.0449
 21
93.9041
  0
LINE
  8
0
 10
57.0449
 20
93.9041
 11
55.9357
 21
93.465
  0
LINE
  8
0
 10
55.9357
 20
93.465
 11
54.7801
 21
93.1683
  0
LINE
  8
0
 10
54.7801
 20
93.1683
 11
53.5965
 21
93.0188
  0
LINE
  8
0
 10
53.5965
 20
93.0188
 11
52.4035
 21
93.0188
  0
LINE
  8
0
 10
13.2058
 20
107.103
 11
13.0189
 21
107.127
  0
LINE
  8
0
 10
13.0189
 20
107.127
 11
12.8365
 21
107.173
  0
LINE
  8
0
 10
12.8365
 20
107.173
 11
12.6613
 21
107.243
  0
LINE
  8
0
 10
12.6613
 20
107.243
 11
12.4962
 21
107.333
  0
LINE
  8
0
 10
12.4962
 20
107.333
 11
12.3438
 21
107.444
  0
LINE
  8
0
 10
12.3438
 20
107.444
 11
12.2065
 21
107.573
  0
LINE
  8
0
 10
12.2065
 20
107.573
 11
12.0865
 21
107.718
  0
LINE
  8
0
 10
12.0865
 20
107.718
 11
11.9855
 21
107.877
  0
LINE
  8
0
 10
11.9855
 20
107.877
 11
11.9053
 21
108.048
  0
LINE
  8
0
 10
11.9053
 20
108.048
 11
11.8471
 21
108.227
  0
LINE
  8
0
 10
11.8471
 20
108.227
 11
11.8118
 21
108.412
  0
LINE
  8
0
 10
11.8118
 20
108.412
 11
11.8
 21
108.6
  0
LINE
  8
0
 10
11.8
 20
108.6
 11
11.8118
 21
108.788
  0
LINE
  8
0
 10
11.8118
 20
108.788
 11
11.8471
 21
108.973
  0
LINE
  8
0
 10
11.8471
 20
108.973
 11
11.9053
 21
109.152
  0
LINE
  8
0
 10
11.9053
 20
109.152
 11
11.9855
 21
109.323
  0
LINE
  8
0
 10
11.9855
 20
109.323
 11
12.0865
 21
109.482
  0
LINE
  8
0
 10
12.0865
 20
109.482
 11
12.2065
 21
109.627
  0
LINE
  8
0
 10
12.2065
 20
109.627
 11
12.3438
 21
109.756
  0
LINE
  8
0
 10
12.3438
 20
109.756
 11
12.4962
 21
109.866
  0
LINE
  8
0
 10
12.4962
 20
109.866
 11
12.6613
 21
109.957
  0
LINE
  8
0
 10
12.6613
 20
109.957
 11
12.8365
 21
110.027
  0
LINE
  8
0
 10
12.8365
 20
110.027
 11
13.0189
 21
110.073
  0
LINE
  8
0
 10
13.0189
 20
110.073
 11
13.2058
 21
110.097
  0
LINE
  8
0
 10
13.2058
 20
110.097
 11
13.3942
 21
110.097
  0
LINE
  8
0
 10
13.3942
 20
110.097
 11
13.5811
 21
110.073
  0
LINE
  8
0
 10
13.5811
 20
110.073
 11
13.7635
 21
110.027
  0
LINE
  8
0
 10
13.7635
 20
110.027
 11
13.9386
 21
109.957
  0
LINE
  8
0
 10
13.9386
 20
109.957
 11
14.1037
 21
109.866
  0
LINE
  8
0
 10
14.1037
 20
109.866
 11
14.2561
 21
109.756
  0
LINE
  8
0
 10
14.2561
 20
109.756
 11
14.3934
 21
109.627
  0
LINE
  8
0
 10
14.3934
 20
109.627
 11
14.5135
 21
109.482
  0
LINE
  8
0
 10
14.5135
 20
109.482
 11
14.6144
 21
109.323
  0
LINE
  8
0
 10
14.6144
 20
109.323
 11
14.6946
 21
109.152
  0
LINE
  8
0
 10
14.6946
 20
109.152
 11
14.7529
 21
108.973
  0
LINE
  8
0
 10
14.7529
 20
108.973
 11
14.7881
 21
108.788
  0
LINE
  8
0
 10
14.7881
 20
108.788
 11
14.8
 21
108.6
  0
LINE
  8
0
 10
14.8
 20
108.6
 11
14.7881
 21
108.412
  0
LINE
  8
0
 10
14.7881
 20
108.412
 11
14.7529
 21
108.227
  0
LINE
  8
0
 10
14.7529
 20
108.227
 11
14.6946
 21
108.048
  0
LINE
  8
0
 10
14.6946
 20
108.048
 11
14.6144
 21
107.877
  0
LINE
  8
0
 10
14.6144
 20
107.877
 11
14.5135
 21
107.718
  0
LINE
  8
0
 10
14.5135
 20
107.718
 11
14.3934
 21
107.573
  0
LINE
  8
0
 10
14.3934
 20
107.573
 11
14.2561
 21
107.444
  0
LINE
  8
0
 10
14.2561
 20
107.444
 11
14.1037
 21
107.333
  0
LINE
  8
0
 10
14.1037
 20
107.333
 11
13.9386
 21
107.243
  0
LINE
  8
0
 10
13.9386
 20
107.243
 11
13.7635
 21
107.173
  0
LINE
  8
0
 10
13.7635
 20
107.173
 11
13.5811
 21
107.127
  0
LINE
  8
0
 10
13.5811
 20
107.127
 11
13.3942
 21
107.103
  0
LINE
  8
0
 10
13.3942
 20
107.103
 11
13.2058
 21
107.103
  0
LINE
  8
0
 10
37.499
 20
98.63
 11
37.499
 21
109.37
  0
LINE
  8
0
 10
37.499
 20
109.37
 11
40.501
 21
109.37
  0
LINE
  8
0
 10
40.501
 20
109.37
 11
40.501
 21
98.63
  0
LINE
  8
0
 10
40.501
 20
98.63
 11
37.499
 21
98.63
  0
LINE
  8
0
 10
65.499
 20
98.63
 11
65.499
 21
109.37
  0
LINE
  8
0
 10
65.499
 20
109.37
 11
68.501
 21
109.37
  0
LINE
  8
0
 10
68.501
 20
109.37
 11
68.501
 21
98.63
  0
LINE
  8
0
 10
68.501
 20
98.63
 11
65.499
 21
98.63
  0
LINE
  8
0
 10
13.2058
 20
98.103
 11
13.0189
 21
98.1266
  0
LINE
  8
0
 10
13.0189
 20
98.1266
 11
12.8365
 21
98.1734
  0
LINE
  8
0
 10
12.8365
 20
98.1734
 11
12.6613
 21
98.2428
  0
LINE
  8
0
 10
12.6613
 20
98.2428
 11
12.4962
 21
98.3335
  0
LINE
  8
0
 10
12.4962
 20
98.3335
 11
12.3438
 21
98.4442
  0
LINE
  8
0
 10
12.3438
 20
98.4442
 11
12.2065
 21
98.5732
  0
LINE
  8
0
 10
12.2065
 20
98.5732
 11
12.0865
 21
98.7183
  0
LINE
  8
0
 10
12.0865
 20
98.7183
 11
11.9855
 21
98.8774
  0
LINE
  8
0
 10
11.9855
 20
98.8774
 11
11.9053
 21
99.0478
  0
LINE
  8
0
 10
11.9053
 20
99.0478
 11
11.8471
 21
99.227
  0
LINE
  8
0
 10
11.8471
 20
99.227
 11
11.8118
 21
99.412
  0
LINE
  8
0
 10
11.8118
 20
99.412
 11
11.8
 21
99.6
  0
LINE
  8
0
 10
11.8
 20
99.6
 11
11.8118
 21
99.788
  0
LINE
  8
0
 10
11.8118
 20
99.788
 11
11.8471
 21
99.973
  0
LINE
  8
0
 10
11.8471
 20
99.973
 11
11.9053
 21
100.152
  0
LINE
  8
0
 10
11.9053
 20
100.152
 11
11.9855
 21
100.323
  0
LINE
  8
0
 10
11.9855
 20
100.323
 11
12.0865
 21
100.482
  0
LINE
  8
0
 10
12.0865
 20
100.482
 11
12.2065
 21
100.627
  0
LINE
  8
0
 10
12.2065
 20
100.627
 11
12.3438
 21
100.756
  0
LINE
  8
0
 10
12.3438
 20
100.756
 11
12.4962
 21
100.866
  0
LINE
  8
0
 10
12.4962
 20
100.866
 11
12.6613
 21
100.957
  0
LINE
  8
0
 10
12.6613
 20
100.957
 11
12.8365
 21
101.027
  0
LINE
  8
0
 10
12.8365
 20
101.027
 11
13.0189
 21
101.073
  0
LINE
  8
0
 10
13.0189
 20
101.073
 11
13.2058
 21
101.097
  0
LINE
  8
0
 10
13.2058
 20
101.097
 11
13.3942
 21
101.097
  0
LINE
  8
0
 10
13.3942
 20
101.097
 11
13.5811
 21
101.073
  0
LINE
  8
0
 10
13.5811
 20
101.073
 11
13.7635
 21
101.027
  0
LINE
  8
0
 10
13.7635
 20
101.027
 11
13.9386
 21
100.957
  0
LINE
  8
0
 10
13.9386
 20
100.957
 11
14.1037
 21
100.866
  0
LINE
  8
0
 10
14.1037
 20
100.866
 11
14.2561
 21
100.756
  0
LINE
  8
0
 10
14.2561
 20
100.756
 11
14.3934
 21
100.627
  0
LINE
  8
0
 10
14.3934
 20
100.627
 11
14.5135
 21
100.482
  0
LINE
  8
0
 10
14.5135
 20
100.482
 11
14.6144
 21
100.323
  0
LINE
  8
0
 10
14.6144
 20
100.323
 11
14.6946
 21
100.152
  0
LINE
  8
0
 10
14.6946
 20
100.152
 11
14.7529
 21
99.973
  0
LINE
  8
0
 10
14.7529
 20
99.973
 11
14.7881
 21
99.788
  0
LINE
  8
0
 10
14.7881
 20
99.788
 11
14.8
 21
99.6
  0
LINE
  8
0
 10
14.8
 20
99.6
 11
14.7881
 21
99.412
  0
LINE
  8
0
 10
14.7881
 20
99.412
 11
14.7529
 21
99.227
  0
LINE
  8
0
 10
14.7529
 20
99.227
 11
14.6946
 21
99.0478
  0
LINE
  8
0
 10
14.6946
 20
99.0478
 11
14.6144
 21
98.8774
  0
LINE
  8
0
 10
14.6144
 20
98.8774
 11
14.5135
 21
98.7183
  0
LINE
  8
0
 10
14.5135
 20
98.7183
 11
14.3934
 21
98.5732
  0
LINE
  8
0
 10
14.3934
 20
98.5732
 11
14.2561
 21
98.4442
  0
LINE
  8
0
 10
14.2561
 20
98.4442
 11
14.1037
 21
98.3335
  0
LINE
  8
0
 10
14.1037
 20
98.3335
 11
13.9386
 21
98.2428
  0
LINE
  8
0
 10
13.9386
 20
98.2428
 11
13.7635
 21
98.1734
  0
LINE
  8
0
 10
13.7635
 20
98.1734
 11
13.5811
 21
98.1266
  0
LINE
  8
0
 10
13.5811
 20
98.1266
 11
13.3942
 21
98.103
  0
LINE
  8
0
 10
13.3942
 20
98.103
 11
13.2058
 21
98.103
  0
LINE
  8
0
 10
10.63
 20
92.599
 11
10.63
 21
95.601
  0
LINE
  8
0
 10
10.63
 20
95.601
 11
16.87
 21
95.601
  0
LINE
  8
0
 10
16.87
 20
95.601
 11
16.87
 21
92.599
  0
LINE
  8
0
 10
16.87
 20
92.599
 11
10.63
 21
92.599
  0
LINE
  8
0
 10
23.63
 20
92.599
 11
23.63
 21
95.601
  0
LINE
  8
0
 10
23.63
 20
95.601
 11
29.87
 21
95.601
  0
LINE
  8
0
 10
29.87
 20
95.601
 11
29.87
 21
92.599
  0
LINE
  8
0
 10
29.87
 20
92.599
 11
23.63
 21
92.599
  0
LINE
  8
0
 10
89.13
 20
92.599
 11
89.13
 21
95.601
  0
LINE
  8
0
 10
89.13
 20
95.601
 11
95.37
 21
95.601
  0
LINE
  8
0
 10
95.37
 20
95.601
 11
95.37
 21
92.599
  0
LINE
  8
0
 10
95.37
 20
92.599
 11
89.13
 21
92.599
  0
LINE
  8
0
 10
76.13
 20
92.599
 11
76.13
 21
95.601
  0
LINE
  8
0
 10
76.13
 20
95.601
 11
82.37
 21
95.601
  0
LINE
  8
0
 10
82.37
 20
95.601
 11
82.37
 21
92.599
  0
LINE
  8
0
 10
82.37
 20
92.599
 11
76.13
 21
92.599
  0
LINE
  8
0
 10
143.5
 20
78
 11
146.5
 21
78
  0
LINE
  8
0
 10
146.5
 20
78
 11
146.5
 21
81
  0
LINE
  8
0
 10
146.5
 20
81
 11
143.5
 21
81
  0
LINE
  8
0
 10
143.5
 20
81
 11
143.5
 21
106
  0
LINE
  8
0
 10
143.5
 20
106
 11
146.5
 21
106
  0
LINE
  8
0
 10
146.5
 20
106
 11
146.5
 21
109
  0
LINE
  8
0
 10
146.5
 20
109
 11
115.5
 21
109
  0
LINE
  8
0
 10
115.5
 20
109
 11
115.5
 21
106
  0
LINE
  8
0
 10
115.5
 20
106
 11
118.5
 21
106
  0
LINE
  8
0
 10
118.5
 20
106
 11
118.5
 21
81
  0
LINE
  8
0
 10
118.5
 20
81
 11
115.5
 21
81
  0
LINE
  8
0
 10
115.5
 20
81
 11
115.5
 21
78
  0
LINE
  8
0
 10
115.5
 20
78
 11
118.5
 21
78
  0
LINE
  8
0
 10
118.5
 20
78
 11
120
 21
75
  0
LINE
  8
0
 10
120
 20
75
 11
142
 21
75
  0
LINE
  8
0
 10
142
 20
75
 11
143.5
 21
78
  0
LINE
  8
0
 10
130.451
 20
84.7673
 11
129.36
 21
84.905
  0
LINE
  8
0
 10
129.36
 20
84.905
 11
128.296
 21
85.1783
  0
LINE
  8
0
 10
128.296
 20
85.1783
 11
127.274
 21
85.5827
  0
LINE
  8
0
 10
127.274
 20
85.5827
 11
126.312
 21
86.1121
  0
LINE
  8
0
 10
126.312
 20
86.1121
 11
125.423
 21
86.758
  0
LINE
  8
0
 10
125.423
 20
86.758
 11
124.622
 21
87.5102
  0
LINE
  8
0
 10
124.622
 20
87.5102
 11
123.921
 21
88.3569
  0
LINE
  8
0
 10
123.921
 20
88.3569
 11
123.332
 21
89.2847
  0
LINE
  8
0
 10
123.332
 20
89.2847
 11
122.864
 21
90.2789
  0
LINE
  8
0
 10
122.864
 20
90.2789
 11
122.525
 21
91.324
  0
LINE
  8
0
 10
122.525
 20
91.324
 11
122.319
 21
92.4033
  0
LINE
  8
0
 10
122.319
 20
92.4033
 11
122.25
 21
93.5
  0
LINE
  8
0
 10
122.25
 20
93.5
 11
122.319
 21
94.5967
  0
LINE
  8
0
 10
122.319
 20
94.5967
 11
122.525
 21
95.676
  0
LINE
  8
0
 10
122.525
 20
95.676
 11
122.864
 21
96.7211
  0
LINE
  8
0
 10
122.864
 20
96.7211
 11
123.332
 21
97.7153
  0
LINE
  8
0
 10
123.332
 20
97.7153
 11
123.921
 21
98.6431
  0
LINE
  8
0
 10
123.921
 20
98.6431
 11
124.622
 21
99.4898
  0
LINE
  8
0
 10
124.622
 20
99.4898
 11
125.423
 21
100.242
  0
LINE
  8
0
 10
125.423
 20
100.242
 11
126.312
 21
100.888
  0
LINE
  8
0
 10
126.312
 20
100.888
 11
127.274
 21
101.417
  0
LINE
  8
0
 10
127.274
 20
101.417
 11
128.296
 21
101.822
  0
LINE
  8
0
 10
128.296
 20
101.822
 11
129.36
 21
102.095
  0
LINE
  8
0
 10
129.36
 20
102.095
 11
130.451
 21
102.233
  0
LINE
  8
0
 10
130.451
 20
102.233
 11
131.549
 21
102.233
  0
LINE
  8
0
 10
131.549
 20
102.233
 11
132.64
 21
102.095
  0
LINE
  8
0
 10
132.64
 20
102.095
 11
133.704
 21
101.822
  0
LINE
  8
0
 10
133.704
 20
101.822
 11
134.726
 21
101.417
  0
LINE
  8
0
 10
134.726
 20
101.417
 11
135.688
 21
100.888
  0
LINE
  8
0
 10
135.688
 20
100.888
 11
136.577
 21
100.242
  0
LINE
  8
0
 10
136.577
 20
100.242
 11
137.378
 21
99.4898
  0
LINE
  8
0
 10
137.378
 20
99.4898
 11
138.079
 21
98.6431
  0
LINE
  8
0
 10
138.079
 20
98.6431
 11
138.668
 21
97.7153
  0
LINE
  8
0
 10
138.668
 20
97.7153
 11
139.136
 21
96.7211
  0
LINE
  8
0
 10
139.136
 20
96.7211
 11
139.475
 21
95.676
  0
LINE
  8
0
 10
139.475
 20
95.676
 11
139.681
 21
94.5967
  0
LINE
  8
0
 10
139.681
 20
94.5967
 11
139.75
 21
93.5
  0
LINE
  8
0
 10
139.75
 20
93.5
 11
139.681
 21
92.4033
  0
LINE
  8
0
 10
139.681
 20
92.4033
 11
139.475
 21
91.324
  0
LINE
  8
0
 10
139.475
 20
91.324
 11
139.136
 21
90.2789
  0
LINE
  8
0
 10
139.136
 20
90.2789
 11
138.668
 21
89.2847
  0
LINE
  8
0
 10
138.668
 20
89.2847
 11
138.079
 21
88.3569
  0
LINE
  8
0
 10
138.079
 20
88.3569
 11
137.378
 21
87.5102
  0
LINE
  8
0
 10
137.378
 20
87.5102
 11
136.577
 21
86.758
  0
LINE
  8
0
 10
136.577
 20
86.758
 11
135.688
 21
86.1121
  0
LINE
  8
0
 10
135.688
 20
86.1121
 11
134.726
 21
85.5827
  0
LINE
  8
0
 10
134.726
 20
85.5827
 11
133.704
 21
85.1783
  0
LINE
  8
0
 10
133.704
 20
85.1783
 11
132.64
 21
84.905
  0
LINE
  8
0
 10
132.64
 20
84.905
 11
131.549
 21
84.7673
  0
LINE
  8
0
 10
131.549
 20
84.7673
 11
130.451
 21
84.7673
  0
LINE
  8
0
 10
205.5
 20
86.63
 11
202.499
 21
86.63
  0
LINE
  8
0
 10
202.499
 20
86.63
 11
202.499
 21
97.37
  0
LINE
  8
0
 10
202.499
 20
97.37
 11
205.5
 21
97.37
  0
LINE
  8
0
 10
205.5
 20
97.37
 11
205.5
 21
106
  0
LINE
  8
0
 10
205.5
 20
106
 11
174.5
 21
106
  0
LINE
  8
0
 10
174.5
 20
106
 11
174.5
 21
97.37
  0
LINE
  8
0
 10
174.5
 20
97.37
 11
177.501
 21
97.37
  0
LINE
  8
0
 10
177.501
 20
97.37
 11
177.501
 21
86.63
  0
LINE
  8
0
 10
177.501
 20
86.63
 11
174.5
 21
86.63
  0
LINE
  8
0
 10
174.5
 20
86.63
 11
174.5
 21
78
  0
LINE
  8
0
 10
174.5
 20
78
 11
205.5
 21
78
  0
LINE
  8
0
 10
205.5
 20
78
 11
205.5
 21
86.63
  0
LINE
  8
0
 10
212.65
 20
86.37
 11
215.651
 21
86.37
  0
LINE
  8
0
 10
215.651
 20
86.37
 11
215.651
 21
97.63
  0
LINE
  8
0
 10
215.651
 20
97.63
 11
212.65
 21
97.63
  0
LINE
  8
0
 10
212.65
 20
97.63
 11
212.65
 21
103
  0
LINE
  8
0
 10
212.65
 20
103
 11
209.5
 21
103
  0
LINE
  8
0
 10
209.5
 20
103
 11
209.5
 21
97.63
  0
LINE
  8
0
 10
209.5
 20
97.63
 11
206.499
 21
97.63
  0
LINE
  8
0
 10
206.499
 20
97.63
 11
206.499
 21
86.37
  0
LINE
  8
0
 10
206.499
 20
86.37
 11
209.5
 21
86.37
  0
LINE
  8
0
 10
209.5
 20
86.37
 11
209.5
 21
81
  0
LINE
  8
0
 10
209.5
 20
81
 11
212.65
 21
81
  0
LINE
  8
0
 10
212.65
 20
81
 11
212.65
 21
86.37
  0
LINE
  8
0
 10
170.65
 20
86.37
 11
173.651
 21
86.37
  0
LINE
  8
0
 10
173.651
 20
86.37
 11
173.651
 21
97.63
  0
LINE
  8
0
 10
173.651
 20
97.63
 11
170.65
 21
97.63
  0
LINE
  8
0
 10
170.65
 20
97.63
 11
170.65
 21
103
  0
LINE
  8
0
 10
170.65
 20
103
 11
167.5
 21
103
  0
LINE
  8
0
 10
167.5
 20
103
 11
167.5
 21
97.63
  0
LINE
  8
0
 10
167.5
 20
97.63
 11
164.499
 21
97.63
  0
LINE
  8
0
 10
164.499
 20
97.63
 11
164.499
 21
86.37
  0
LINE
  8
0
 10
164.499
 20
86.37
 11
167.5
 21
86.37
  0
LINE
  8
0
 10
167.5
 20
86.37
 11
167.5
 21
81
  0
LINE
  8
0
 10
167.5
 20
81
 11
170.65
 21
81
  0
LINE
  8
0
 10
170.65
 20
81
 11
170.65
 21
86.37
  0
LINE
  8
0
 10
7.62999
 20
54.001
 11
13.4367
 21
54.001
  0
LINE
  8
0
 10
13.4367
 20
54.001
 11
13.4367
 21
51
  0
LINE
  8
0
 10
13.4367
 20
51
 11
19.7633
 21
51
  0
LINE
  8
0
 10
19.7633
 20
51
 11
19.7633
 21
54.001
  0
LINE
  8
0
 10
19.7633
 20
54.001
 11
25.57
 21
54.001
  0
LINE
  8
0
 10
25.57
 20
54.001
 11
25.57
 21
51
  0
LINE
  8
0
 10
25.57
 20
51
 11
31.8967
 21
51
  0
LINE
  8
0
 10
31.8967
 20
51
 11
31.8967
 21
54.001
  0
LINE
  8
0
 10
31.8967
 20
54.001
 11
37.7033
 21
54.001
  0
LINE
  8
0
 10
37.7033
 20
54.001
 11
37.7033
 21
51
  0
LINE
  8
0
 10
37.7033
 20
51
 11
44.03
 21
51
  0
LINE
  8
0
 10
44.03
 20
51
 11
44.03
 21
54.001
  0
LINE
  8
0
 10
44.03
 20
54.001
 11
49.8367
 21
54.001
  0
LINE
  8
0
 10
49.8367
 20
54.001
 11
49.8367
 21
51
  0
LINE
  8
0
 10
49.8367
 20
51
 11
56.1633
 21
51
  0
LINE
  8
0
 10
56.1633
 20
51
 11
56.1633
 21
54.001
  0
LINE
  8
0
 10
56.1633
 20
54.001
 11
61.97
 21
54.001
  0
LINE
  8
0
 10
61.97
 20
54.001
 11
61.97
 21
51
  0
LINE
  8
0
 10
61.97
 20
51
 11
68.2967
 21
51
  0
LINE
  8
0
 10
68.2967
 20
51
 11
68.2967
 21
54.001
  0
LINE
  8
0
 10
68.2967
 20
54.001
 11
74.1033
 21
54.001
  0
LINE
  8
0
 10
74.1033
 20
54.001
 11
74.1033
 21
51
  0
LINE
  8
0
 10
74.1033
 20
51
 11
80.43
 21
51
  0
LINE
  8
0
 10
80.43
 20
51
 11
80.43
 21
54.001
  0
LINE
  8
0
 10
80.43
 20
54.001
 11
86.2367
 21
54.001
  0
LINE
  8
0
 10
86.2367
 20
54.001
 11
86.2367
 21
51
  0
LINE
  8
0
 10
86.2367
 20
51
 11
92.5633
 21
51
  0
LINE
  8
0
 10
92.5633
 20
51
 11
92.5633
 21
54.001
  0
LINE
  8
0
 10
92.5633
 20
54.001
 11
98.37
 21
54.001
  0
LINE
  8
0
 10
98.37
 20
54.001
 11
98.37
 21
51
  0
LINE
  8
0
 10
98.37
 20
51
 11
103
 21
51
  0
LINE
  8
0
 10
103
 20
51
 11
103
 21
58.37
  0
LINE
  8
0
 10
103
 20
58.37
 11
106.001
 21
58.37
  0
LINE
  8
0
 10
106.001
 20
58.37
 11
106.001
 21
63.9633
  0
LINE
  8
0
 10
106.001
 20
63.9633
 11
103
 21
63.9633
  0
LINE
  8
0
 10
103
 20
63.9633
 11
103
 21
69.0367
  0
LINE
  8
0
 10
103
 20
69.0367
 11
106.001
 21
69.0367
  0
LINE
  8
0
 10
106.001
 20
69.0367
 11
106.001
 21
74.63
  0
LINE
  8
0
 10
106.001
 20
74.63
 11
103
 21
74.63
  0
LINE
  8
0
 10
103
 20
74.63
 11
103
 21
82
  0
LINE
  8
0
 10
103
 20
82
 11
3
 21
82
  0
LINE
  8
0
 10
3
 20
82
 11
3
 21
74.63
  0
LINE
  8
0
 10
3
 20
74.63
 11
-0.000991821
 21
74.63
  0
LINE
  8
0
 10
-0.000991821
 20
74.63
 11
-0.000991821
 21
69.0367
  0
LINE
  8
0
 10
-0.000991821
 20
69.0367
 11
3
 21
69.0367
  0
LINE
  8
0
 10
3
 20
69.0367
 11
3
 21
63.9633
  0
LINE
  8
0
 10
3
 20
63.9633
 11
-0.000991821
 21
63.9633
  0
LINE
  8
0
 10
-0.000991821
 20
63.9633
 11
-0.000991821
 21
58.37
  0
LINE
  8
0
 10
-0.000991821
 20
58.37
 11
3
 21
58.37
  0
LINE
  8
0
 10
3
 20
58.37
 11
3
 21
51
  0
LINE
  8
0
 10
3
 20
51
 11
7.62999
 21
51
  0
LINE
  8
0
 10
7.62999
 20
51
 11
7.62999
 21
54.001
  0
LINE
  8
0
 10
29.4977
 20
58.5158
 11
28.5009
 21
58.6417
  0
LINE
  8
0
 10
28.5009
 20
58.6417
 11
27.5279
 21
58.8915
  0
LINE
  8
0
 10
27.5279
 20
58.8915
 11
26.5938
 21
59.2614
  0
LINE
  8
0
 10
26.5938
 20
59.2614
 11
25.7134
 21
59.7454
  0
LINE
  8
0
 10
25.7134
 20
59.7454
 11
24.9006
 21
60.3359
  0
LINE
  8
0
 10
24.9006
 20
60.3359
 11
24.1682
 21
61.0236
  0
LINE
  8
0
 10
24.1682
 20
61.0236
 11
23.5279
 21
61.7977
  0
LINE
  8
0
 10
23.5279
 20
61.7977
 11
22.9895
 21
62.646
  0
LINE
  8
0
 10
22.9895
 20
62.646
 11
22.5618
 21
63.555
  0
LINE
  8
0
 10
22.5618
 20
63.555
 11
22.2513
 21
64.5105
  0
LINE
  8
0
 10
22.2513
 20
64.5105
 11
22.0631
 21
65.4973
  0
LINE
  8
0
 10
22.0631
 20
65.4973
 11
22
 21
66.5
  0
LINE
  8
0
 10
22
 20
66.5
 11
22.0631
 21
67.5027
  0
LINE
  8
0
 10
22.0631
 20
67.5027
 11
22.2513
 21
68.4895
  0
LINE
  8
0
 10
22.2513
 20
68.4895
 11
22.5618
 21
69.445
  0
LINE
  8
0
 10
22.5618
 20
69.445
 11
22.9895
 21
70.354
  0
LINE
  8
0
 10
22.9895
 20
70.354
 11
23.5279
 21
71.2023
  0
LINE
  8
0
 10
23.5279
 20
71.2023
 11
24.1682
 21
71.9764
  0
LINE
  8
0
 10
24.1682
 20
71.9764
 11
24.9006
 21
72.6641
  0
LINE
  8
0
 10
24.9006
 20
72.6641
 11
25.7134
 21
73.2546
  0
LINE
  8
0
 10
25.7134
 20
73.2546
 11
26.5938
 21
73.7386
  0
LINE
  8
0
 10
26.5938
 20
73.7386
 11
27.5279
 21
74.1084
  0
LINE
  8
0
 10
27.5279
 20
74.1084
 11
28.5009
 21
74.3583
  0
LINE
  8
0
 10
28.5009
 20
74.3583
 11
29.4977
 21
74.4842
  0
LINE
  8
0
 10
29.4977
 20
74.4842
 11
30.5023
 21
74.4842
  0
LINE
  8
0
 10
30.5023
 20
74.4842
 11
31.499
 21
74.3583
  0
LINE
  8
0
 10
31.499
 20
74.3583
 11
32.4721
 21
74.1084
  0
LINE
  8
0
 10
32.4721
 20
74.1084
 11
33.4062
 21
73.7386
  0
LINE
  8
0
 10
33.4062
 20
73.7386
 11
34.2866
 21
73.2546
  0
LINE
  8
0
 10
34.2866
 20
73.2546
 11
35.0994
 21
72.6641
  0
LINE
  8
0
 10
35.0994
 20
72.6641
 11
35.8317
 21
71.9764
  0
LINE
  8
0
 10
35.8317
 20
71.9764
 11
36.4721
 21
71.2023
  0
LINE
  8
0
 10
36.4721
 20
71.2023
 11
37.0105
 21
70.354
  0
LINE
  8
0
 10
37.0105
 20
70.354
 11
37.4382
 21
69.445
  0
LINE
  8
0
 10
37.4382
 20
69.445
 11
37.7487
 21
68.4895
  0
LINE
  8
0
 10
37.7487
 20
68.4895
 11
37.9369
 21
67.5027
  0
LINE
  8
0
 10
37.9369
 20
67.5027
 11
38
 21
66.5
  0
LINE
  8
0
 10
38
 20
66.5
 11
37.9369
 21
65.4973
  0
LINE
  8
0
 10
37.9369
 20
65.4973
 11
37.7487
 21
64.5105
  0
LINE
  8
0
 10
37.7487
 20
64.5105
 11
37.4382
 21
63.555
  0
LINE
  8
0
 10
37.4382
 20
63.555
 11
37.0105
 21
62.646
  0
LINE
  8
0
 10
37.0105
 20
62.646
 11
36.4721
 21
61.7977
  0
LINE
  8
0
 10
36.4721
 20
61.7977
 11
35.8317
 21
61.0236
  0
LINE
  8
0
 10
35.8317
 20
61.0236
 11
35.0994
 21
60.3359
  0
LINE
  8
0
 10
35.0994
 20
60.3359
 11
34.2866
 21
59.7454
  0
LINE
  8
0
 10
34.2866
 20
59.7454
 11
33.4062
 21
59.2614
  0
LINE
  8
0
 10
33.4062
 20
59.2614
 11
32.4721
 21
58.8915
  0
LINE
  8
0
 10
32.4721
 20
58.8915
 11
31.499
 21
58.6417
  0
LINE
  8
0
 10
31.499
 20
58.6417
 11
30.5023
 21
58.5158
  0
LINE
  8
0
 10
30.5023
 20
58.5158
 11
29.4977
 21
58.5158
  0
LINE
  8
0
 10
75.4977
 20
58.5158
 11
74.5009
 21
58.6417
  0
LINE
  8
0
 10
74.5009
 20
58.6417
 11
73.5279
 21
58.8915
  0
LINE
  8
0
 10
73.5279
 20
58.8915
 11
72.5938
 21
59.2614
  0
LINE
  8
0
 10
72.5938
 20
59.2614
 11
71.7134
 21
59.7454
  0
LINE
  8
0
 10
71.7134
 20
59.7454
 11
70.9006
 21
60.3359
  0
LINE
  8
0
 10
70.9006
 20
60.3359
 11
70.1682
 21
61.0236
  0
LINE
  8
0
 10
70.1682
 20
61.0236
 11
69.5279
 21
61.7977
  0
LINE
  8
0
 10
69.5279
 20
61.7977
 11
68.9895
 21
62.646
  0
LINE
  8
0
 10
68.9895
 20
62.646
 11
68.5618
 21
63.555
  0
LINE
  8
0
 10
68.5618
 20
63.555
 11
68.2513
 21
64.5105
  0
LINE
  8
0
 10
68.2513
 20
64.5105
 11
68.0631
 21
65.4973
  0
LINE
  8
0
 10
68.0631
 20
65.4973
 11
68
 21
66.5
  0
LINE
  8
0
 10
68
 20
66.5
 11
68.0631
 21
67.5027
  0
LINE
  8
0
 10
68.0631
 20
67.5027
 11
68.2513
 21
68.4895
  0
LINE
  8
0
 10
68.2513
 20
68.4895
 11
68.5618
 21
69.445
  0
LINE
  8
0
 10
68.5618
 20
69.445
 11
68.9895
 21
70.354
  0
LINE
  8
0
 10
68.9895
 20
70.354
 11
69.5279
 21
71.2023
  0
LINE
  8
0
 10
69.5279
 20
71.2023
 11
70.1682
 21
71.9764
  0
LINE
  8
0
 10
70.1682
 20
71.9764
 11
70.9006
 21
72.6641
  0
LINE
  8
0
 10
70.9006
 20
72.6641
 11
71.7134
 21
73.2546
  0
LINE
  8
0
 10
71.7134
 20
73.2546
 11
72.5938
 21
73.7386
  0
LINE
  8
0
 10
72.5938
 20
73.7386
 11
73.5279
 21
74.1084
  0
LINE
  8
0
 10
73.5279
 20
74.1084
 11
74.5009
 21
74.3583
  0
LINE
  8
0
 10
74.5009
 20
74.3583
 11
75.4977
 21
74.4842
  0
LINE
  8
0
 10
75.4977
 20
74.4842
 11
76.5023
 21
74.4842
  0
LINE
  8
0
 10
76.5023
 20
74.4842
 11
77.499
 21
74.3583
  0
LINE
  8
0
 10
77.499
 20
74.3583
 11
78.4721
 21
74.1084
  0
LINE
  8
0
 10
78.4721
 20
74.1084
 11
79.4062
 21
73.7386
  0
LINE
  8
0
 10
79.4062
 20
73.7386
 11
80.2866
 21
73.2546
  0
LINE
  8
0
 10
80.2866
 20
73.2546
 11
81.0994
 21
72.6641
  0
LINE
  8
0
 10
81.0994
 20
72.6641
 11
81.8317
 21
71.9764
  0
LINE
  8
0
 10
81.8317
 20
71.9764
 11
82.4721
 21
71.2023
  0
LINE
  8
0
 10
82.4721
 20
71.2023
 11
83.0105
 21
70.354
  0
LINE
  8
0
 10
83.0105
 20
70.354
 11
83.4382
 21
69.445
  0
LINE
  8
0
 10
83.4382
 20
69.445
 11
83.7487
 21
68.4895
  0
LINE
  8
0
 10
83.7487
 20
68.4895
 11
83.9369
 21
67.5027
  0
LINE
  8
0
 10
83.9369
 20
67.5027
 11
84
 21
66.5
  0
LINE
  8
0
 10
84
 20
66.5
 11
83.9369
 21
65.4973
  0
LINE
  8
0
 10
83.9369
 20
65.4973
 11
83.7487
 21
64.5105
  0
LINE
  8
0
 10
83.7487
 20
64.5105
 11
83.4382
 21
63.555
  0
LINE
  8
0
 10
83.4382
 20
63.555
 11
83.0105
 21
62.646
  0
LINE
  8
0
 10
83.0105
 20
62.646
 11
82.4721
 21
61.7977
  0
LINE
  8
0
 10
82.4721
 20
61.7977
 11
81.8317
 21
61.0236
  0
LINE
  8
0
 10
81.8317
 20
61.0236
 11
81.0994
 21
60.3359
  0
LINE
  8
0
 10
81.0994
 20
60.3359
 11
80.2866
 21
59.7454
  0
LINE
  8
0
 10
80.2866
 20
59.7454
 11
79.4062
 21
59.2614
  0
LINE
  8
0
 10
79.4062
 20
59.2614
 11
78.4721
 21
58.8915
  0
LINE
  8
0
 10
78.4721
 20
58.8915
 11
77.499
 21
58.6417
  0
LINE
  8
0
 10
77.499
 20
58.6417
 11
76.5023
 21
58.5158
  0
LINE
  8
0
 10
76.5023
 20
58.5158
 11
75.4977
 21
58.5158
  0
LINE
  8
0
 10
55.4214
 20
69.1217
 11
55.3244
 21
69.4203
  0
LINE
  8
0
 10
55.3244
 20
69.4203
 11
55.1908
 21
69.7044
  0
LINE
  8
0
 10
55.1908
 20
69.7044
 11
55.0225
 21
69.9695
  0
LINE
  8
0
 10
55.0225
 20
69.9695
 11
54.8224
 21
70.2114
  0
LINE
  8
0
 10
54.8224
 20
70.2114
 11
54.5936
 21
70.4263
  0
LINE
  8
0
 10
54.5936
 20
70.4263
 11
54.3396
 21
70.6108
  0
LINE
  8
0
 10
54.3396
 20
70.6108
 11
54.0644
 21
70.7621
  0
LINE
  8
0
 10
54.0644
 20
70.7621
 11
53.7725
 21
70.8776
  0
LINE
  8
0
 10
53.7725
 20
70.8776
 11
53.4684
 21
70.9557
  0
LINE
  8
0
 10
53.4684
 20
70.9557
 11
53.157
 21
70.9951
  0
LINE
  8
0
 10
53.157
 20
70.9951
 11
52.843
 21
70.9951
  0
LINE
  8
0
 10
52.843
 20
70.9951
 11
52.5316
 21
70.9557
  0
LINE
  8
0
 10
52.5316
 20
70.9557
 11
52.2275
 21
70.8776
  0
LINE
  8
0
 10
52.2275
 20
70.8776
 11
51.9356
 21
70.7621
  0
LINE
  8
0
 10
51.9356
 20
70.7621
 11
51.6604
 21
70.6108
  0
LINE
  8
0
 10
51.6604
 20
70.6108
 11
51.4064
 21
70.4263
  0
LINE
  8
0
 10
51.4064
 20
70.4263
 11
51.1776
 21
70.2114
  0
LINE
  8
0
 10
51.1776
 20
70.2114
 11
50.9775
 21
69.9695
  0
LINE
  8
0
 10
50.9775
 20
69.9695
 11
50.8092
 21
69.7044
  0
LINE
  8
0
 10
50.8092
 20
69.7044
 11
50.6756
 21
69.4203
  0
LINE
  8
0
 10
50.6756
 20
69.4203
 11
50.5786
 21
69.1217
  0
LINE
  8
0
 10
50.5786
 20
69.1217
 11
50.5553
 21
69
  0
LINE
  8
0
 10
50.5553
 20
69
 11
50.5197
 21
69.1867
  0
LINE
  8
0
 10
50.5197
 20
69.1867
 11
50.5
 21
69.5
  0
LINE
  8
0
 10
50.5
 20
69.5
 11
50.5197
 21
69.8133
  0
LINE
  8
0
 10
50.5197
 20
69.8133
 11
50.5786
 21
70.1217
  0
LINE
  8
0
 10
50.5786
 20
70.1217
 11
50.6756
 21
70.4203
  0
LINE
  8
0
 10
50.6756
 20
70.4203
 11
50.8092
 21
70.7044
  0
LINE
  8
0
 10
50.8092
 20
70.7044
 11
50.9775
 21
70.9695
  0
LINE
  8
0
 10
50.9775
 20
70.9695
 11
51.1776
 21
71.2114
  0
LINE
  8
0
 10
51.1776
 20
71.2114
 11
51.4064
 21
71.4263
  0
LINE
  8
0
 10
51.4064
 20
71.4263
 11
51.6604
 21
71.6108
  0
LINE
  8
0
 10
51.6604
 20
71.6108
 11
51.9356
 21
71.7621
  0
LINE
  8
0
 10
51.9356
 20
71.7621
 11
52.2275
 21
71.8776
  0
LINE
  8
0
 10
52.2275
 20
71.8776
 11
52.5316
 21
71.9557
  0
LINE
  8
0
 10
52.5316
 20
71.9557
 11
52.843
 21
71.9951
  0
LINE
  8
0
 10
52.843
 20
71.9951
 11
53.157
 21
71.9951
  0
LINE
  8
0
 10
53.157
 20
71.9951
 11
53.4684
 21
71.9557
  0
LINE
  8
0
 10
53.4684
 20
71.9557
 11
53.7725
 21
71.8776
  0
LINE
  8
0
 10
53.7725
 20
71.8776
 11
54.0644
 21
71.7621
  0
LINE
  8
0
 10
54.0644
 20
71.7621
 11
54.3396
 21
71.6108
  0
LINE
  8
0
 10
54.3396
 20
71.6108
 11
54.5936
 21
71.4263
  0
LINE
  8
0
 10
54.5936
 20
71.4263
 11
54.8224
 21
71.2114
  0
LINE
  8
0
 10
54.8224
 20
71.2114
 11
55.0225
 21
70.9695
  0
LINE
  8
0
 10
55.0225
 20
70.9695
 11
55.1908
 21
70.7044
  0
LINE
  8
0
 10
55.1908
 20
70.7044
 11
55.3244
 21
70.4203
  0
LINE
  8
0
 10
55.3244
 20
70.4203
 11
55.4214
 21
70.1217
  0
LINE
  8
0
 10
55.4214
 20
70.1217
 11
55.4803
 21
69.8133
  0
LINE
  8
0
 10
55.4803
 20
69.8133
 11
55.5
 21
69.5
  0
LINE
  8
0
 10
55.5
 20
69.5
 11
55.4803
 21
69.1867
  0
LINE
  8
0
 10
55.4803
 20
69.1867
 11
55.4447
 21
69
  0
LINE
  8
0
 10
55.4447
 20
69
 11
55.4214
 21
69.1217
  0
LINE
  8
0
 10
13.6967
 20
3
 11
19.5033
 21
3
  0
LINE
  8
0
 10
19.5033
 20
3
 11
19.5033
 21
-0.000991821
  0
LINE
  8
0
 10
19.5033
 20
-0.000991821
 11
25.83
 21
-0.000991821
  0
LINE
  8
0
 10
25.83
 20
-0.000991821
 11
25.83
 21
3
  0
LINE
  8
0
 10
25.83
 20
3
 11
31.6367
 21
3
  0
LINE
  8
0
 10
31.6367
 20
3
 11
31.6367
 21
-0.000991821
  0
LINE
  8
0
 10
31.6367
 20
-0.000991821
 11
37.9633
 21
-0.000991821
  0
LINE
  8
0
 10
37.9633
 20
-0.000991821
 11
37.9633
 21
3
  0
LINE
  8
0
 10
37.9633
 20
3
 11
43.77
 21
3
  0
LINE
  8
0
 10
43.77
 20
3
 11
43.77
 21
-0.000991821
  0
LINE
  8
0
 10
43.77
 20
-0.000991821
 11
50.0967
 21
-0.000991821
  0
LINE
  8
0
 10
50.0967
 20
-0.000991821
 11
50.0967
 21
3
  0
LINE
  8
0
 10
50.0967
 20
3
 11
55.9033
 21
3
  0
LINE
  8
0
 10
55.9033
 20
3
 11
55.9033
 21
-0.000991821
  0
LINE
  8
0
 10
55.9033
 20
-0.000991821
 11
62.23
 21
-0.000991821
  0
LINE
  8
0
 10
62.23
 20
-0.000991821
 11
62.23
 21
3
  0
LINE
  8
0
 10
62.23
 20
3
 11
68.0367
 21
3
  0
LINE
  8
0
 10
68.0367
 20
3
 11
68.0367
 21
-0.000991821
  0
LINE
  8
0
 10
68.0367
 20
-0.000991821
 11
74.3633
 21
-0.000991821
  0
LINE
  8
0
 10
74.3633
 20
-0.000991821
 11
74.3633
 21
3
  0
LINE
  8
0
 10
74.3633
 20
3
 11
80.17
 21
3
  0
LINE
  8
0
 10
80.17
 20
3
 11
80.17
 21
-0.000991821
  0
LINE
  8
0
 10
80.17
 20
-0.000991821
 11
86.4967
 21
-0.000991821
  0
LINE
  8
0
 10
86.4967
 20
-0.000991821
 11
86.4967
 21
3
  0
LINE
  8
0
 10
86.4967
 20
3
 11
92.3033
 21
3
  0
LINE
  8
0
 10
92.3033
 20
3
 11
92.3033
 21
-0.000991821
  0
LINE
  8
0
 10
92.3033
 20
-0.000991821
 11
98.63
 21
-0.000991821
  0
LINE
  8
0
 10
98.63
 20
-0.000991821
 11
98.63
 21
3
  0
LINE
  8
0
 10
98.63
 20
3
 11
103
 21
3
  0
LINE
  8
0
 10
103
 20
3
 11
103
 21
7.37001
  0
LINE
  8
0
 10
103
 20
7.37001
 11
106.001
 21
7.37001
  0
LINE
  8
0
 10
106.001
 20
7.37001
 11
106.001
 21
14.63
  0
LINE
  8
0
 10
106.001
 20
14.63
 11
103
 21
14.63
  0
LINE
  8
0
 10
103
 20
14.63
 11
103
 21
21.37
  0
LINE
  8
0
 10
103
 20
21.37
 11
106.001
 21
21.37
  0
LINE
  8
0
 10
106.001
 20
21.37
 11
106.001
 21
28.63
  0
LINE
  8
0
 10
106.001
 20
28.63
 11
103
 21
28.63
  0
LINE
  8
0
 10
103
 20
28.63
 11
103
 21
35.37
  0
LINE
  8
0
 10
103
 20
35.37
 11
106.001
 21
35.37
  0
LINE
  8
0
 10
106.001
 20
35.37
 11
106.001
 21
42.63
  0
LINE
  8
0
 10
106.001
 20
42.63
 11
103
 21
42.63
  0
LINE
  8
0
 10
103
 20
42.63
 11
103
 21
47
  0
LINE
  8
0
 10
103
 20
47
 11
98.63
 21
47
  0
LINE
  8
0
 10
98.63
 20
47
 11
98.63
 21
50.001
  0
LINE
  8
0
 10
98.63
 20
50.001
 11
92.3033
 21
50.001
  0
LINE
  8
0
 10
92.3033
 20
50.001
 11
92.3033
 21
47
  0
LINE
  8
0
 10
92.3033
 20
47
 11
86.4967
 21
47
  0
LINE
  8
0
 10
86.4967
 20
47
 11
86.4967
 21
50.001
  0
LINE
  8
0
 10
86.4967
 20
50.001
 11
80.17
 21
50.001
  0
LINE
  8
0
 10
80.17
 20
50.001
 11
80.17
 21
47
  0
LINE
  8
0
 10
80.17
 20
47
 11
74.3633
 21
47
  0
LINE
  8
0
 10
74.3633
 20
47
 11
74.3633
 21
50.001
  0
LINE
  8
0
 10
74.3633
 20
50.001
 11
68.0367
 21
50.001
  0
LINE
  8
0
 10
68.0367
 20
50.001
 11
68.0367
 21
47
  0
LINE
  8
0
 10
68.0367
 20
47
 11
62.23
 21
47
  0
LINE
  8
0
 10
62.23
 20
47
 11
62.23
 21
50.001
  0
LINE
  8
0
 10
62.23
 20
50.001
 11
55.9033
 21
50.001
  0
LINE
  8
0
 10
55.9033
 20
50.001
 11
55.9033
 21
47
  0
LINE
  8
0
 10
55.9033
 20
47
 11
50.0967
 21
47
  0
LINE
  8
0
 10
50.0967
 20
47
 11
50.0967
 21
50.001
  0
LINE
  8
0
 10
50.0967
 20
50.001
 11
43.77
 21
50.001
  0
LINE
  8
0
 10
43.77
 20
50.001
 11
43.77
 21
47
  0
LINE
  8
0
 10
43.77
 20
47
 11
37.9633
 21
47
  0
LINE
  8
0
 10
37.9633
 20
47
 11
37.9633
 21
50.001
  0
LINE
  8
0
 10
37.9633
 20
50.001
 11
31.6367
 21
50.001
  0
LINE
  8
0
 10
31.6367
 20
50.001
 11
31.6367
 21
47
  0
LINE
  8
0
 10
31.6367
 20
47
 11
25.83
 21
47
  0
LINE
  8
0
 10
25.83
 20
47
 11
25.83
 21
50.001
  0
LINE
  8
0
 10
25.83
 20
50.001
 11
19.5033
 21
50.001
  0
LINE
  8
0
 10
19.5033
 20
50.001
 11
19.5033
 21
47
  0
LINE
  8
0
 10
19.5033
 20
47
 11
13.6967
 21
47
  0
LINE
  8
0
 10
13.6967
 20
47
 11
13.6967
 21
50.001
  0
LINE
  8
0
 10
13.6967
 20
50.001
 11
7.37
 21
50.001
  0
LINE
  8
0
 10
7.37
 20
50.001
 11
7.37
 21
47
  0
LINE
  8
0
 10
7.37
 20
47
 11
3
 21
47
  0
LINE
  8
0
 10
3
 20
47
 11
3
 21
42.63
  0
LINE
  8
0
 10
3
 20
42.63
 11
-0.000991821
 21
42.63
  0
LINE
  8
0
 10
-0.000991821
 20
42.63
 11
-0.000991821
 21
35.37
  0
LINE
  8
0
 10
-0.000991821
 20
35.37
 11
3
 21
35.37
  0
LINE
  8
0
 10
3
 20
35.37
 11
3
 21
28.63
  0
LINE
  8
0
 10
3
 20
28.63
 11
-0.000991821
 21
28.63
  0
LINE
  8
0
 10
-0.000991821
 20
28.63
 11
-0.000991821
 21
21.37
  0
LINE
  8
0
 10
-0.000991821
 20
21.37
 11
3
 21
21.37
  0
LINE
  8
0
 10
3
 20
21.37
 11
3
 21
14.63
  0
LINE
  8
0
 10
3
 20
14.63
 11
-0.000991821
 21
14.63
  0
LINE
  8
0
 10
-0.000991821
 20
14.63
 11
-0.000991821
 21
7.37001
  0
LINE
  8
0
 10
-0.000991821
 20
7.37001
 11
3
 21
7.37001
  0
LINE
  8
0
 10
3
 20
7.37001
 11
3
 21
3
  0
LINE
  8
0
 10
3
 20
3
 11
7.37
 21
3
  0
LINE
  8
0
 10
7.37
 20
3
 11
7.37
 21
-0.000991821
  0
LINE
  8
0
 10
7.37
 20
-0.000991821
 11
13.6967
 21
-0.000991821
  0
LINE
  8
0
 10
13.6967
 20
-0.000991821
 11
13.6967
 21
3
  0
LINE
  8
0
 10
90.4901
 20
40.6135
 11
90.2721
 21
40.641
  0
LINE
  8
0
 10
90.2721
 20
40.641
 11
90.0592
 21
40.6957
  0
LINE
  8
0
 10
90.0592
 20
40.6957
 11
89.8549
 21
40.7766
  0
LINE
  8
0
 10
89.8549
 20
40.7766
 11
89.6623
 21
40.8824
  0
LINE
  8
0
 10
89.6623
 20
40.8824
 11
89.4845
 21
41.0116
  0
LINE
  8
0
 10
89.4845
 20
41.0116
 11
89.3243
 21
41.162
  0
LINE
  8
0
 10
89.3243
 20
41.162
 11
89.1842
 21
41.3314
  0
LINE
  8
0
 10
89.1842
 20
41.3314
 11
89.0665
 21
41.5169
  0
LINE
  8
0
 10
89.0665
 20
41.5169
 11
88.9729
 21
41.7158
  0
LINE
  8
0
 10
88.9729
 20
41.7158
 11
88.905
 21
41.9248
  0
LINE
  8
0
 10
88.905
 20
41.9248
 11
88.8638
 21
42.1407
  0
LINE
  8
0
 10
88.8638
 20
42.1407
 11
88.85
 21
42.36
  0
LINE
  8
0
 10
88.85
 20
42.36
 11
88.8638
 21
42.5793
  0
LINE
  8
0
 10
88.8638
 20
42.5793
 11
88.905
 21
42.7952
  0
LINE
  8
0
 10
88.905
 20
42.7952
 11
88.9729
 21
43.0042
  0
LINE
  8
0
 10
88.9729
 20
43.0042
 11
89.0665
 21
43.2031
  0
LINE
  8
0
 10
89.0665
 20
43.2031
 11
89.1842
 21
43.3886
  0
LINE
  8
0
 10
89.1842
 20
43.3886
 11
89.3243
 21
43.558
  0
LINE
  8
0
 10
89.3243
 20
43.558
 11
89.4845
 21
43.7084
  0
LINE
  8
0
 10
89.4845
 20
43.7084
 11
89.6623
 21
43.8376
  0
LINE
  8
0
 10
89.6623
 20
43.8376
 11
89.8549
 21
43.9435
  0
LINE
  8
0
 10
89.8549
 20
43.9435
 11
90.0592
 21
44.0244
  0
LINE
  8
0
 10
90.0592
 20
44.0244
 11
90.2721
 21
44.079
  0
LINE
  8
0
 10
90.2721
 20
44.079
 11
90.4901
 21
44.1066
  0
LINE
  8
0
 10
90.4901
 20
44.1066
 11
90.7099
 21
44.1066
  0
LINE
  8
0
 10
90.7099
 20
44.1066
 11
90.9279
 21
44.079
  0
LINE
  8
0
 10
90.9279
 20
44.079
 11
91.1408
 21
44.0244
  0
LINE
  8
0
 10
91.1408
 20
44.0244
 11
91.3451
 21
43.9435
  0
LINE
  8
0
 10
91.3451
 20
43.9435
 11
91.5377
 21
43.8376
  0
LINE
  8
0
 10
91.5377
 20
43.8376
 11
91.7155
 21
43.7084
  0
LINE
  8
0
 10
91.7155
 20
43.7084
 11
91.8757
 21
43.558
  0
LINE
  8
0
 10
91.8757
 20
43.558
 11
92.0158
 21
43.3886
  0
LINE
  8
0
 10
92.0158
 20
43.3886
 11
92.1336
 21
43.2031
  0
LINE
  8
0
 10
92.1336
 20
43.2031
 11
92.2271
 21
43.0042
  0
LINE
  8
0
 10
92.2271
 20
43.0042
 11
92.295
 21
42.7952
  0
LINE
  8
0
 10
92.295
 20
42.7952
 11
92.3362
 21
42.5793
  0
LINE
  8
0
 10
92.3362
 20
42.5793
 11
92.35
 21
42.36
  0
LINE
  8
0
 10
92.35
 20
42.36
 11
92.3362
 21
42.1407
  0
LINE
  8
0
 10
92.3362
 20
42.1407
 11
92.295
 21
41.9248
  0
LINE
  8
0
 10
92.295
 20
41.9248
 11
92.2271
 21
41.7158
  0
LINE
  8
0
 10
92.2271
 20
41.7158
 11
92.1336
 21
41.5169
  0
LINE
  8
0
 10
92.1336
 20
41.5169
 11
92.0158
 21
41.3314
  0
LINE
  8
0
 10
92.0158
 20
41.3314
 11
91.8757
 21
41.162
  0
LINE
  8
0
 10
91.8757
 20
41.162
 11
91.7155
 21
41.0116
  0
LINE
  8
0
 10
91.7155
 20
41.0116
 11
91.5377
 21
40.8824
  0
LINE
  8
0
 10
91.5377
 20
40.8824
 11
91.3451
 21
40.7766
  0
LINE
  8
0
 10
91.3451
 20
40.7766
 11
91.1408
 21
40.6957
  0
LINE
  8
0
 10
91.1408
 20
40.6957
 11
90.9279
 21
40.641
  0
LINE
  8
0
 10
90.9279
 20
40.641
 11
90.7099
 21
40.6135
  0
LINE
  8
0
 10
90.7099
 20
40.6135
 11
90.4901
 21
40.6135
  0
LINE
  8
0
 10
90.896
 20
24.8864
 11
90.491
 21
24.9376
  0
LINE
  8
0
 10
90.491
 20
24.9376
 11
90.0957
 21
25.0391
  0
LINE
  8
0
 10
90.0957
 20
25.0391
 11
89.7162
 21
25.1893
  0
LINE
  8
0
 10
89.7162
 20
25.1893
 11
89.3586
 21
25.3859
  0
LINE
  8
0
 10
89.3586
 20
25.3859
 11
89.0284
 21
25.6258
  0
LINE
  8
0
 10
89.0284
 20
25.6258
 11
88.7309
 21
25.9052
  0
LINE
  8
0
 10
88.7309
 20
25.9052
 11
88.4707
 21
26.2197
  0
LINE
  8
0
 10
88.4707
 20
26.2197
 11
88.252
 21
26.5643
  0
LINE
  8
0
 10
88.252
 20
26.5643
 11
88.0782
 21
26.9336
  0
LINE
  8
0
 10
88.0782
 20
26.9336
 11
87.9521
 21
27.3218
  0
LINE
  8
0
 10
87.9521
 20
27.3218
 11
87.8756
 21
27.7227
  0
LINE
  8
0
 10
87.8756
 20
27.7227
 11
87.85
 21
28.13
  0
LINE
  8
0
 10
87.85
 20
28.13
 11
87.8756
 21
28.5373
  0
LINE
  8
0
 10
87.8756
 20
28.5373
 11
87.9521
 21
28.9382
  0
LINE
  8
0
 10
87.9521
 20
28.9382
 11
88.0782
 21
29.3264
  0
LINE
  8
0
 10
88.0782
 20
29.3264
 11
88.252
 21
29.6957
  0
LINE
  8
0
 10
88.252
 20
29.6957
 11
88.4707
 21
30.0403
  0
LINE
  8
0
 10
88.4707
 20
30.0403
 11
88.7309
 21
30.3548
  0
LINE
  8
0
 10
88.7309
 20
30.3548
 11
89.0284
 21
30.6342
  0
LINE
  8
0
 10
89.0284
 20
30.6342
 11
89.3586
 21
30.8741
  0
LINE
  8
0
 10
89.3586
 20
30.8741
 11
89.7162
 21
31.0707
  0
LINE
  8
0
 10
89.7162
 20
31.0707
 11
90.0957
 21
31.2209
  0
LINE
  8
0
 10
90.0957
 20
31.2209
 11
90.491
 21
31.3224
  0
LINE
  8
0
 10
90.491
 20
31.3224
 11
90.896
 21
31.3736
  0
LINE
  8
0
 10
90.896
 20
31.3736
 11
91.3041
 21
31.3736
  0
LINE
  8
0
 10
91.3041
 20
31.3736
 11
91.709
 21
31.3224
  0
LINE
  8
0
 10
91.709
 20
31.3224
 11
92.1043
 21
31.2209
  0
LINE
  8
0
 10
92.1043
 20
31.2209
 11
92.4838
 21
31.0707
  0
LINE
  8
0
 10
92.4838
 20
31.0707
 11
92.8415
 21
30.8741
  0
LINE
  8
0
 10
92.8415
 20
30.8741
 11
93.1716
 21
30.6342
  0
LINE
  8
0
 10
93.1716
 20
30.6342
 11
93.4692
 21
30.3548
  0
LINE
  8
0
 10
93.4692
 20
30.3548
 11
93.7293
 21
30.0403
  0
LINE
  8
0
 10
93.7293
 20
30.0403
 11
93.948
 21
29.6957
  0
LINE
  8
0
 10
93.948
 20
29.6957
 11
94.1218
 21
29.3264
  0
LINE
  8
0
 10
94.1218
 20
29.3264
 11
94.2479
 21
28.9382
  0
LINE
  8
0
 10
94.2479
 20
28.9382
 11
94.3244
 21
28.5373
  0
LINE
  8
0
 10
94.3244
 20
28.5373
 11
94.35
 21
28.13
  0
LINE
  8
0
 10
94.35
 20
28.13
 11
94.3244
 21
27.7227
  0
LINE
  8
0
 10
94.3244
 20
27.7227
 11
94.2479
 21
27.3218
  0
LINE
  8
0
 10
94.2479
 20
27.3218
 11
94.1218
 21
26.9336
  0
LINE
  8
0
 10
94.1218
 20
26.9336
 11
93.948
 21
26.5643
  0
LINE
  8
0
 10
93.948
 20
26.5643
 11
93.7293
 21
26.2197
  0
LINE
  8
0
 10
93.7293
 20
26.2197
 11
93.4692
 21
25.9052
  0
LINE
  8
0
 10
93.4692
 20
25.9052
 11
93.1716
 21
25.6258
  0
LINE
  8
0
 10
93.1716
 20
25.6258
 11
92.8415
 21
25.3859
  0
LINE
  8
0
 10
92.8415
 20
25.3859
 11
92.4838
 21
25.1893
  0
LINE
  8
0
 10
92.4838
 20
25.1893
 11
92.1043
 21
25.0391
  0
LINE
  8
0
 10
92.1043
 20
25.0391
 11
91.709
 21
24.9376
  0
LINE
  8
0
 10
91.709
 20
24.9376
 11
91.3041
 21
24.8864
  0
LINE
  8
0
 10
91.3041
 20
24.8864
 11
90.896
 21
24.8864
  0
LINE
  8
0
 10
65.4959
 20
24.8864
 11
65.091
 21
24.9376
  0
LINE
  8
0
 10
65.091
 20
24.9376
 11
64.6957
 21
25.0391
  0
LINE
  8
0
 10
64.6957
 20
25.0391
 11
64.3162
 21
25.1893
  0
LINE
  8
0
 10
64.3162
 20
25.1893
 11
63.9586
 21
25.3859
  0
LINE
  8
0
 10
63.9586
 20
25.3859
 11
63.6284
 21
25.6258
  0
LINE
  8
0
 10
63.6284
 20
25.6258
 11
63.3309
 21
25.9052
  0
LINE
  8
0
 10
63.3309
 20
25.9052
 11
63.0707
 21
26.2197
  0
LINE
  8
0
 10
63.0707
 20
26.2197
 11
62.852
 21
26.5643
  0
LINE
  8
0
 10
62.852
 20
26.5643
 11
62.6782
 21
26.9336
  0
LINE
  8
0
 10
62.6782
 20
26.9336
 11
62.5521
 21
27.3218
  0
LINE
  8
0
 10
62.5521
 20
27.3218
 11
62.4756
 21
27.7227
  0
LINE
  8
0
 10
62.4756
 20
27.7227
 11
62.45
 21
28.13
  0
LINE
  8
0
 10
62.45
 20
28.13
 11
62.4756
 21
28.5373
  0
LINE
  8
0
 10
62.4756
 20
28.5373
 11
62.5521
 21
28.9382
  0
LINE
  8
0
 10
62.5521
 20
28.9382
 11
62.6782
 21
29.3264
  0
LINE
  8
0
 10
62.6782
 20
29.3264
 11
62.852
 21
29.6957
  0
LINE
  8
0
 10
62.852
 20
29.6957
 11
63.0707
 21
30.0403
  0
LINE
  8
0
 10
63.0707
 20
30.0403
 11
63.3309
 21
30.3548
  0
LINE
  8
0
 10
63.3309
 20
30.3548
 11
63.6284
 21
30.6342
  0
LINE
  8
0
 10
63.6284
 20
30.6342
 11
63.9586
 21
30.8741
  0
LINE
  8
0
 10
63.9586
 20
30.8741
 11
64.3162
 21
31.0707
  0
LINE
  8
0
 10
64.3162
 20
31.0707
 11
64.6957
 21
31.2209
  0
LINE
  8
0
 10
64.6957
 20
31.2209
 11
65.091
 21
31.3224
  0
LINE
  8
0
 10
65.091
 20
31.3224
 11
65.4959
 21
31.3736
  0
LINE
  8
0
 10
65.4959
 20
31.3736
 11
65.9041
 21
31.3736
  0
LINE
  8
0
 10
65.9041
 20
31.3736
 11
66.309
 21
31.3224
  0
LINE
  8
0
 10
66.309
 20
31.3224
 11
66.7043
 21
31.2209
  0
LINE
  8
0
 10
66.7043
 20
31.2209
 11
67.0838
 21
31.0707
  0
LINE
  8
0
 10
67.0838
 20
31.0707
 11
67.4415
 21
30.8741
  0
LINE
  8
0
 10
67.4415
 20
30.8741
 11
67.7717
 21
30.6342
  0
LINE
  8
0
 10
67.7717
 20
30.6342
 11
68.0692
 21
30.3548
  0
LINE
  8
0
 10
68.0692
 20
30.3548
 11
68.3293
 21
30.0403
  0
LINE
  8
0
 10
68.3293
 20
30.0403
 11
68.548
 21
29.6957
  0
LINE
  8
0
 10
68.548
 20
29.6957
 11
68.7218
 21
29.3264
  0
LINE
  8
0
 10
68.7218
 20
29.3264
 11
68.8479
 21
28.9382
  0
LINE
  8
0
 10
68.8479
 20
28.9382
 11
68.9244
 21
28.5373
  0
LINE
  8
0
 10
68.9244
 20
28.5373
 11
68.95
 21
28.13
  0
LINE
  8
0
 10
68.95
 20
28.13
 11
68.9244
 21
27.7227
  0
LINE
  8
0
 10
68.9244
 20
27.7227
 11
68.8479
 21
27.3218
  0
LINE
  8
0
 10
68.8479
 20
27.3218
 11
68.7218
 21
26.9336
  0
LINE
  8
0
 10
68.7218
 20
26.9336
 11
68.548
 21
26.5643
  0
LINE
  8
0
 10
68.548
 20
26.5643
 11
68.3293
 21
26.2197
  0
LINE
  8
0
 10
68.3293
 20
26.2197
 11
68.0692
 21
25.9052
  0
LINE
  8
0
 10
68.0692
 20
25.9052
 11
67.7717
 21
25.6258
  0
LINE
  8
0
 10
67.7717
 20
25.6258
 11
67.4415
 21
25.3859
  0
LINE
  8
0
 10
67.4415
 20
25.3859
 11
67.0838
 21
25.1893
  0
LINE
  8
0
 10
67.0838
 20
25.1893
 11
66.7043
 21
25.0391
  0
LINE
  8
0
 10
66.7043
 20
25.0391
 11
66.309
 21
24.9376
  0
LINE
  8
0
 10
66.309
 20
24.9376
 11
65.9041
 21
24.8864
  0
LINE
  8
0
 10
65.9041
 20
24.8864
 11
65.4959
 21
24.8864
  0
LINE
  8
0
 10
40.0959
 20
24.8864
 11
39.691
 21
24.9376
  0
LINE
  8
0
 10
39.691
 20
24.9376
 11
39.2957
 21
25.0391
  0
LINE
  8
0
 10
39.2957
 20
25.0391
 11
38.9162
 21
25.1893
  0
LINE
  8
0
 10
38.9162
 20
25.1893
 11
38.5586
 21
25.3859
  0
LINE
  8
0
 10
38.5586
 20
25.3859
 11
38.2284
 21
25.6258
  0
LINE
  8
0
 10
38.2284
 20
25.6258
 11
37.9309
 21
25.9052
  0
LINE
  8
0
 10
37.9309
 20
25.9052
 11
37.6707
 21
26.2197
  0
LINE
  8
0
 10
37.6707
 20
26.2197
 11
37.452
 21
26.5643
  0
LINE
  8
0
 10
37.452
 20
26.5643
 11
37.2782
 21
26.9336
  0
LINE
  8
0
 10
37.2782
 20
26.9336
 11
37.1521
 21
27.3218
  0
LINE
  8
0
 10
37.1521
 20
27.3218
 11
37.0756
 21
27.7227
  0
LINE
  8
0
 10
37.0756
 20
27.7227
 11
37.05
 21
28.13
  0
LINE
  8
0
 10
37.05
 20
28.13
 11
37.0756
 21
28.5373
  0
LINE
  8
0
 10
37.0756
 20
28.5373
 11
37.1521
 21
28.9382
  0
LINE
  8
0
 10
37.1521
 20
28.9382
 11
37.2782
 21
29.3264
  0
LINE
  8
0
 10
37.2782
 20
29.3264
 11
37.452
 21
29.6957
  0
LINE
  8
0
 10
37.452
 20
29.6957
 11
37.6707
 21
30.0403
  0
LINE
  8
0
 10
37.6707
 20
30.0403
 11
37.9309
 21
30.3548
  0
LINE
  8
0
 10
37.9309
 20
30.3548
 11
38.2284
 21
30.6342
  0
LINE
  8
0
 10
38.2284
 20
30.6342
 11
38.5586
 21
30.8741
  0
LINE
  8
0
 10
38.5586
 20
30.8741
 11
38.9162
 21
31.0707
  0
LINE
  8
0
 10
38.9162
 20
31.0707
 11
39.2957
 21
31.2209
  0
LINE
  8
0
 10
39.2957
 20
31.2209
 11
39.691
 21
31.3224
  0
LINE
  8
0
 10
39.691
 20
31.3224
 11
40.0959
 21
31.3736
  0
LINE
  8
0
 10
40.0959
 20
31.3736
 11
40.5041
 21
31.3736
  0
LINE
  8
0
 10
40.5041
 20
31.3736
 11
40.909
 21
31.3224
  0
LINE
  8
0
 10
40.909
 20
31.3224
 11
41.3043
 21
31.2209
  0
LINE
  8
0
 10
41.3043
 20
31.2209
 11
41.6838
 21
31.0707
  0
LINE
  8
0
 10
41.6838
 20
31.0707
 11
42.0415
 21
30.8741
  0
LINE
  8
0
 10
42.0415
 20
30.8741
 11
42.3716
 21
30.6342
  0
LINE
  8
0
 10
42.3716
 20
30.6342
 11
42.6692
 21
30.3548
  0
LINE
  8
0
 10
42.6692
 20
30.3548
 11
42.9293
 21
30.0403
  0
LINE
  8
0
 10
42.9293
 20
30.0403
 11
43.148
 21
29.6957
  0
LINE
  8
0
 10
43.148
 20
29.6957
 11
43.3218
 21
29.3264
  0
LINE
  8
0
 10
43.3218
 20
29.3264
 11
43.4479
 21
28.9382
  0
LINE
  8
0
 10
43.4479
 20
28.9382
 11
43.5244
 21
28.5373
  0
LINE
  8
0
 10
43.5244
 20
28.5373
 11
43.55
 21
28.13
  0
LINE
  8
0
 10
43.55
 20
28.13
 11
43.5244
 21
27.7227
  0
LINE
  8
0
 10
43.5244
 20
27.7227
 11
43.4479
 21
27.3218
  0
LINE
  8
0
 10
43.4479
 20
27.3218
 11
43.3218
 21
26.9336
  0
LINE
  8
0
 10
43.3218
 20
26.9336
 11
43.148
 21
26.5643
  0
LINE
  8
0
 10
43.148
 20
26.5643
 11
42.9293
 21
26.2197
  0
LINE
  8
0
 10
42.9293
 20
26.2197
 11
42.6692
 21
25.9052
  0
LINE
  8
0
 10
42.6692
 20
25.9052
 11
42.3716
 21
25.6258
  0
LINE
  8
0
 10
42.3716
 20
25.6258
 11
42.0415
 21
25.3859
  0
LINE
  8
0
 10
42.0415
 20
25.3859
 11
41.6838
 21
25.1893
  0
LINE
  8
0
 10
41.6838
 20
25.1893
 11
41.3043
 21
25.0391
  0
LINE
  8
0
 10
41.3043
 20
25.0391
 11
40.909
 21
24.9376
  0
LINE
  8
0
 10
40.909
 20
24.9376
 11
40.5041
 21
24.8864
  0
LINE
  8
0
 10
40.5041
 20
24.8864
 11
40.0959
 21
24.8864
  0
LINE
  8
0
 10
14.696
 20
24.8864
 11
14.291
 21
24.9376
  0
LINE
  8
0
 10
14.291
 20
24.9376
 11
13.8957
 21
25.0391
  0
LINE
  8
0
 10
13.8957
 20
25.0391
 11
13.5162
 21
25.1893
  0
LINE
  8
0
 10
13.5162
 20
25.1893
 11
13.1586
 21
25.3859
  0
LINE
  8
0
 10
13.1586
 20
25.3859
 11
12.8284
 21
25.6258
  0
LINE
  8
0
 10
12.8284
 20
25.6258
 11
12.5309
 21
25.9052
  0
LINE
  8
0
 10
12.5309
 20
25.9052
 11
12.2707
 21
26.2197
  0
LINE
  8
0
 10
12.2707
 20
26.2197
 11
12.052
 21
26.5643
  0
LINE
  8
0
 10
12.052
 20
26.5643
 11
11.8783
 21
26.9336
  0
LINE
  8
0
 10
11.8783
 20
26.9336
 11
11.7521
 21
27.3218
  0
LINE
  8
0
 10
11.7521
 20
27.3218
 11
11.6756
 21
27.7227
  0
LINE
  8
0
 10
11.6756
 20
27.7227
 11
11.65
 21
28.13
  0
LINE
  8
0
 10
11.65
 20
28.13
 11
11.6756
 21
28.5373
  0
LINE
  8
0
 10
11.6756
 20
28.5373
 11
11.7521
 21
28.9382
  0
LINE
  8
0
 10
11.7521
 20
28.9382
 11
11.8783
 21
29.3264
  0
LINE
  8
0
 10
11.8783
 20
29.3264
 11
12.052
 21
29.6957
  0
LINE
  8
0
 10
12.052
 20
29.6957
 11
12.2707
 21
30.0403
  0
LINE
  8
0
 10
12.2707
 20
30.0403
 11
12.5309
 21
30.3548
  0
LINE
  8
0
 10
12.5309
 20
30.3548
 11
12.8284
 21
30.6342
  0
LINE
  8
0
 10
12.8284
 20
30.6342
 11
13.1586
 21
30.8741
  0
LINE
  8
0
 10
13.1586
 20
30.8741
 11
13.5162
 21
31.0707
  0
LINE
  8
0
 10
13.5162
 20
31.0707
 11
13.8957
 21
31.2209
  0
LINE
  8
0
 10
13.8957
 20
31.2209
 11
14.291
 21
31.3224
  0
LINE
  8
0
 10
14.291
 20
31.3224
 11
14.696
 21
31.3736
  0
LINE
  8
0
 10
14.696
 20
31.3736
 11
15.1041
 21
31.3736
  0
LINE
  8
0
 10
15.1041
 20
31.3736
 11
15.509
 21
31.3224
  0
LINE
  8
0
 10
15.509
 20
31.3224
 11
15.9043
 21
31.2209
  0
LINE
  8
0
 10
15.9043
 20
31.2209
 11
16.2838
 21
31.0707
  0
LINE
  8
0
 10
16.2838
 20
31.0707
 11
16.6414
 21
30.8741
  0
LINE
  8
0
 10
16.6414
 20
30.8741
 11
16.9716
 21
30.6342
  0
LINE
  8
0
 10
16.9716
 20
30.6342
 11
17.2692
 21
30.3548
  0
LINE
  8
0
 10
17.2692
 20
30.3548
 11
17.5293
 21
30.0403
  0
LINE
  8
0
 10
17.5293
 20
30.0403
 11
17.748
 21
29.6957
  0
LINE
  8
0
 10
17.748
 20
29.6957
 11
17.9218
 21
29.3264
  0
LINE
  8
0
 10
17.9218
 20
29.3264
 11
18.0479
 21
28.9382
  0
LINE
  8
0
 10
18.0479
 20
28.9382
 11
18.1244
 21
28.5373
  0
LINE
  8
0
 10
18.1244
 20
28.5373
 11
18.15
 21
28.13
  0
LINE
  8
0
 10
18.15
 20
28.13
 11
18.1244
 21
27.7227
  0
LINE
  8
0
 10
18.1244
 20
27.7227
 11
18.0479
 21
27.3218
  0
LINE
  8
0
 10
18.0479
 20
27.3218
 11
17.9218
 21
26.9336
  0
LINE
  8
0
 10
17.9218
 20
26.9336
 11
17.748
 21
26.5643
  0
LINE
  8
0
 10
17.748
 20
26.5643
 11
17.5293
 21
26.2197
  0
LINE
  8
0
 10
17.5293
 20
26.2197
 11
17.2692
 21
25.9052
  0
LINE
  8
0
 10
17.2692
 20
25.9052
 11
16.9716
 21
25.6258
  0
LINE
  8
0
 10
16.9716
 20
25.6258
 11
16.6414
 21
25.3859
  0
LINE
  8
0
 10
16.6414
 20
25.3859
 11
16.2838
 21
25.1893
  0
LINE
  8
0
 10
16.2838
 20
25.1893
 11
15.9043
 21
25.0391
  0
LINE
  8
0
 10
15.9043
 20
25.0391
 11
15.509
 21
24.9376
  0
LINE
  8
0
 10
15.509
 20
24.9376
 11
15.1041
 21
24.8864
  0
LINE
  8
0
 10
15.1041
 20
24.8864
 11
14.696
 21
24.8864
  0
LINE
  8
0
 10
-27.37
 20
3.00099
 11
-21.2967
 21
3.00099
  0
LINE
  8
0
 10
-21.2967
 20
3.00099
 11
-21.2967
 21
0
  0
LINE
  8
0
 10
-21.2967
 20
0
 11
-14.7033
 21
0
  0
LINE
  8
0
 10
-14.7033
 20
0
 11
-14.7033
 21
3.00099
  0
LINE
  8
0
 10
-14.7033
 20
3.00099
 11
-8.62999
 21
3.00099
  0
LINE
  8
0
 10
-8.62999
 20
3.00099
 11
-8.62999
 21
0
  0
LINE
  8
0
 10
-8.62999
 20
0
 11
-1
 21
0
  0
LINE
  8
0
 10
-1
 20
0
 11
-1
 21
7.62999
  0
LINE
  8
0
 10
-1
 20
7.62999
 11
-4.00099
 21
7.62999
  0
LINE
  8
0
 10
-4.00099
 20
7.62999
 11
-4.00099
 21
14.37
  0
LINE
  8
0
 10
-4.00099
 20
14.37
 11
-1
 21
14.37
  0
LINE
  8
0
 10
-1
 20
14.37
 11
-1
 21
21.63
  0
LINE
  8
0
 10
-1
 20
21.63
 11
-4.00099
 21
21.63
  0
LINE
  8
0
 10
-4.00099
 20
21.63
 11
-4.00099
 21
28.37
  0
LINE
  8
0
 10
-4.00099
 20
28.37
 11
-1
 21
28.37
  0
LINE
  8
0
 10
-1
 20
28.37
 11
-1
 21
35.63
  0
LINE
  8
0
 10
-1
 20
35.63
 11
-4.00099
 21
35.63
  0
LINE
  8
0
 10
-4.00099
 20
35.63
 11
-4.00099
 21
42.37
  0
LINE
  8
0
 10
-4.00099
 20
42.37
 11
-1
 21
42.37
  0
LINE
  8
0
 10
-1
 20
42.37
 11
-1
 21
50
  0
LINE
  8
0
 10
-1
 20
50
 11
-8.62999
 21
50
  0
LINE
  8
0
 10
-8.62999
 20
50
 11
-8.62999
 21
46.999
  0
LINE
  8
0
 10
-8.62999
 20
46.999
 11
-13.7033
 21
46.999
  0
LINE
  8
0
 10
-13.7033
 20
46.999
 11
-13.7033
 21
50
  0
LINE
  8
0
 10
-13.7033
 20
50
 11
-19.2967
 21
50
  0
LINE
  8
0
 10
-19.2967
 20
50
 11
-19.2967
 21
46.999
  0
LINE
  8
0
 10
-19.2967
 20
46.999
 11
-24.37
 21
46.999
  0
LINE
  8
0
 10
-24.37
 20
46.999
 11
-24.37
 21
50
  0
LINE
  8
0
 10
-24.37
 20
50
 11
-32
 21
50
  0
LINE
  8
0
 10
-32
 20
50
 11
-32.1866
 21
49.9622
  0
LINE
  8
0
 10
-32.1866
 20
49.9622
 11
-32.3729
 21
49.9164
  0
LINE
  8
0
 10
-32.3729
 20
49.9164
 11
-32.5586
 21
49.8626
  0
LINE
  8
0
 10
-32.5586
 20
49.8626
 11
-32.7433
 21
49.8009
  0
LINE
  8
0
 10
-32.7433
 20
49.8009
 11
-32.9269
 21
49.7315
  0
LINE
  8
0
 10
-32.9269
 20
49.7315
 11
-33.1089
 21
49.6544
  0
LINE
  8
0
 10
-33.1089
 20
49.6544
 11
-33.2892
 21
49.5697
  0
LINE
  8
0
 10
-33.2892
 20
49.5697
 11
-33.4675
 21
49.4774
  0
LINE
  8
0
 10
-33.4675
 20
49.4774
 11
-33.6434
 21
49.3777
  0
LINE
  8
0
 10
-33.6434
 20
49.3777
 11
-33.8168
 21
49.2706
  0
LINE
  8
0
 10
-33.8168
 20
49.2706
 11
-33.9872
 21
49.1563
  0
LINE
  8
0
 10
-33.9872
 20
49.1563
 11
-34.1544
 21
49.0347
  0
LINE
  8
0
 10
-34.1544
 20
49.0347
 11
-34.3182
 21
48.9061
  0
LINE
  8
0
 10
-34.3182
 20
48.9061
 11
-34.4782
 21
48.7703
  0
LINE
  8
0
 10
-34.4782
 20
48.7703
 11
-34.6342
 21
48.6277
  0
LINE
  8
0
 10
-34.6342
 20
48.6277
 11
-34.7858
 21
48.4781
  0
LINE
  8
0
 10
-34.7858
 20
48.4781
 11
-34.9329
 21
48.3218
  0
LINE
  8
0
 10
-34.9329
 20
48.3218
 11
-35.075
 21
48.1588
  0
LINE
  8
0
 10
-35.075
 20
48.1588
 11
-35.212
 21
47.9891
  0
LINE
  8
0
 10
-35.212
 20
47.9891
 11
-35.3436
 21
47.8129
  0
LINE
  8
0
 10
-35.3436
 20
47.8129
 11
-35.6525
 21
47.9047
  0
LINE
  8
0
 10
-35.6525
 20
47.9047
 11
-35.9736
 21
47.9888
  0
LINE
  8
0
 10
-35.9736
 20
47.9888
 11
-36.3064
 21
48.0652
  0
LINE
  8
0
 10
-36.3064
 20
48.0652
 11
-36.6503
 21
48.1338
  0
LINE
  8
0
 10
-36.6503
 20
48.1338
 11
-37.005
 21
48.1944
  0
LINE
  8
0
 10
-37.005
 20
48.1944
 11
-37.37
 21
48.2469
  0
LINE
  8
0
 10
-37.37
 20
48.2469
 11
-37.7449
 21
48.2911
  0
LINE
  8
0
 10
-37.7449
 20
48.2911
 11
-38.1291
 21
48.3271
  0
LINE
  8
0
 10
-38.1291
 20
48.3271
 11
-38.5223
 21
48.3546
  0
LINE
  8
0
 10
-38.5223
 20
48.3546
 11
-38.924
 21
48.3735
  0
LINE
  8
0
 10
-38.924
 20
48.3735
 11
-39.3337
 21
48.3837
  0
LINE
  8
0
 10
-39.3337
 20
48.3837
 11
-39.7509
 21
48.3852
  0
LINE
  8
0
 10
-39.7509
 20
48.3852
 11
-40.1753
 21
48.3777
  0
LINE
  8
0
 10
-40.1753
 20
48.3777
 11
-40.6064
 21
48.3611
  0
LINE
  8
0
 10
-40.6064
 20
48.3611
 11
-41.0436
 21
48.3354
  0
LINE
  8
0
 10
-41.0436
 20
48.3354
 11
-41.4866
 21
48.3005
  0
LINE
  8
0
 10
-41.4866
 20
48.3005
 11
-41.9349
 21
48.2561
  0
LINE
  8
0
 10
-41.9349
 20
48.2561
 11
-42.388
 21
48.2022
  0
LINE
  8
0
 10
-42.388
 20
48.2022
 11
-42.8455
 21
48.1387
  0
LINE
  8
0
 10
-42.8455
 20
48.1387
 11
-43.307
 21
48.0654
  0
LINE
  8
0
 10
-43.307
 20
48.0654
 11
-44.1499
 21
47.9079
  0
LINE
  8
0
 10
-44.1499
 20
47.9079
 11
-44.9699
 21
47.7242
  0
LINE
  8
0
 10
-44.9699
 20
47.7242
 11
-45.7647
 21
47.5159
  0
LINE
  8
0
 10
-45.7647
 20
47.5159
 11
-46.5316
 21
47.2846
  0
LINE
  8
0
 10
-46.5316
 20
47.2846
 11
-47.2682
 21
47.0318
  0
LINE
  8
0
 10
-47.2682
 20
47.0318
 11
-47.9719
 21
46.7594
  0
LINE
  8
0
 10
-47.9719
 20
46.7594
 11
-48.6403
 21
46.4687
  0
LINE
  8
0
 10
-48.6403
 20
46.4687
 11
-49.271
 21
46.1615
  0
LINE
  8
0
 10
-49.271
 20
46.1615
 11
-49.8613
 21
45.8394
  0
LINE
  8
0
 10
-49.8613
 20
45.8394
 11
-50.4088
 21
45.504
  0
LINE
  8
0
 10
-50.4088
 20
45.504
 11
-50.9111
 21
45.1569
  0
LINE
  8
0
 10
-50.9111
 20
45.1569
 11
-51.3656
 21
44.7998
  0
LINE
  8
0
 10
-51.3656
 20
44.7998
 11
-51.7698
 21
44.4341
  0
LINE
  8
0
 10
-51.7698
 20
44.4341
 11
-52.1212
 21
44.0617
  0
LINE
  8
0
 10
-52.1212
 20
44.0617
 11
-52.4175
 21
43.684
  0
LINE
  8
0
 10
-52.4175
 20
43.684
 11
-52.6559
 21
43.3026
  0
LINE
  8
0
 10
-52.6559
 20
43.3026
 11
-52.8342
 21
42.9193
  0
LINE
  8
0
 10
-52.8342
 20
42.9193
 11
-52.9497
 21
42.5357
  0
LINE
  8
0
 10
-52.9497
 20
42.5357
 11
-53
 21
42.1532
  0
LINE
  8
0
 10
-53
 20
42.1532
 11
-52.9826
 21
41.7736
  0
LINE
  8
0
 10
-52.9826
 20
41.7736
 11
-52.8972
 21
41.4053
  0
LINE
  8
0
 10
-52.8972
 20
41.4053
 11
-52.7465
 21
41.0565
  0
LINE
  8
0
 10
-52.7465
 20
41.0565
 11
-52.5331
 21
40.728
  0
LINE
  8
0
 10
-52.5331
 20
40.728
 11
-52.2599
 21
40.4204
  0
LINE
  8
0
 10
-52.2599
 20
40.4204
 11
-51.9298
 21
40.1346
  0
LINE
  8
0
 10
-51.9298
 20
40.1346
 11
-51.5455
 21
39.8712
  0
LINE
  8
0
 10
-51.5455
 20
39.8712
 11
-51.1098
 21
39.631
  0
LINE
  8
0
 10
-51.1098
 20
39.631
 11
-50.6256
 21
39.4147
  0
LINE
  8
0
 10
-50.6256
 20
39.4147
 11
-50.0957
 21
39.223
  0
LINE
  8
0
 10
-50.0957
 20
39.223
 11
-49.5228
 21
39.0567
  0
LINE
  8
0
 10
-49.5228
 20
39.0567
 11
-48.9099
 21
38.9164
  0
LINE
  8
0
 10
-48.9099
 20
38.9164
 11
-48.2596
 21
38.8029
  0
LINE
  8
0
 10
-48.2596
 20
38.8029
 11
-47.5749
 21
38.7169
  0
LINE
  8
0
 10
-47.5749
 20
38.7169
 11
-46.8585
 21
38.6591
  0
LINE
  8
0
 10
-46.8585
 20
38.6591
 11
-46.1133
 21
38.6303
  0
LINE
  8
0
 10
-46.1133
 20
38.6303
 11
-45.342
 21
38.6312
  0
LINE
  8
0
 10
-45.342
 20
38.6312
 11
-44.5475
 21
38.6625
  0
LINE
  8
0
 10
-44.5475
 20
38.6625
 11
-43.7326
 21
38.7249
  0
LINE
  8
0
 10
-43.7326
 20
38.7249
 11
-42.9
 21
38.8192
  0
LINE
  8
0
 10
-42.9
 20
38.8192
 11
-42.0527
 21
38.9461
  0
LINE
  8
0
 10
-42.0527
 20
38.9461
 11
-41.8325
 21
38.9841
  0
LINE
  8
0
 10
-41.8325
 20
38.9841
 11
-41.6136
 21
39.024
  0
LINE
  8
0
 10
-41.6136
 20
39.024
 11
-41.3962
 21
39.0658
  0
LINE
  8
0
 10
-41.3962
 20
39.0658
 11
-41.1804
 21
39.1093
  0
LINE
  8
0
 10
-41.1804
 20
39.1093
 11
-40.9661
 21
39.1547
  0
LINE
  8
0
 10
-40.9661
 20
39.1547
 11
-40.7533
 21
39.2019
  0
LINE
  8
0
 10
-40.7533
 20
39.2019
 11
-40.5422
 21
39.2507
  0
LINE
  8
0
 10
-40.5422
 20
39.2507
 11
-40.3328
 21
39.3013
  0
LINE
  8
0
 10
-40.3328
 20
39.3013
 11
-40.1251
 21
39.3535
  0
LINE
  8
0
 10
-40.1251
 20
39.3535
 11
-39.9192
 21
39.4073
  0
LINE
  8
0
 10
-39.9192
 20
39.4073
 11
-39.7151
 21
39.4627
  0
LINE
  8
0
 10
-39.7151
 20
39.4627
 11
-39.5128
 21
39.5196
  0
LINE
  8
0
 10
-39.5128
 20
39.5196
 11
-39.3124
 21
39.5781
  0
LINE
  8
0
 10
-39.3124
 20
39.5781
 11
-39.1139
 21
39.638
  0
LINE
  8
0
 10
-39.1139
 20
39.638
 11
-38.9174
 21
39.6995
  0
LINE
  8
0
 10
-38.9174
 20
39.6995
 11
-38.723
 21
39.7623
  0
LINE
  8
0
 10
-38.723
 20
39.7623
 11
-38.5305
 21
39.8265
  0
LINE
  8
0
 10
-38.5305
 20
39.8265
 11
-38.3402
 21
39.8921
  0
LINE
  8
0
 10
-38.3402
 20
39.8921
 11
-38.152
 21
39.959
  0
LINE
  8
0
 10
-38.152
 20
39.959
 11
-37.966
 21
40.0272
  0
LINE
  8
0
 10
-37.966
 20
40.0272
 11
-38.0061
 21
39.7518
  0
LINE
  8
0
 10
-38.0061
 20
39.7518
 11
-38.0445
 21
39.4738
  0
LINE
  8
0
 10
-38.0445
 20
39.4738
 11
-38.0813
 21
39.1932
  0
LINE
  8
0
 10
-38.0813
 20
39.1932
 11
-38.1164
 21
38.9101
  0
LINE
  8
0
 10
-38.1164
 20
38.9101
 11
-38.1499
 21
38.6246
  0
LINE
  8
0
 10
-38.1499
 20
38.6246
 11
-38.1817
 21
38.3365
  0
LINE
  8
0
 10
-38.1817
 20
38.3365
 11
-38.212
 21
38.0461
  0
LINE
  8
0
 10
-38.212
 20
38.0461
 11
-38.2406
 21
37.7533
  0
LINE
  8
0
 10
-38.2406
 20
37.7533
 11
-38.2675
 21
37.4582
  0
LINE
  8
0
 10
-38.2675
 20
37.4582
 11
-38.2929
 21
37.1608
  0
LINE
  8
0
 10
-38.2929
 20
37.1608
 11
-38.3166
 21
36.8612
  0
LINE
  8
0
 10
-38.3166
 20
36.8612
 11
-38.3387
 21
36.5593
  0
LINE
  8
0
 10
-38.3387
 20
36.5593
 11
-38.3591
 21
36.2552
  0
LINE
  8
0
 10
-38.3591
 20
36.2552
 11
-38.378
 21
35.9491
  0
LINE
  8
0
 10
-38.378
 20
35.9491
 11
-38.3953
 21
35.6408
  0
LINE
  8
0
 10
-38.3953
 20
35.6408
 11
-38.4109
 21
35.3305
  0
LINE
  8
0
 10
-38.4109
 20
35.3305
 11
-38.425
 21
35.0181
  0
LINE
  8
0
 10
-38.425
 20
35.0181
 11
-38.4374
 21
34.7038
  0
LINE
  8
0
 10
-38.4374
 20
34.7038
 11
-38.4483
 21
34.3875
  0
LINE
  8
0
 10
-38.4483
 20
34.3875
 11
-38.4575
 21
34.0694
  0
LINE
  8
0
 10
-38.4575
 20
34.0694
 11
-39.1785
 21
33.8
  0
LINE
  8
0
 10
-39.1785
 20
33.8
 11
-39.8758
 21
33.5172
  0
LINE
  8
0
 10
-39.8758
 20
33.5172
 11
-40.5474
 21
33.2223
  0
LINE
  8
0
 10
-40.5474
 20
33.2223
 11
-41.1916
 21
32.9166
  0
LINE
  8
0
 10
-41.1916
 20
32.9166
 11
-41.8065
 21
32.6015
  0
LINE
  8
0
 10
-41.8065
 20
32.6015
 11
-42.3903
 21
32.2785
  0
LINE
  8
0
 10
-42.3903
 20
32.2785
 11
-42.9411
 21
31.9488
  0
LINE
  8
0
 10
-42.9411
 20
31.9488
 11
-43.4572
 21
31.6138
  0
LINE
  8
0
 10
-43.4572
 20
31.6138
 11
-43.9366
 21
31.2749
  0
LINE
  8
0
 10
-43.9366
 20
31.2749
 11
-44.3777
 21
30.9335
  0
LINE
  8
0
 10
-44.3777
 20
30.9335
 11
-44.7784
 21
30.591
  0
LINE
  8
0
 10
-44.7784
 20
30.591
 11
-45.137
 21
30.2486
  0
LINE
  8
0
 10
-45.137
 20
30.2486
 11
-45.4517
 21
29.9079
  0
LINE
  8
0
 10
-45.4517
 20
29.9079
 11
-45.7206
 21
29.5701
  0
LINE
  8
0
 10
-45.7206
 20
29.5701
 11
-45.9419
 21
29.2366
  0
LINE
  8
0
 10
-45.9419
 20
29.2366
 11
-46.1138
 21
28.9088
  0
LINE
  8
0
 10
-46.1138
 20
28.9088
 11
-46.2345
 21
28.5881
  0
LINE
  8
0
 10
-46.2345
 20
28.5881
 11
-46.302
 21
28.2758
  0
LINE
  8
0
 10
-46.302
 20
28.2758
 11
-46.3146
 21
27.9733
  0
LINE
  8
0
 10
-46.3146
 20
27.9733
 11
-46.2705
 21
27.6819
  0
LINE
  8
0
 10
-46.2705
 20
27.6819
 11
-46.1841
 21
27.4383
  0
LINE
  8
0
 10
-46.1841
 20
27.4383
 11
-46.0552
 21
27.2124
  0
LINE
  8
0
 10
-46.0552
 20
27.2124
 11
-45.8853
 21
27.0044
  0
LINE
  8
0
 10
-45.8853
 20
27.0044
 11
-45.676
 21
26.8143
  0
LINE
  8
0
 10
-45.676
 20
26.8143
 11
-45.4288
 21
26.6423
  0
LINE
  8
0
 10
-45.4288
 20
26.6423
 11
-45.1454
 21
26.4885
  0
LINE
  8
0
 10
-45.1454
 20
26.4885
 11
-44.8271
 21
26.3529
  0
LINE
  8
0
 10
-44.8271
 20
26.3529
 11
-44.4757
 21
26.2356
  0
LINE
  8
0
 10
-44.4757
 20
26.2356
 11
-44.0926
 21
26.1368
  0
LINE
  8
0
 10
-44.0926
 20
26.1368
 11
-43.6793
 21
26.0565
  0
LINE
  8
0
 10
-43.6793
 20
26.0565
 11
-43.2375
 21
25.9948
  0
LINE
  8
0
 10
-43.2375
 20
25.9948
 11
-42.7687
 21
25.9518
  0
LINE
  8
0
 10
-42.7687
 20
25.9518
 11
-42.2744
 21
25.9276
  0
LINE
  8
0
 10
-42.2744
 20
25.9276
 11
-41.7563
 21
25.9222
  0
LINE
  8
0
 10
-41.7563
 20
25.9222
 11
-41.2157
 21
25.9359
  0
LINE
  8
0
 10
-41.2157
 20
25.9359
 11
-40.6543
 21
25.9686
  0
LINE
  8
0
 10
-40.6543
 20
25.9686
 11
-40.0737
 21
26.0205
  0
LINE
  8
0
 10
-40.0737
 20
26.0205
 11
-39.4754
 21
26.0917
  0
LINE
  8
0
 10
-39.4754
 20
26.0917
 11
-38.8609
 21
26.1822
  0
LINE
  8
0
 10
-38.8609
 20
26.1822
 11
-38.2318
 21
26.2922
  0
LINE
  8
0
 10
-38.2318
 20
26.2922
 11
-38.2056
 21
25.9588
  0
LINE
  8
0
 10
-38.2056
 20
25.9588
 11
-38.1781
 21
25.6248
  0
LINE
  8
0
 10
-38.1781
 20
25.6248
 11
-38.1493
 21
25.2902
  0
LINE
  8
0
 10
-38.1493
 20
25.2902
 11
-38.1191
 21
24.955
  0
LINE
  8
0
 10
-38.1191
 20
24.955
 11
-38.0876
 21
24.6192
  0
LINE
  8
0
 10
-38.0876
 20
24.6192
 11
-38.0548
 21
24.283
  0
LINE
  8
0
 10
-38.0548
 20
24.283
 11
-38.0207
 21
23.9462
  0
LINE
  8
0
 10
-38.0207
 20
23.9462
 11
-37.9852
 21
23.6091
  0
LINE
  8
0
 10
-37.9852
 20
23.6091
 11
-37.9485
 21
23.2715
  0
LINE
  8
0
 10
-37.9485
 20
23.2715
 11
-37.9104
 21
22.9335
  0
LINE
  8
0
 10
-37.9104
 20
22.9335
 11
-37.8712
 21
22.5952
  0
LINE
  8
0
 10
-37.8712
 20
22.5952
 11
-37.8306
 21
22.2567
  0
LINE
  8
0
 10
-37.8306
 20
22.2567
 11
-37.7887
 21
21.9178
  0
LINE
  8
0
 10
-37.7887
 20
21.9178
 11
-37.7457
 21
21.5787
  0
LINE
  8
0
 10
-37.7457
 20
21.5787
 11
-37.7013
 21
21.2394
  0
LINE
  8
0
 10
-37.7013
 20
21.2394
 11
-37.6557
 21
20.9
  0
LINE
  8
0
 10
-37.6557
 20
20.9
 11
-37.6089
 21
20.5604
  0
LINE
  8
0
 10
-37.6089
 20
20.5604
 11
-37.5609
 21
20.2208
  0
LINE
  8
0
 10
-37.5609
 20
20.2208
 11
-37.5116
 21
19.881
  0
LINE
  8
0
 10
-37.5116
 20
19.881
 11
-37.4611
 21
19.5413
  0
LINE
  8
0
 10
-37.4611
 20
19.5413
 11
-37.7829
 21
19.2623
  0
LINE
  8
0
 10
-37.7829
 20
19.2623
 11
-38.0886
 21
18.9857
  0
LINE
  8
0
 10
-38.0886
 20
18.9857
 11
-38.3779
 21
18.712
  0
LINE
  8
0
 10
-38.3779
 20
18.712
 11
-38.6504
 21
18.4417
  0
LINE
  8
0
 10
-38.6504
 20
18.4417
 11
-38.9056
 21
18.1749
  0
LINE
  8
0
 10
-38.9056
 20
18.1749
 11
-39.143
 21
17.9122
  0
LINE
  8
0
 10
-39.143
 20
17.9122
 11
-39.3623
 21
17.654
  0
LINE
  8
0
 10
-39.3623
 20
17.654
 11
-39.5631
 21
17.4006
  0
LINE
  8
0
 10
-39.5631
 20
17.4006
 11
-39.7449
 21
17.1524
  0
LINE
  8
0
 10
-39.7449
 20
17.1524
 11
-39.9072
 21
16.9098
  0
LINE
  8
0
 10
-39.9072
 20
16.9098
 11
-40.0498
 21
16.6733
  0
LINE
  8
0
 10
-40.0498
 20
16.6733
 11
-40.1721
 21
16.4431
  0
LINE
  8
0
 10
-40.1721
 20
16.4431
 11
-40.2737
 21
16.2196
  0
LINE
  8
0
 10
-40.2737
 20
16.2196
 11
-40.3542
 21
16.0034
  0
LINE
  8
0
 10
-40.3542
 20
16.0034
 11
-40.4131
 21
15.7946
  0
LINE
  8
0
 10
-40.4131
 20
15.7946
 11
-40.4502
 21
15.5939
  0
LINE
  8
0
 10
-40.4502
 20
15.5939
 11
-40.4648
 21
15.4014
  0
LINE
  8
0
 10
-40.4648
 20
15.4014
 11
-40.4567
 21
15.2177
  0
LINE
  8
0
 10
-40.4567
 20
15.2177
 11
-40.4253
 21
15.0431
  0
LINE
  8
0
 10
-40.4253
 20
15.0431
 11
-40.3703
 21
14.878
  0
LINE
  8
0
 10
-40.3703
 20
14.878
 11
-40.3057
 21
14.7475
  0
LINE
  8
0
 10
-40.3057
 20
14.7475
 11
-40.2252
 21
14.6264
  0
LINE
  8
0
 10
-40.2252
 20
14.6264
 11
-40.1293
 21
14.5146
  0
LINE
  8
0
 10
-40.1293
 20
14.5146
 11
-40.0181
 21
14.4122
  0
LINE
  8
0
 10
-40.0181
 20
14.4122
 11
-39.8921
 21
14.319
  0
LINE
  8
0
 10
-39.8921
 20
14.319
 11
-39.7516
 21
14.2349
  0
LINE
  8
0
 10
-39.7516
 20
14.2349
 11
-39.5969
 21
14.16
  0
LINE
  8
0
 10
-39.5969
 20
14.16
 11
-39.4283
 21
14.0941
  0
LINE
  8
0
 10
-39.4283
 20
14.0941
 11
-39.2462
 21
14.0372
  0
LINE
  8
0
 10
-39.2462
 20
14.0372
 11
-39.0509
 21
13.9892
  0
LINE
  8
0
 10
-39.0509
 20
13.9892
 11
-38.8428
 21
13.9501
  0
LINE
  8
0
 10
-38.8428
 20
13.9501
 11
-38.6221
 21
13.9198
  0
LINE
  8
0
 10
-38.6221
 20
13.9198
 11
-38.3893
 21
13.8983
  0
LINE
  8
0
 10
-38.3893
 20
13.8983
 11
-38.1445
 21
13.8855
  0
LINE
  8
0
 10
-38.1445
 20
13.8855
 11
-37.8882
 21
13.8813
  0
LINE
  8
0
 10
-37.8882
 20
13.8813
 11
-37.6207
 21
13.8857
  0
LINE
  8
0
 10
-37.6207
 20
13.8857
 11
-37.3424
 21
13.8986
  0
LINE
  8
0
 10
-37.3424
 20
13.8986
 11
-37.0535
 21
13.92
  0
LINE
  8
0
 10
-37.0535
 20
13.92
 11
-36.7544
 21
13.9498
  0
LINE
  8
0
 10
-36.7544
 20
13.9498
 11
-36.4454
 21
13.9878
  0
LINE
  8
0
 10
-36.4454
 20
13.9878
 11
-36.3299
 21
13.4523
  0
LINE
  8
0
 10
-36.3299
 20
13.4523
 11
-36.2112
 21
12.9187
  0
LINE
  8
0
 10
-36.2112
 20
12.9187
 11
-36.0895
 21
12.3874
  0
LINE
  8
0
 10
-36.0895
 20
12.3874
 11
-35.9648
 21
11.8584
  0
LINE
  8
0
 10
-35.9648
 20
11.8584
 11
-35.8371
 21
11.3318
  0
LINE
  8
0
 10
-35.8371
 20
11.3318
 11
-35.7063
 21
10.808
  0
LINE
  8
0
 10
-35.7063
 20
10.808
 11
-35.5727
 21
10.287
  0
LINE
  8
0
 10
-35.5727
 20
10.287
 11
-35.4361
 21
9.76892
  0
LINE
  8
0
 10
-35.4361
 20
9.76892
 11
-35.2967
 21
9.25403
  0
LINE
  8
0
 10
-35.2967
 20
9.25403
 11
-35.1544
 21
8.74243
  0
LINE
  8
0
 10
-35.1544
 20
8.74243
 11
-35.0093
 21
8.23431
  0
LINE
  8
0
 10
-35.0093
 20
8.23431
 11
-34.8614
 21
7.7298
  0
LINE
  8
0
 10
-34.8614
 20
7.7298
 11
-34.7107
 21
7.22906
  0
LINE
  8
0
 10
-34.7107
 20
7.22906
 11
-34.5572
 21
6.73228
  0
LINE
  8
0
 10
-34.5572
 20
6.73228
 11
-34.4011
 21
6.23959
  0
LINE
  8
0
 10
-34.4011
 20
6.23959
 11
-34.2422
 21
5.75116
  0
LINE
  8
0
 10
-34.2422
 20
5.75116
 11
-34.0807
 21
5.26717
  0
LINE
  8
0
 10
-34.0807
 20
5.26717
 11
-33.9166
 21
4.78773
  0
LINE
  8
0
 10
-33.9166
 20
4.78773
 11
-33.7498
 21
4.31302
  0
LINE
  8
0
 10
-33.7498
 20
4.31302
 11
-33.5805
 21
3.84323
  0
LINE
  8
0
 10
-33.5805
 20
3.84323
 11
-33.6583
 21
3.5939
  0
LINE
  8
0
 10
-33.6583
 20
3.5939
 11
-33.7283
 21
3.35114
  0
LINE
  8
0
 10
-33.7283
 20
3.35114
 11
-33.7904
 21
3.11513
  0
LINE
  8
0
 10
-33.7904
 20
3.11513
 11
-33.8444
 21
2.88612
  0
LINE
  8
0
 10
-33.8444
 20
2.88612
 11
-33.8904
 21
2.66429
  0
LINE
  8
0
 10
-33.8904
 20
2.66429
 11
-33.9282
 21
2.44992
  0
LINE
  8
0
 10
-33.9282
 20
2.44992
 11
-33.9578
 21
2.24316
  0
LINE
  8
0
 10
-33.9578
 20
2.24316
 11
-33.979
 21
2.04424
  0
LINE
  8
0
 10
-33.979
 20
2.04424
 11
-33.9918
 21
1.85339
  0
LINE
  8
0
 10
-33.9918
 20
1.85339
 11
-33.9961
 21
1.67085
  0
LINE
  8
0
 10
-33.9961
 20
1.67085
 11
-33.9917
 21
1.49678
  0
LINE
  8
0
 10
-33.9917
 20
1.49678
 11
-33.9787
 21
1.33145
  0
LINE
  8
0
 10
-33.9787
 20
1.33145
 11
-33.9569
 21
1.17505
  0
LINE
  8
0
 10
-33.9569
 20
1.17505
 11
-33.9262
 21
1.0278
  0
LINE
  8
0
 10
-33.9262
 20
1.0278
 11
-33.8866
 21
0.889893
  0
LINE
  8
0
 10
-33.8866
 20
0.889893
 11
-33.8379
 21
0.761581
  0
LINE
  8
0
 10
-33.8379
 20
0.761581
 11
-33.7801
 21
0.643082
  0
LINE
  8
0
 10
-33.7801
 20
0.643082
 11
-33.7131
 21
0.534592
  0
LINE
  8
0
 10
-33.7131
 20
0.534592
 11
-33.6368
 21
0.43631
  0
LINE
  8
0
 10
-33.6368
 20
0.43631
 11
-33.5511
 21
0.34848
  0
LINE
  8
0
 10
-33.5511
 20
0.34848
 11
-33.4987
 21
0.304276
  0
LINE
  8
0
 10
-33.4987
 20
0.304276
 11
-33.444
 21
0.263763
  0
LINE
  8
0
 10
-33.444
 20
0.263763
 11
-33.3867
 21
0.226929
  0
LINE
  8
0
 10
-33.3867
 20
0.226929
 11
-33.327
 21
0.193771
  0
LINE
  8
0
 10
-33.327
 20
0.193771
 11
-33.265
 21
0.16423
  0
LINE
  8
0
 10
-33.265
 20
0.16423
 11
-33.2006
 21
0.138306
  0
LINE
  8
0
 10
-33.2006
 20
0.138306
 11
-33.1338
 21
0.115997
  0
LINE
  8
0
 10
-33.1338
 20
0.115997
 11
-33.0647
 21
0.097229
  0
LINE
  8
0
 10
-33.0647
 20
0.097229
 11
-32.9934
 21
0.082016
  0
LINE
  8
0
 10
-32.9934
 20
0.082016
 11
-32.9198
 21
0.0702972
  0
LINE
  8
0
 10
-32.9198
 20
0.0702972
 11
-32.8439
 21
0.062088
  0
LINE
  8
0
 10
-32.8439
 20
0.062088
 11
-32.7659
 21
0.0573578
  0
LINE
  8
0
 10
-32.7659
 20
0.0573578
 11
-32.6857
 21
0.0560913
  0
LINE
  8
0
 10
-32.6857
 20
0.0560913
 11
-32.6033
 21
0.0582123
  0
LINE
  8
0
 10
-32.6033
 20
0.0582123
 11
-32.5189
 21
0.063736
  0
LINE
  8
0
 10
-32.5189
 20
0.063736
 11
-32.4323
 21
0.0726318
  0
LINE
  8
0
 10
-32.4323
 20
0.0726318
 11
-32.3437
 21
0.0848999
  0
LINE
  8
0
 10
-32.3437
 20
0.0848999
 11
-32.2531
 21
0.100494
  0
LINE
  8
0
 10
-32.2531
 20
0.100494
 11
-32.1604
 21
0.119354
  0
LINE
  8
0
 10
-32.1604
 20
0.119354
 11
-32.0658
 21
0.141525
  0
LINE
  8
0
 10
-32.0658
 20
0.141525
 11
-32
 21
0
  0
LINE
  8
0
 10
-32
 20
0
 11
-27.37
 21
0
  0
LINE
  8
0
 10
-27.37
 20
0
 11
-27.37
 21
3.00099
  0
LINE
  8
0
 10
-30.7106
 20
39.1525
 11
-31.1285
 21
39.2053
  0
LINE
  8
0
 10
-31.1285
 20
39.2053
 11
-31.5365
 21
39.3101
  0
LINE
  8
0
 10
-31.5365
 20
39.3101
 11
-31.9281
 21
39.4651
  0
LINE
  8
0
 10
-31.9281
 20
39.4651
 11
-32.2972
 21
39.668
  0
LINE
  8
0
 10
-32.2972
 20
39.668
 11
-32.638
 21
39.9156
  0
LINE
  8
0
 10
-32.638
 20
39.9156
 11
-32.945
 21
40.2039
  0
LINE
  8
0
 10
-32.945
 20
40.2039
 11
-33.2135
 21
40.5285
  0
LINE
  8
0
 10
-33.2135
 20
40.5285
 11
-33.4392
 21
40.8841
  0
LINE
  8
0
 10
-33.4392
 20
40.8841
 11
-33.6186
 21
41.2653
  0
LINE
  8
0
 10
-33.6186
 20
41.2653
 11
-33.7487
 21
41.6659
  0
LINE
  8
0
 10
-33.7487
 20
41.6659
 11
-33.8277
 21
42.0796
  0
LINE
  8
0
 10
-33.8277
 20
42.0796
 11
-33.8541
 21
42.5
  0
LINE
  8
0
 10
-33.8541
 20
42.5
 11
-33.8277
 21
42.9204
  0
LINE
  8
0
 10
-33.8277
 20
42.9204
 11
-33.7487
 21
43.3341
  0
LINE
  8
0
 10
-33.7487
 20
43.3341
 11
-33.6186
 21
43.7347
  0
LINE
  8
0
 10
-33.6186
 20
43.7347
 11
-33.4392
 21
44.1158
  0
LINE
  8
0
 10
-33.4392
 20
44.1158
 11
-33.2135
 21
44.4715
  0
LINE
  8
0
 10
-33.2135
 20
44.4715
 11
-32.945
 21
44.796
  0
LINE
  8
0
 10
-32.945
 20
44.796
 11
-32.638
 21
45.0844
  0
LINE
  8
0
 10
-32.638
 20
45.0844
 11
-32.2972
 21
45.332
  0
LINE
  8
0
 10
-32.2972
 20
45.332
 11
-31.9281
 21
45.5349
  0
LINE
  8
0
 10
-31.9281
 20
45.5349
 11
-31.5365
 21
45.6899
  0
LINE
  8
0
 10
-31.5365
 20
45.6899
 11
-31.1285
 21
45.7947
  0
LINE
  8
0
 10
-31.1285
 20
45.7947
 11
-30.7106
 21
45.8475
  0
LINE
  8
0
 10
-30.7106
 20
45.8475
 11
-30.2894
 21
45.8475
  0
LINE
  8
0
 10
-30.2894
 20
45.8475
 11
-29.8715
 21
45.7947
  0
LINE
  8
0
 10
-29.8715
 20
45.7947
 11
-29.4635
 21
45.6899
  0
LINE
  8
0
 10
-29.4635
 20
45.6899
 11
-29.0719
 21
45.5349
  0
LINE
  8
0
 10
-29.0719
 20
45.5349
 11
-28.7028
 21
45.332
  0
LINE
  8
0
 10
-28.7028
 20
45.332
 11
-28.362
 21
45.0844
  0
LINE
  8
0
 10
-28.362
 20
45.0844
 11
-28.055
 21
44.796
  0
LINE
  8
0
 10
-28.055
 20
44.796
 11
-27.7865
 21
44.4715
  0
LINE
  8
0
 10
-27.7865
 20
44.4715
 11
-27.5608
 21
44.1158
  0
LINE
  8
0
 10
-27.5608
 20
44.1158
 11
-27.3814
 21
43.7347
  0
LINE
  8
0
 10
-27.3814
 20
43.7347
 11
-27.2513
 21
43.3341
  0
LINE
  8
0
 10
-27.2513
 20
43.3341
 11
-27.1723
 21
42.9204
  0
LINE
  8
0
 10
-27.1723
 20
42.9204
 11
-27.1459
 21
42.5
  0
LINE
  8
0
 10
-27.1459
 20
42.5
 11
-27.1723
 21
42.0796
  0
LINE
  8
0
 10
-27.1723
 20
42.0796
 11
-27.2513
 21
41.6659
  0
LINE
  8
0
 10
-27.2513
 20
41.6659
 11
-27.3814
 21
41.2653
  0
LINE
  8
0
 10
-27.3814
 20
41.2653
 11
-27.5608
 21
40.8841
  0
LINE
  8
0
 10
-27.5608
 20
40.8841
 11
-27.7865
 21
40.5285
  0
LINE
  8
0
 10
-27.7865
 20
40.5285
 11
-28.055
 21
40.2039
  0
LINE
  8
0
 10
-28.055
 20
40.2039
 11
-28.362
 21
39.9156
  0
LINE
  8
0
 10
-28.362
 20
39.9156
 11
-28.7028
 21
39.668
  0
LINE
  8
0
 10
-28.7028
 20
39.668
 11
-29.0719
 21
39.4651
  0
LINE
  8
0
 10
-29.0719
 20
39.4651
 11
-29.4635
 21
39.3101
  0
LINE
  8
0
 10
-29.4635
 20
39.3101
 11
-29.8715
 21
39.2053
  0
LINE
  8
0
 10
-29.8715
 20
39.2053
 11
-30.2894
 21
39.1525
  0
LINE
  8
0
 10
-30.2894
 20
39.1525
 11
-30.7106
 21
39.1525
  0
LINE
  8
0
 10
-17.87
 20
40.999
 11
-17.87
 21
44.001
  0
LINE
  8
0
 10
-17.87
 20
44.001
 11
-11.13
 21
44.001
  0
LINE
  8
0
 10
-11.13
 20
44.001
 11
-11.13
 21
40.999
  0
LINE
  8
0
 10
-11.13
 20
40.999
 11
-17.87
 21
40.999
  0
LINE
  8
0
 10
114.63
 20
3.00099
 11
120.703
 21
3.00099
  0
LINE
  8
0
 10
120.703
 20
3.00099
 11
120.703
 21
0
  0
LINE
  8
0
 10
120.703
 20
0
 11
127.297
 21
0
  0
LINE
  8
0
 10
127.297
 20
0
 11
127.297
 21
3.00099
  0
LINE
  8
0
 10
127.297
 20
3.00099
 11
133.37
 21
3.00099
  0
LINE
  8
0
 10
133.37
 20
3.00099
 11
133.37
 21
0
  0
LINE
  8
0
 10
133.37
 20
0
 11
138
 21
0
  0
LINE
  8
0
 10
138
 20
0
 11
138.066
 21
0.141525
  0
LINE
  8
0
 10
138.066
 20
0.141525
 11
138.16
 21
0.119354
  0
LINE
  8
0
 10
138.16
 20
0.119354
 11
138.253
 21
0.100494
  0
LINE
  8
0
 10
138.253
 20
0.100494
 11
138.344
 21
0.0848999
  0
LINE
  8
0
 10
138.344
 20
0.0848999
 11
138.432
 21
0.0726318
  0
LINE
  8
0
 10
138.432
 20
0.0726318
 11
138.519
 21
0.063736
  0
LINE
  8
0
 10
138.519
 20
0.063736
 11
138.603
 21
0.0582123
  0
LINE
  8
0
 10
138.603
 20
0.0582123
 11
138.686
 21
0.0560913
  0
LINE
  8
0
 10
138.686
 20
0.0560913
 11
138.766
 21
0.0573578
  0
LINE
  8
0
 10
138.766
 20
0.0573578
 11
138.844
 21
0.062088
  0
LINE
  8
0
 10
138.844
 20
0.062088
 11
138.92
 21
0.0702972
  0
LINE
  8
0
 10
138.92
 20
0.0702972
 11
138.993
 21
0.082016
  0
LINE
  8
0
 10
138.993
 20
0.082016
 11
139.065
 21
0.097229
  0
LINE
  8
0
 10
139.065
 20
0.097229
 11
139.134
 21
0.115997
  0
LINE
  8
0
 10
139.134
 20
0.115997
 11
139.201
 21
0.138306
  0
LINE
  8
0
 10
139.201
 20
0.138306
 11
139.265
 21
0.16423
  0
LINE
  8
0
 10
139.265
 20
0.16423
 11
139.327
 21
0.193771
  0
LINE
  8
0
 10
139.327
 20
0.193771
 11
139.387
 21
0.226929
  0
LINE
  8
0
 10
139.387
 20
0.226929
 11
139.444
 21
0.263763
  0
LINE
  8
0
 10
139.444
 20
0.263763
 11
139.499
 21
0.304276
  0
LINE
  8
0
 10
139.499
 20
0.304276
 11
139.551
 21
0.34848
  0
LINE
  8
0
 10
139.551
 20
0.34848
 11
139.637
 21
0.43631
  0
LINE
  8
0
 10
139.637
 20
0.43631
 11
139.713
 21
0.534592
  0
LINE
  8
0
 10
139.713
 20
0.534592
 11
139.78
 21
0.643082
  0
LINE
  8
0
 10
139.78
 20
0.643082
 11
139.838
 21
0.761581
  0
LINE
  8
0
 10
139.838
 20
0.761581
 11
139.887
 21
0.889893
  0
LINE
  8
0
 10
139.887
 20
0.889893
 11
139.926
 21
1.0278
  0
LINE
  8
0
 10
139.926
 20
1.0278
 11
139.957
 21
1.17505
  0
LINE
  8
0
 10
139.957
 20
1.17505
 11
139.979
 21
1.33145
  0
LINE
  8
0
 10
139.979
 20
1.33145
 11
139.992
 21
1.49678
  0
LINE
  8
0
 10
139.992
 20
1.49678
 11
139.996
 21
1.67085
  0
LINE
  8
0
 10
139.996
 20
1.67085
 11
139.992
 21
1.85339
  0
LINE
  8
0
 10
139.992
 20
1.85339
 11
139.979
 21
2.04424
  0
LINE
  8
0
 10
139.979
 20
2.04424
 11
139.958
 21
2.24316
  0
LINE
  8
0
 10
139.958
 20
2.24316
 11
139.928
 21
2.44992
  0
LINE
  8
0
 10
139.928
 20
2.44992
 11
139.89
 21
2.66429
  0
LINE
  8
0
 10
139.89
 20
2.66429
 11
139.844
 21
2.88612
  0
LINE
  8
0
 10
139.844
 20
2.88612
 11
139.79
 21
3.11513
  0
LINE
  8
0
 10
139.79
 20
3.11513
 11
139.728
 21
3.35114
  0
LINE
  8
0
 10
139.728
 20
3.35114
 11
139.658
 21
3.5939
  0
LINE
  8
0
 10
139.658
 20
3.5939
 11
139.581
 21
3.84323
  0
LINE
  8
0
 10
139.581
 20
3.84323
 11
139.75
 21
4.31302
  0
LINE
  8
0
 10
139.75
 20
4.31302
 11
139.917
 21
4.78773
  0
LINE
  8
0
 10
139.917
 20
4.78773
 11
140.081
 21
5.26717
  0
LINE
  8
0
 10
140.081
 20
5.26717
 11
140.242
 21
5.75116
  0
LINE
  8
0
 10
140.242
 20
5.75116
 11
140.401
 21
6.23959
  0
LINE
  8
0
 10
140.401
 20
6.23959
 11
140.557
 21
6.73228
  0
LINE
  8
0
 10
140.557
 20
6.73228
 11
140.711
 21
7.22906
  0
LINE
  8
0
 10
140.711
 20
7.22906
 11
140.861
 21
7.7298
  0
LINE
  8
0
 10
140.861
 20
7.7298
 11
141.009
 21
8.23431
  0
LINE
  8
0
 10
141.009
 20
8.23431
 11
141.154
 21
8.74243
  0
LINE
  8
0
 10
141.154
 20
8.74243
 11
141.297
 21
9.25403
  0
LINE
  8
0
 10
141.297
 20
9.25403
 11
141.436
 21
9.76892
  0
LINE
  8
0
 10
141.436
 20
9.76892
 11
141.573
 21
10.287
  0
LINE
  8
0
 10
141.573
 20
10.287
 11
141.706
 21
10.808
  0
LINE
  8
0
 10
141.706
 20
10.808
 11
141.837
 21
11.3318
  0
LINE
  8
0
 10
141.837
 20
11.3318
 11
141.965
 21
11.8584
  0
LINE
  8
0
 10
141.965
 20
11.8584
 11
142.09
 21
12.3874
  0
LINE
  8
0
 10
142.09
 20
12.3874
 11
142.211
 21
12.9187
  0
LINE
  8
0
 10
142.211
 20
12.9187
 11
142.33
 21
13.4523
  0
LINE
  8
0
 10
142.33
 20
13.4523
 11
142.445
 21
13.9878
  0
LINE
  8
0
 10
142.445
 20
13.9878
 11
142.754
 21
13.9498
  0
LINE
  8
0
 10
142.754
 20
13.9498
 11
143.054
 21
13.92
  0
LINE
  8
0
 10
143.054
 20
13.92
 11
143.342
 21
13.8986
  0
LINE
  8
0
 10
143.342
 20
13.8986
 11
143.621
 21
13.8857
  0
LINE
  8
0
 10
143.621
 20
13.8857
 11
143.888
 21
13.8813
  0
LINE
  8
0
 10
143.888
 20
13.8813
 11
144.145
 21
13.8855
  0
LINE
  8
0
 10
144.145
 20
13.8855
 11
144.389
 21
13.8983
  0
LINE
  8
0
 10
144.389
 20
13.8983
 11
144.622
 21
13.9198
  0
LINE
  8
0
 10
144.622
 20
13.9198
 11
144.843
 21
13.9501
  0
LINE
  8
0
 10
144.843
 20
13.9501
 11
145.051
 21
13.9892
  0
LINE
  8
0
 10
145.051
 20
13.9892
 11
145.246
 21
14.0372
  0
LINE
  8
0
 10
145.246
 20
14.0372
 11
145.428
 21
14.0941
  0
LINE
  8
0
 10
145.428
 20
14.0941
 11
145.597
 21
14.16
  0
LINE
  8
0
 10
145.597
 20
14.16
 11
145.752
 21
14.2349
  0
LINE
  8
0
 10
145.752
 20
14.2349
 11
145.892
 21
14.319
  0
LINE
  8
0
 10
145.892
 20
14.319
 11
146.018
 21
14.4122
  0
LINE
  8
0
 10
146.018
 20
14.4122
 11
146.129
 21
14.5146
  0
LINE
  8
0
 10
146.129
 20
14.5146
 11
146.225
 21
14.6264
  0
LINE
  8
0
 10
146.225
 20
14.6264
 11
146.306
 21
14.7475
  0
LINE
  8
0
 10
146.306
 20
14.7475
 11
146.37
 21
14.878
  0
LINE
  8
0
 10
146.37
 20
14.878
 11
146.425
 21
15.0431
  0
LINE
  8
0
 10
146.425
 20
15.0431
 11
146.457
 21
15.2177
  0
LINE
  8
0
 10
146.457
 20
15.2177
 11
146.465
 21
15.4014
  0
LINE
  8
0
 10
146.465
 20
15.4014
 11
146.45
 21
15.5939
  0
LINE
  8
0
 10
146.45
 20
15.5939
 11
146.413
 21
15.7946
  0
LINE
  8
0
 10
146.413
 20
15.7946
 11
146.354
 21
16.0034
  0
LINE
  8
0
 10
146.354
 20
16.0034
 11
146.274
 21
16.2196
  0
LINE
  8
0
 10
146.274
 20
16.2196
 11
146.172
 21
16.4431
  0
LINE
  8
0
 10
146.172
 20
16.4431
 11
146.05
 21
16.6733
  0
LINE
  8
0
 10
146.05
 20
16.6733
 11
145.907
 21
16.9098
  0
LINE
  8
0
 10
145.907
 20
16.9098
 11
145.745
 21
17.1524
  0
LINE
  8
0
 10
145.745
 20
17.1524
 11
145.563
 21
17.4006
  0
LINE
  8
0
 10
145.563
 20
17.4006
 11
145.362
 21
17.654
  0
LINE
  8
0
 10
145.362
 20
17.654
 11
145.143
 21
17.9122
  0
LINE
  8
0
 10
145.143
 20
17.9122
 11
144.906
 21
18.1749
  0
LINE
  8
0
 10
144.906
 20
18.1749
 11
144.65
 21
18.4417
  0
LINE
  8
0
 10
144.65
 20
18.4417
 11
144.378
 21
18.712
  0
LINE
  8
0
 10
144.378
 20
18.712
 11
144.089
 21
18.9857
  0
LINE
  8
0
 10
144.089
 20
18.9857
 11
143.783
 21
19.2623
  0
LINE
  8
0
 10
143.783
 20
19.2623
 11
143.461
 21
19.5413
  0
LINE
  8
0
 10
143.461
 20
19.5413
 11
143.512
 21
19.881
  0
LINE
  8
0
 10
143.512
 20
19.881
 11
143.561
 21
20.2208
  0
LINE
  8
0
 10
143.561
 20
20.2208
 11
143.609
 21
20.5604
  0
LINE
  8
0
 10
143.609
 20
20.5604
 11
143.656
 21
20.9
  0
LINE
  8
0
 10
143.656
 20
20.9
 11
143.701
 21
21.2394
  0
LINE
  8
0
 10
143.701
 20
21.2394
 11
143.746
 21
21.5787
  0
LINE
  8
0
 10
143.746
 20
21.5787
 11
143.789
 21
21.9178
  0
LINE
  8
0
 10
143.789
 20
21.9178
 11
143.831
 21
22.2567
  0
LINE
  8
0
 10
143.831
 20
22.2567
 11
143.871
 21
22.5952
  0
LINE
  8
0
 10
143.871
 20
22.5952
 11
143.91
 21
22.9335
  0
LINE
  8
0
 10
143.91
 20
22.9335
 11
143.948
 21
23.2715
  0
LINE
  8
0
 10
143.948
 20
23.2715
 11
143.985
 21
23.6091
  0
LINE
  8
0
 10
143.985
 20
23.6091
 11
144.021
 21
23.9462
  0
LINE
  8
0
 10
144.021
 20
23.9462
 11
144.055
 21
24.283
  0
LINE
  8
0
 10
144.055
 20
24.283
 11
144.088
 21
24.6192
  0
LINE
  8
0
 10
144.088
 20
24.6192
 11
144.119
 21
24.955
  0
LINE
  8
0
 10
144.119
 20
24.955
 11
144.149
 21
25.2902
  0
LINE
  8
0
 10
144.149
 20
25.2902
 11
144.178
 21
25.6248
  0
LINE
  8
0
 10
144.178
 20
25.6248
 11
144.206
 21
25.9588
  0
LINE
  8
0
 10
144.206
 20
25.9588
 11
144.232
 21
26.2922
  0
LINE
  8
0
 10
144.232
 20
26.2922
 11
144.861
 21
26.1822
  0
LINE
  8
0
 10
144.861
 20
26.1822
 11
145.475
 21
26.0917
  0
LINE
  8
0
 10
145.475
 20
26.0917
 11
146.074
 21
26.0205
  0
LINE
  8
0
 10
146.074
 20
26.0205
 11
146.654
 21
25.9686
  0
LINE
  8
0
 10
146.654
 20
25.9686
 11
147.216
 21
25.9359
  0
LINE
  8
0
 10
147.216
 20
25.9359
 11
147.756
 21
25.9222
  0
LINE
  8
0
 10
147.756
 20
25.9222
 11
148.274
 21
25.9276
  0
LINE
  8
0
 10
148.274
 20
25.9276
 11
148.769
 21
25.9518
  0
LINE
  8
0
 10
148.769
 20
25.9518
 11
149.238
 21
25.9948
  0
LINE
  8
0
 10
149.238
 20
25.9948
 11
149.679
 21
26.0565
  0
LINE
  8
0
 10
149.679
 20
26.0565
 11
150.093
 21
26.1368
  0
LINE
  8
0
 10
150.093
 20
26.1368
 11
150.476
 21
26.2356
  0
LINE
  8
0
 10
150.476
 20
26.2356
 11
150.827
 21
26.3529
  0
LINE
  8
0
 10
150.827
 20
26.3529
 11
151.145
 21
26.4885
  0
LINE
  8
0
 10
151.145
 20
26.4885
 11
151.429
 21
26.6423
  0
LINE
  8
0
 10
151.429
 20
26.6423
 11
151.676
 21
26.8143
  0
LINE
  8
0
 10
151.676
 20
26.8143
 11
151.885
 21
27.0044
  0
LINE
  8
0
 10
151.885
 20
27.0044
 11
152.055
 21
27.2124
  0
LINE
  8
0
 10
152.055
 20
27.2124
 11
152.184
 21
27.4383
  0
LINE
  8
0
 10
152.184
 20
27.4383
 11
152.27
 21
27.6819
  0
LINE
  8
0
 10
152.27
 20
27.6819
 11
152.315
 21
27.9733
  0
LINE
  8
0
 10
152.315
 20
27.9733
 11
152.302
 21
28.2758
  0
LINE
  8
0
 10
152.302
 20
28.2758
 11
152.234
 21
28.5881
  0
LINE
  8
0
 10
152.234
 20
28.5881
 11
152.114
 21
28.9088
  0
LINE
  8
0
 10
152.114
 20
28.9088
 11
151.942
 21
29.2366
  0
LINE
  8
0
 10
151.942
 20
29.2366
 11
151.721
 21
29.5701
  0
LINE
  8
0
 10
151.721
 20
29.5701
 11
151.452
 21
29.9079
  0
LINE
  8
0
 10
151.452
 20
29.9079
 11
151.137
 21
30.2486
  0
LINE
  8
0
 10
151.137
 20
30.2486
 11
150.778
 21
30.591
  0
LINE
  8
0
 10
150.778
 20
30.591
 11
150.378
 21
30.9335
  0
LINE
  8
0
 10
150.378
 20
30.9335
 11
149.937
 21
31.2749
  0
LINE
  8
0
 10
149.937
 20
31.2749
 11
149.457
 21
31.6138
  0
LINE
  8
0
 10
149.457
 20
31.6138
 11
148.941
 21
31.9488
  0
LINE
  8
0
 10
148.941
 20
31.9488
 11
148.39
 21
32.2785
  0
LINE
  8
0
 10
148.39
 20
32.2785
 11
147.807
 21
32.6015
  0
LINE
  8
0
 10
147.807
 20
32.6015
 11
147.192
 21
32.9166
  0
LINE
  8
0
 10
147.192
 20
32.9166
 11
146.547
 21
33.2223
  0
LINE
  8
0
 10
146.547
 20
33.2223
 11
145.876
 21
33.5172
  0
LINE
  8
0
 10
145.876
 20
33.5172
 11
145.179
 21
33.8
  0
LINE
  8
0
 10
145.179
 20
33.8
 11
144.457
 21
34.0694
  0
LINE
  8
0
 10
144.457
 20
34.0694
 11
144.448
 21
34.3875
  0
LINE
  8
0
 10
144.448
 20
34.3875
 11
144.437
 21
34.7038
  0
LINE
  8
0
 10
144.437
 20
34.7038
 11
144.425
 21
35.0181
  0
LINE
  8
0
 10
144.425
 20
35.0181
 11
144.411
 21
35.3305
  0
LINE
  8
0
 10
144.411
 20
35.3305
 11
144.395
 21
35.6408
  0
LINE
  8
0
 10
144.395
 20
35.6408
 11
144.378
 21
35.9491
  0
LINE
  8
0
 10
144.378
 20
35.9491
 11
144.359
 21
36.2552
  0
LINE
  8
0
 10
144.359
 20
36.2552
 11
144.339
 21
36.5593
  0
LINE
  8
0
 10
144.339
 20
36.5593
 11
144.317
 21
36.8612
  0
LINE
  8
0
 10
144.317
 20
36.8612
 11
144.293
 21
37.1608
  0
LINE
  8
0
 10
144.293
 20
37.1608
 11
144.268
 21
37.4582
  0
LINE
  8
0
 10
144.268
 20
37.4582
 11
144.241
 21
37.7533
  0
LINE
  8
0
 10
144.241
 20
37.7533
 11
144.212
 21
38.0461
  0
LINE
  8
0
 10
144.212
 20
38.0461
 11
144.182
 21
38.3365
  0
LINE
  8
0
 10
144.182
 20
38.3365
 11
144.15
 21
38.6246
  0
LINE
  8
0
 10
144.15
 20
38.6246
 11
144.116
 21
38.9101
  0
LINE
  8
0
 10
144.116
 20
38.9101
 11
144.081
 21
39.1932
  0
LINE
  8
0
 10
144.081
 20
39.1932
 11
144.045
 21
39.4738
  0
LINE
  8
0
 10
144.045
 20
39.4738
 11
144.006
 21
39.7518
  0
LINE
  8
0
 10
144.006
 20
39.7518
 11
143.966
 21
40.0272
  0
LINE
  8
0
 10
143.966
 20
40.0272
 11
144.152
 21
39.959
  0
LINE
  8
0
 10
144.152
 20
39.959
 11
144.34
 21
39.8921
  0
LINE
  8
0
 10
144.34
 20
39.8921
 11
144.531
 21
39.8265
  0
LINE
  8
0
 10
144.531
 20
39.8265
 11
144.723
 21
39.7623
  0
LINE
  8
0
 10
144.723
 20
39.7623
 11
144.917
 21
39.6995
  0
LINE
  8
0
 10
144.917
 20
39.6995
 11
145.114
 21
39.638
  0
LINE
  8
0
 10
145.114
 20
39.638
 11
145.312
 21
39.5781
  0
LINE
  8
0
 10
145.312
 20
39.5781
 11
145.513
 21
39.5196
  0
LINE
  8
0
 10
145.513
 20
39.5196
 11
145.715
 21
39.4627
  0
LINE
  8
0
 10
145.715
 20
39.4627
 11
145.919
 21
39.4073
  0
LINE
  8
0
 10
145.919
 20
39.4073
 11
146.125
 21
39.3535
  0
LINE
  8
0
 10
146.125
 20
39.3535
 11
146.333
 21
39.3013
  0
LINE
  8
0
 10
146.333
 20
39.3013
 11
146.542
 21
39.2507
  0
LINE
  8
0
 10
146.542
 20
39.2507
 11
146.753
 21
39.2019
  0
LINE
  8
0
 10
146.753
 20
39.2019
 11
146.966
 21
39.1547
  0
LINE
  8
0
 10
146.966
 20
39.1547
 11
147.18
 21
39.1093
  0
LINE
  8
0
 10
147.18
 20
39.1093
 11
147.396
 21
39.0658
  0
LINE
  8
0
 10
147.396
 20
39.0658
 11
147.614
 21
39.024
  0
LINE
  8
0
 10
147.614
 20
39.024
 11
147.832
 21
38.9841
  0
LINE
  8
0
 10
147.832
 20
38.9841
 11
148.053
 21
38.9461
  0
LINE
  8
0
 10
148.053
 20
38.9461
 11
148.9
 21
38.8192
  0
LINE
  8
0
 10
148.9
 20
38.8192
 11
149.733
 21
38.7249
  0
LINE
  8
0
 10
149.733
 20
38.7249
 11
150.548
 21
38.6625
  0
LINE
  8
0
 10
150.548
 20
38.6625
 11
151.342
 21
38.6312
  0
LINE
  8
0
 10
151.342
 20
38.6312
 11
152.113
 21
38.6303
  0
LINE
  8
0
 10
152.113
 20
38.6303
 11
152.859
 21
38.6591
  0
LINE
  8
0
 10
152.859
 20
38.6591
 11
153.575
 21
38.7169
  0
LINE
  8
0
 10
153.575
 20
38.7169
 11
154.26
 21
38.8029
  0
LINE
  8
0
 10
154.26
 20
38.8029
 11
154.91
 21
38.9164
  0
LINE
  8
0
 10
154.91
 20
38.9164
 11
155.523
 21
39.0567
  0
LINE
  8
0
 10
155.523
 20
39.0567
 11
156.096
 21
39.223
  0
LINE
  8
0
 10
156.096
 20
39.223
 11
156.626
 21
39.4147
  0
LINE
  8
0
 10
156.626
 20
39.4147
 11
157.11
 21
39.631
  0
LINE
  8
0
 10
157.11
 20
39.631
 11
157.545
 21
39.8712
  0
LINE
  8
0
 10
157.545
 20
39.8712
 11
157.93
 21
40.1346
  0
LINE
  8
0
 10
157.93
 20
40.1346
 11
158.26
 21
40.4204
  0
LINE
  8
0
 10
158.26
 20
40.4204
 11
158.533
 21
40.728
  0
LINE
  8
0
 10
158.533
 20
40.728
 11
158.746
 21
41.0565
  0
LINE
  8
0
 10
158.746
 20
41.0565
 11
158.897
 21
41.4053
  0
LINE
  8
0
 10
158.897
 20
41.4053
 11
158.983
 21
41.7736
  0
LINE
  8
0
 10
158.983
 20
41.7736
 11
159
 21
42.1532
  0
LINE
  8
0
 10
159
 20
42.1532
 11
158.95
 21
42.5357
  0
LINE
  8
0
 10
158.95
 20
42.5357
 11
158.834
 21
42.9193
  0
LINE
  8
0
 10
158.834
 20
42.9193
 11
158.656
 21
43.3026
  0
LINE
  8
0
 10
158.656
 20
43.3026
 11
158.417
 21
43.684
  0
LINE
  8
0
 10
158.417
 20
43.684
 11
158.121
 21
44.0617
  0
LINE
  8
0
 10
158.121
 20
44.0617
 11
157.77
 21
44.4341
  0
LINE
  8
0
 10
157.77
 20
44.4341
 11
157.366
 21
44.7998
  0
LINE
  8
0
 10
157.366
 20
44.7998
 11
156.911
 21
45.1569
  0
LINE
  8
0
 10
156.911
 20
45.1569
 11
156.409
 21
45.504
  0
LINE
  8
0
 10
156.409
 20
45.504
 11
155.861
 21
45.8394
  0
LINE
  8
0
 10
155.861
 20
45.8394
 11
155.271
 21
46.1615
  0
LINE
  8
0
 10
155.271
 20
46.1615
 11
154.64
 21
46.4687
  0
LINE
  8
0
 10
154.64
 20
46.4687
 11
153.972
 21
46.7594
  0
LINE
  8
0
 10
153.972
 20
46.7594
 11
153.268
 21
47.0318
  0
LINE
  8
0
 10
153.268
 20
47.0318
 11
152.532
 21
47.2846
  0
LINE
  8
0
 10
152.532
 20
47.2846
 11
151.765
 21
47.5159
  0
LINE
  8
0
 10
151.765
 20
47.5159
 11
150.97
 21
47.7242
  0
LINE
  8
0
 10
150.97
 20
47.7242
 11
150.15
 21
47.9079
  0
LINE
  8
0
 10
150.15
 20
47.9079
 11
149.307
 21
48.0654
  0
LINE
  8
0
 10
149.307
 20
48.0654
 11
148.846
 21
48.1387
  0
LINE
  8
0
 10
148.846
 20
48.1387
 11
148.388
 21
48.2022
  0
LINE
  8
0
 10
148.388
 20
48.2022
 11
147.935
 21
48.2561
  0
LINE
  8
0
 10
147.935
 20
48.2561
 11
147.487
 21
48.3005
  0
LINE
  8
0
 10
147.487
 20
48.3005
 11
147.044
 21
48.3354
  0
LINE
  8
0
 10
147.044
 20
48.3354
 11
146.606
 21
48.3611
  0
LINE
  8
0
 10
146.606
 20
48.3611
 11
146.175
 21
48.3777
  0
LINE
  8
0
 10
146.175
 20
48.3777
 11
145.751
 21
48.3852
  0
LINE
  8
0
 10
145.751
 20
48.3852
 11
145.334
 21
48.3837
  0
LINE
  8
0
 10
145.334
 20
48.3837
 11
144.924
 21
48.3735
  0
LINE
  8
0
 10
144.924
 20
48.3735
 11
144.522
 21
48.3546
  0
LINE
  8
0
 10
144.522
 20
48.3546
 11
144.129
 21
48.3271
  0
LINE
  8
0
 10
144.129
 20
48.3271
 11
143.745
 21
48.2911
  0
LINE
  8
0
 10
143.745
 20
48.2911
 11
143.37
 21
48.2469
  0
LINE
  8
0
 10
143.37
 20
48.2469
 11
143.005
 21
48.1944
  0
LINE
  8
0
 10
143.005
 20
48.1944
 11
142.65
 21
48.1338
  0
LINE
  8
0
 10
142.65
 20
48.1338
 11
142.306
 21
48.0652
  0
LINE
  8
0
 10
142.306
 20
48.0652
 11
141.974
 21
47.9888
  0
LINE
  8
0
 10
141.974
 20
47.9888
 11
141.653
 21
47.9047
  0
LINE
  8
0
 10
141.653
 20
47.9047
 11
141.344
 21
47.8129
  0
LINE
  8
0
 10
141.344
 20
47.8129
 11
141.212
 21
47.9891
  0
LINE
  8
0
 10
141.212
 20
47.9891
 11
141.075
 21
48.1588
  0
LINE
  8
0
 10
141.075
 20
48.1588
 11
140.933
 21
48.3218
  0
LINE
  8
0
 10
140.933
 20
48.3218
 11
140.786
 21
48.4781
  0
LINE
  8
0
 10
140.786
 20
48.4781
 11
140.634
 21
48.6277
  0
LINE
  8
0
 10
140.634
 20
48.6277
 11
140.478
 21
48.7703
  0
LINE
  8
0
 10
140.478
 20
48.7703
 11
140.318
 21
48.9061
  0
LINE
  8
0
 10
140.318
 20
48.9061
 11
140.154
 21
49.0347
  0
LINE
  8
0
 10
140.154
 20
49.0347
 11
139.987
 21
49.1563
  0
LINE
  8
0
 10
139.987
 20
49.1563
 11
139.817
 21
49.2706
  0
LINE
  8
0
 10
139.817
 20
49.2706
 11
139.643
 21
49.3777
  0
LINE
  8
0
 10
139.643
 20
49.3777
 11
139.468
 21
49.4774
  0
LINE
  8
0
 10
139.468
 20
49.4774
 11
139.289
 21
49.5697
  0
LINE
  8
0
 10
139.289
 20
49.5697
 11
139.109
 21
49.6544
  0
LINE
  8
0
 10
139.109
 20
49.6544
 11
138.927
 21
49.7315
  0
LINE
  8
0
 10
138.927
 20
49.7315
 11
138.743
 21
49.8009
  0
LINE
  8
0
 10
138.743
 20
49.8009
 11
138.559
 21
49.8626
  0
LINE
  8
0
 10
138.559
 20
49.8626
 11
138.373
 21
49.9164
  0
LINE
  8
0
 10
138.373
 20
49.9164
 11
138.187
 21
49.9622
  0
LINE
  8
0
 10
138.187
 20
49.9622
 11
138
 21
50
  0
LINE
  8
0
 10
138
 20
50
 11
130.37
 21
50
  0
LINE
  8
0
 10
130.37
 20
50
 11
130.37
 21
46.999
  0
LINE
  8
0
 10
130.37
 20
46.999
 11
125.297
 21
46.999
  0
LINE
  8
0
 10
125.297
 20
46.999
 11
125.297
 21
50
  0
LINE
  8
0
 10
125.297
 20
50
 11
119.703
 21
50
  0
LINE
  8
0
 10
119.703
 20
50
 11
119.703
 21
46.999
  0
LINE
  8
0
 10
119.703
 20
46.999
 11
114.63
 21
46.999
  0
LINE
  8
0
 10
114.63
 20
46.999
 11
114.63
 21
50
  0
LINE
  8
0
 10
114.63
 20
50
 11
107
 21
50
  0
LINE
  8
0
 10
107
 20
50
 11
107
 21
42.37
  0
LINE
  8
0
 10
107
 20
42.37
 11
110.001
 21
42.37
  0
LINE
  8
0
 10
110.001
 20
42.37
 11
110.001
 21
35.63
  0
LINE
  8
0
 10
110.001
 20
35.63
 11
107
 21
35.63
  0
LINE
  8
0
 10
107
 20
35.63
 11
107
 21
28.37
  0
LINE
  8
0
 10
107
 20
28.37
 11
110.001
 21
28.37
  0
LINE
  8
0
 10
110.001
 20
28.37
 11
110.001
 21
21.63
  0
LINE
  8
0
 10
110.001
 20
21.63
 11
107
 21
21.63
  0
LINE
  8
0
 10
107
 20
21.63
 11
107
 21
14.37
  0
LINE
  8
0
 10
107
 20
14.37
 11
110.001
 21
14.37
  0
LINE
  8
0
 10
110.001
 20
14.37
 11
110.001
 21
7.62999
  0
LINE
  8
0
 10
110.001
 20
7.62999
 11
107
 21
7.62999
  0
LINE
  8
0
 10
107
 20
7.62999
 11
107
 21
0
  0
LINE
  8
0
 10
107
 20
0
 11
114.63
 21
0
  0
LINE
  8
0
 10
114.63
 20
0
 11
114.63
 21
3.00099
  0
LINE
  8
0
 10
136.289
 20
39.1525
 11
135.871
 21
39.2053
  0
LINE
  8
0
 10
135.871
 20
39.2053
 11
135.464
 21
39.3101
  0
LINE
  8
0
 10
135.464
 20
39.3101
 11
135.072
 21
39.4651
  0
LINE
  8
0
 10
135.072
 20
39.4651
 11
134.703
 21
39.668
  0
LINE
  8
0
 10
134.703
 20
39.668
 11
134.362
 21
39.9156
  0
LINE
  8
0
 10
134.362
 20
39.9156
 11
134.055
 21
40.2039
  0
LINE
  8
0
 10
134.055
 20
40.2039
 11
133.786
 21
40.5285
  0
LINE
  8
0
 10
133.786
 20
40.5285
 11
133.561
 21
40.8841
  0
LINE
  8
0
 10
133.561
 20
40.8841
 11
133.381
 21
41.2653
  0
LINE
  8
0
 10
133.381
 20
41.2653
 11
133.251
 21
41.6659
  0
LINE
  8
0
 10
133.251
 20
41.6659
 11
133.172
 21
42.0796
  0
LINE
  8
0
 10
133.172
 20
42.0796
 11
133.146
 21
42.5
  0
LINE
  8
0
 10
133.146
 20
42.5
 11
133.172
 21
42.9204
  0
LINE
  8
0
 10
133.172
 20
42.9204
 11
133.251
 21
43.3341
  0
LINE
  8
0
 10
133.251
 20
43.3341
 11
133.381
 21
43.7347
  0
LINE
  8
0
 10
133.381
 20
43.7347
 11
133.561
 21
44.1158
  0
LINE
  8
0
 10
133.561
 20
44.1158
 11
133.786
 21
44.4715
  0
LINE
  8
0
 10
133.786
 20
44.4715
 11
134.055
 21
44.796
  0
LINE
  8
0
 10
134.055
 20
44.796
 11
134.362
 21
45.0844
  0
LINE
  8
0
 10
134.362
 20
45.0844
 11
134.703
 21
45.332
  0
LINE
  8
0
 10
134.703
 20
45.332
 11
135.072
 21
45.5349
  0
LINE
  8
0
 10
135.072
 20
45.5349
 11
135.464
 21
45.6899
  0
LINE
  8
0
 10
135.464
 20
45.6899
 11
135.871
 21
45.7947
  0
LINE
  8
0
 10
135.871
 20
45.7947
 11
136.289
 21
45.8475
  0
LINE
  8
0
 10
136.289
 20
45.8475
 11
136.711
 21
45.8475
  0
LINE
  8
0
 10
136.711
 20
45.8475
 11
137.128
 21
45.7947
  0
LINE
  8
0
 10
137.128
 20
45.7947
 11
137.536
 21
45.6899
  0
LINE
  8
0
 10
137.536
 20
45.6899
 11
137.928
 21
45.5349
  0
LINE
  8
0
 10
137.928
 20
45.5349
 11
138.297
 21
45.332
  0
LINE
  8
0
 10
138.297
 20
45.332
 11
138.638
 21
45.0844
  0
LINE
  8
0
 10
138.638
 20
45.0844
 11
138.945
 21
44.796
  0
LINE
  8
0
 10
138.945
 20
44.796
 11
139.214
 21
44.4715
  0
LINE
  8
0
 10
139.214
 20
44.4715
 11
139.439
 21
44.1158
  0
LINE
  8
0
 10
139.439
 20
44.1158
 11
139.619
 21
43.7347
  0
LINE
  8
0
 10
139.619
 20
43.7347
 11
139.749
 21
43.3341
  0
LINE
  8
0
 10
139.749
 20
43.3341
 11
139.828
 21
42.9204
  0
LINE
  8
0
 10
139.828
 20
42.9204
 11
139.854
 21
42.5
  0
LINE
  8
0
 10
139.854
 20
42.5
 11
139.828
 21
42.0796
  0
LINE
  8
0
 10
139.828
 20
42.0796
 11
139.749
 21
41.6659
  0
LINE
  8
0
 10
139.749
 20
41.6659
 11
139.619
 21
41.2653
  0
LINE
  8
0
 10
139.619
 20
41.2653
 11
139.439
 21
40.8841
  0
LINE
  8
0
 10
139.439
 20
40.8841
 11
139.214
 21
40.5285
  0
LINE
  8
0
 10
139.214
 20
40.5285
 11
138.945
 21
40.2039
  0
LINE
  8
0
 10
138.945
 20
40.2039
 11
138.638
 21
39.9156
  0
LINE
  8
0
 10
138.638
 20
39.9156
 11
138.297
 21
39.668
  0
LINE
  8
0
 10
138.297
 20
39.668
 11
137.928
 21
39.4651
  0
LINE
  8
0
 10
137.928
 20
39.4651
 11
137.536
 21
39.3101
  0
LINE
  8
0
 10
137.536
 20
39.3101
 11
137.128
 21
39.2053
  0
LINE
  8
0
 10
137.128
 20
39.2053
 11
136.711
 21
39.1525
  0
LINE
  8
0
 10
136.711
 20
39.1525
 11
136.289
 21
39.1525
  0
LINE
  8
0
 10
117.13
 20
40.999
 11
117.13
 21
44.001
  0
LINE
  8
0
 10
117.13
 20
44.001
 11
123.87
 21
44.001
  0
LINE
  8
0
 10
123.87
 20
44.001
 11
123.87
 21
40.999
  0
LINE
  8
0
 10
123.87
 20
40.999
 11
117.13
 21
40.999
  0
LINE
  8
0
 10
132.749
 20
13.6
 11
132.25
 21
13.6341
  0
LINE
  8
0
 10
132.25
 20
13.6341
 11
131.764
 21
13.7018
  0
LINE
  8
0
 10
131.764
 20
13.7018
 11
131.297
 21
13.8021
  0
LINE
  8
0
 10
131.297
 20
13.8021
 11
130.857
 21
13.9332
  0
LINE
  8
0
 10
130.857
 20
13.9332
 11
130.45
 21
14.0933
  0
LINE
  8
0
 10
130.45
 20
14.0933
 11
130.084
 21
14.2796
  0
LINE
  8
0
 10
130.084
 20
14.2796
 11
129.764
 21
14.4894
  0
LINE
  8
0
 10
129.764
 20
14.4894
 11
129.495
 21
14.7193
  0
LINE
  8
0
 10
129.495
 20
14.7193
 11
129.281
 21
14.9657
  0
LINE
  8
0
 10
129.281
 20
14.9657
 11
129.126
 21
15.2246
  0
LINE
  8
0
 10
129.126
 20
15.2246
 11
129.032
 21
15.4921
  0
LINE
  8
0
 10
129.032
 20
15.4921
 11
129
 21
15.7638
  0
LINE
  8
0
 10
129
 20
15.7638
 11
129
 21
24.4362
  0
LINE
  8
0
 10
129
 20
24.4362
 11
129.032
 21
24.7079
  0
LINE
  8
0
 10
129.032
 20
24.7079
 11
129.126
 21
24.9754
  0
LINE
  8
0
 10
129.126
 20
24.9754
 11
129.281
 21
25.2343
  0
LINE
  8
0
 10
129.281
 20
25.2343
 11
129.495
 21
25.4807
  0
LINE
  8
0
 10
129.495
 20
25.4807
 11
129.764
 21
25.7106
  0
LINE
  8
0
 10
129.764
 20
25.7106
 11
130.084
 21
25.9203
  0
LINE
  8
0
 10
130.084
 20
25.9203
 11
130.45
 21
26.1067
  0
LINE
  8
0
 10
130.45
 20
26.1067
 11
130.857
 21
26.2668
  0
LINE
  8
0
 10
130.857
 20
26.2668
 11
131.297
 21
26.3979
  0
LINE
  8
0
 10
131.297
 20
26.3979
 11
131.764
 21
26.4982
  0
LINE
  8
0
 10
131.764
 20
26.4982
 11
132.25
 21
26.5659
  0
LINE
  8
0
 10
132.25
 20
26.5659
 11
132.749
 21
26.6
  0
LINE
  8
0
 10
132.749
 20
26.6
 11
133.251
 21
26.6
  0
LINE
  8
0
 10
133.251
 20
26.6
 11
133.75
 21
26.5659
  0
LINE
  8
0
 10
133.75
 20
26.5659
 11
134.236
 21
26.4982
  0
LINE
  8
0
 10
134.236
 20
26.4982
 11
134.703
 21
26.3979
  0
LINE
  8
0
 10
134.703
 20
26.3979
 11
135.143
 21
26.2668
  0
LINE
  8
0
 10
135.143
 20
26.2668
 11
135.55
 21
26.1067
  0
LINE
  8
0
 10
135.55
 20
26.1067
 11
135.916
 21
25.9203
  0
LINE
  8
0
 10
135.916
 20
25.9203
 11
136.236
 21
25.7106
  0
LINE
  8
0
 10
136.236
 20
25.7106
 11
136.505
 21
25.4807
  0
LINE
  8
0
 10
136.505
 20
25.4807
 11
136.719
 21
25.2343
  0
LINE
  8
0
 10
136.719
 20
25.2343
 11
136.874
 21
24.9754
  0
LINE
  8
0
 10
136.874
 20
24.9754
 11
136.968
 21
24.7079
  0
LINE
  8
0
 10
136.968
 20
24.7079
 11
137
 21
24.4362
  0
LINE
  8
0
 10
137
 20
24.4362
 11
137
 21
15.7638
  0
LINE
  8
0
 10
137
 20
15.7638
 11
136.968
 21
15.4921
  0
LINE
  8
0
 10
136.968
 20
15.4921
 11
136.874
 21
15.2246
  0
LINE
  8
0
 10
136.874
 20
15.2246
 11
136.719
 21
14.9657
  0
LINE
  8
0
 10
136.719
 20
14.9657
 11
136.505
 21
14.7193
  0
LINE
  8
0
 10
136.505
 20
14.7193
 11
136.236
 21
14.4894
  0
LINE
  8
0
 10
136.236
 20
14.4894
 11
135.916
 21
14.2796
  0
LINE
  8
0
 10
135.916
 20
14.2796
 11
135.55
 21
14.0933
  0
LINE
  8
0
 10
135.55
 20
14.0933
 11
135.143
 21
13.9332
  0
LINE
  8
0
 10
135.143
 20
13.9332
 11
134.703
 21
13.8021
  0
LINE
  8
0
 10
134.703
 20
13.8021
 11
134.236
 21
13.7018
  0
LINE
  8
0
 10
134.236
 20
13.7018
 11
133.75
 21
13.6341
  0
LINE
  8
0
 10
133.75
 20
13.6341
 11
133.251
 21
13.6
  0
LINE
  8
0
 10
133.251
 20
13.6
 11
132.749
 21
13.6
  0
LINE
  8
0
 10
7.62999
 20
-28.999
 11
13.4367
 21
-28.999
  0
LINE
  8
0
 10
13.4367
 20
-28.999
 11
13.4367
 21
-32
  0
LINE
  8
0
 10
13.4367
 20
-32
 11
19.7633
 21
-32
  0
LINE
  8
0
 10
19.7633
 20
-32
 11
19.7633
 21
-28.999
  0
LINE
  8
0
 10
19.7633
 20
-28.999
 11
25.57
 21
-28.999
  0
LINE
  8
0
 10
25.57
 20
-28.999
 11
25.57
 21
-32
  0
LINE
  8
0
 10
25.57
 20
-32
 11
31.8967
 21
-32
  0
LINE
  8
0
 10
31.8967
 20
-32
 11
31.8967
 21
-28.999
  0
LINE
  8
0
 10
31.8967
 20
-28.999
 11
37.7033
 21
-28.999
  0
LINE
  8
0
 10
37.7033
 20
-28.999
 11
37.7033
 21
-32
  0
LINE
  8
0
 10
37.7033
 20
-32
 11
44.03
 21
-32
  0
LINE
  8
0
 10
44.03
 20
-32
 11
44.03
 21
-28.999
  0
LINE
  8
0
 10
44.03
 20
-28.999
 11
49.8367
 21
-28.999
  0
LINE
  8
0
 10
49.8367
 20
-28.999
 11
49.8367
 21
-32
  0
LINE
  8
0
 10
49.8367
 20
-32
 11
56.1633
 21
-32
  0
LINE
  8
0
 10
56.1633
 20
-32
 11
56.1633
 21
-28.999
  0
LINE
  8
0
 10
56.1633
 20
-28.999
 11
61.97
 21
-28.999
  0
LINE
  8
0
 10
61.97
 20
-28.999
 11
61.97
 21
-32
  0
LINE
  8
0
 10
61.97
 20
-32
 11
68.2967
 21
-32
  0
LINE
  8
0
 10
68.2967
 20
-32
 11
68.2967
 21
-28.999
  0
LINE
  8
0
 10
68.2967
 20
-28.999
 11
74.1033
 21
-28.999
  0
LINE
  8
0
 10
74.1033
 20
-28.999
 11
74.1033
 21
-32
  0
LINE
  8
0
 10
74.1033
 20
-32
 11
80.43
 21
-32
  0
LINE
  8
0
 10
80.43
 20
-32
 11
80.43
 21
-28.999
  0
LINE
  8
0
 10
80.43
 20
-28.999
 11
86.2367
 21
-28.999
  0
LINE
  8
0
 10
86.2367
 20
-28.999
 11
86.2367
 21
-32
  0
LINE
  8
0
 10
86.2367
 20
-32
 11
92.5633
 21
-32
  0
LINE
  8
0
 10
92.5633
 20
-32
 11
92.5633
 21
-28.999
  0
LINE
  8
0
 10
92.5633
 20
-28.999
 11
98.37
 21
-28.999
  0
LINE
  8
0
 10
98.37
 20
-28.999
 11
98.37
 21
-32
  0
LINE
  8
0
 10
98.37
 20
-32
 11
103
 21
-32
  0
LINE
  8
0
 10
103
 20
-32
 11
103
 21
-24.63
  0
LINE
  8
0
 10
103
 20
-24.63
 11
106.001
 21
-24.63
  0
LINE
  8
0
 10
106.001
 20
-24.63
 11
106.001
 21
-18.0367
  0
LINE
  8
0
 10
106.001
 20
-18.0367
 11
103
 21
-18.0367
  0
LINE
  8
0
 10
103
 20
-18.0367
 11
103
 21
-11.9633
  0
LINE
  8
0
 10
103
 20
-11.9633
 11
106.001
 21
-11.9633
  0
LINE
  8
0
 10
106.001
 20
-11.9633
 11
106.001
 21
-5.37001
  0
LINE
  8
0
 10
106.001
 20
-5.37001
 11
103
 21
-5.37001
  0
LINE
  8
0
 10
103
 20
-5.37001
 11
103
 21
-4
  0
LINE
  8
0
 10
103
 20
-4
 11
70
 21
-4
  0
LINE
  8
0
 10
70
 20
-4
 11
70
 21
-3.90001
  0
LINE
  8
0
 10
70
 20
-3.90001
 11
68.5
 21
-1
  0
LINE
  8
0
 10
68.5
 20
-1
 11
37.5
 21
-1
  0
LINE
  8
0
 10
37.5
 20
-1
 11
36
 21
-3.90001
  0
LINE
  8
0
 10
36
 20
-3.90001
 11
36
 21
-4
  0
LINE
  8
0
 10
36
 20
-4
 11
3
 21
-4
  0
LINE
  8
0
 10
3
 20
-4
 11
3
 21
-5.37001
  0
LINE
  8
0
 10
3
 20
-5.37001
 11
-0.000991821
 21
-5.37001
  0
LINE
  8
0
 10
-0.000991821
 20
-5.37001
 11
-0.000991821
 21
-11.9633
  0
LINE
  8
0
 10
-0.000991821
 20
-11.9633
 11
3
 21
-11.9633
  0
LINE
  8
0
 10
3
 20
-11.9633
 11
3
 21
-18.0367
  0
LINE
  8
0
 10
3
 20
-18.0367
 11
-0.000991821
 21
-18.0367
  0
LINE
  8
0
 10
-0.000991821
 20
-18.0367
 11
-0.000991821
 21
-24.63
  0
LINE
  8
0
 10
-0.000991821
 20
-24.63
 11
3
 21
-24.63
  0
LINE
  8
0
 10
3
 20
-24.63
 11
3
 21
-32
  0
LINE
  8
0
 10
3
 20
-32
 11
7.62999
 21
-32
  0
LINE
  8
0
 10
7.62999
 20
-32
 11
7.62999
 21
-28.999
  0
LINE
  8
0
 10
40.5
 20
-7
 11
40.5
 21
-4
  0
LINE
  8
0
 10
40.5
 20
-4
 11
65.5
 21
-4
  0
LINE
  8
0
 10
65.5
 20
-4
 11
65.5
 21
-7
  0
LINE
  8
0
 10
65.5
 20
-7
 11
40.5
 21
-7
  0
LINE
  8
0
 10
-48.4788
 20
-49.994
 11
-48.1276
 21
-49.9867
  0
LINE
  8
0
 10
-48.1276
 20
-49.9867
 11
-47.7607
 21
-49.931
  0
LINE
  8
0
 10
-47.7607
 20
-49.931
 11
-47.3797
 21
-49.8282
  0
LINE
  8
0
 10
-47.3797
 20
-49.8282
 11
-46.9862
 21
-49.6797
  0
LINE
  8
0
 10
-46.9862
 20
-49.6797
 11
-46.5818
 21
-49.4868
  0
LINE
  8
0
 10
-46.5818
 20
-49.4868
 11
-46.1682
 21
-49.251
  0
LINE
  8
0
 10
-46.1682
 20
-49.251
 11
-45.7469
 21
-48.9735
  0
LINE
  8
0
 10
-45.7469
 20
-48.9735
 11
-45.3196
 21
-48.6557
  0
LINE
  8
0
 10
-45.3196
 20
-48.6557
 11
-44.8878
 21
-48.2989
  0
LINE
  8
0
 10
-44.8878
 20
-48.2989
 11
-44.4531
 21
-47.9046
  0
LINE
  8
0
 10
-44.4531
 20
-47.9046
 11
-44.0173
 21
-47.4741
  0
LINE
  8
0
 10
-44.0173
 20
-47.4741
 11
-43.5818
 21
-47.0087
  0
LINE
  8
0
 10
-43.5818
 20
-47.0087
 11
-43.1483
 21
-46.5098
  0
LINE
  8
0
 10
-43.1483
 20
-46.5098
 11
-42.7184
 21
-45.9788
  0
LINE
  8
0
 10
-42.7184
 20
-45.9788
 11
-42.2937
 21
-45.4169
  0
LINE
  8
0
 10
-42.2937
 20
-45.4169
 11
-41.8758
 21
-44.8257
  0
LINE
  8
0
 10
-41.8758
 20
-44.8257
 11
-41.4663
 21
-44.2063
  0
LINE
  8
0
 10
-41.4663
 20
-44.2063
 11
-41.0669
 21
-43.5603
  0
LINE
  8
0
 10
-41.0669
 20
-43.5603
 11
-40.6791
 21
-42.8888
  0
LINE
  8
0
 10
-40.6791
 20
-42.8888
 11
-40.3046
 21
-42.1934
  0
LINE
  8
0
 10
-40.3046
 20
-42.1934
 11
-40.1363
 21
-41.8638
  0
LINE
  8
0
 10
-40.1363
 20
-41.8638
 11
-39.9739
 21
-41.5347
  0
LINE
  8
0
 10
-39.9739
 20
-41.5347
 11
-39.8175
 21
-41.2063
  0
LINE
  8
0
 10
-39.8175
 20
-41.2063
 11
-39.6671
 21
-40.8787
  0
LINE
  8
0
 10
-39.6671
 20
-40.8787
 11
-39.5227
 21
-40.5523
  0
LINE
  8
0
 10
-39.5227
 20
-40.5523
 11
-39.3843
 21
-40.2272
  0
LINE
  8
0
 10
-39.3843
 20
-40.2272
 11
-39.252
 21
-39.9035
  0
LINE
  8
0
 10
-39.252
 20
-39.9035
 11
-39.1257
 21
-39.5817
  0
LINE
  8
0
 10
-39.1257
 20
-39.5817
 11
-39.0054
 21
-39.2617
  0
LINE
  8
0
 10
-39.0054
 20
-39.2617
 11
-38.8913
 21
-38.944
  0
LINE
  8
0
 10
-38.8913
 20
-38.944
 11
-38.7832
 21
-38.6286
  0
LINE
  8
0
 10
-38.7832
 20
-38.6286
 11
-38.6813
 21
-38.3157
  0
LINE
  8
0
 10
-38.6813
 20
-38.3157
 11
-38.5855
 21
-38.0057
  0
LINE
  8
0
 10
-38.5855
 20
-38.0057
 11
-38.4958
 21
-37.6987
  0
LINE
  8
0
 10
-38.4958
 20
-37.6987
 11
-38.4124
 21
-37.3948
  0
LINE
  8
0
 10
-38.4124
 20
-37.3948
 11
-38.3351
 21
-37.0944
  0
LINE
  8
0
 10
-38.3351
 20
-37.0944
 11
-38.264
 21
-36.7976
  0
LINE
  8
0
 10
-38.264
 20
-36.7976
 11
-38.1991
 21
-36.5047
  0
LINE
  8
0
 10
-38.1991
 20
-36.5047
 11
-38.1405
 21
-36.2158
  0
LINE
  8
0
 10
-38.1405
 20
-36.2158
 11
-38.0881
 21
-35.9312
  0
LINE
  8
0
 10
-38.0881
 20
-35.9312
 11
-37.6243
 21
-36.1806
  0
LINE
  8
0
 10
-37.6243
 20
-36.1806
 11
-37.1788
 21
-36.3992
  0
LINE
  8
0
 10
-37.1788
 20
-36.3992
 11
-36.7518
 21
-36.589
  0
LINE
  8
0
 10
-36.7518
 20
-36.589
 11
-36.3435
 21
-36.7518
  0
LINE
  8
0
 10
-36.3435
 20
-36.7518
 11
-35.9541
 21
-36.8895
  0
LINE
  8
0
 10
-35.9541
 20
-36.8895
 11
-35.5838
 21
-37.0039
  0
LINE
  8
0
 10
-35.5838
 20
-37.0039
 11
-35.2329
 21
-37.0968
  0
LINE
  8
0
 10
-35.2329
 20
-37.0968
 11
-34.9015
 21
-37.1702
  0
LINE
  8
0
 10
-34.9015
 20
-37.1702
 11
-34.5898
 21
-37.2258
  0
LINE
  8
0
 10
-34.5898
 20
-37.2258
 11
-34.2982
 21
-37.2656
  0
LINE
  8
0
 10
-34.2982
 20
-37.2656
 11
-34.0267
 21
-37.2914
  0
LINE
  8
0
 10
-34.0267
 20
-37.2914
 11
-33.7757
 21
-37.305
  0
LINE
  8
0
 10
-33.7757
 20
-37.305
 11
-33.5453
 21
-37.3083
  0
LINE
  8
0
 10
-33.5453
 20
-37.3083
 11
-33.3357
 21
-37.3032
  0
LINE
  8
0
 10
-33.3357
 20
-37.3032
 11
-33.1472
 21
-37.2915
  0
LINE
  8
0
 10
-33.1472
 20
-37.2915
 11
-32.98
 21
-37.275
  0
LINE
  8
0
 10
-32.98
 20
-37.275
 11
-32.8343
 21
-37.2557
  0
LINE
  8
0
 10
-32.8343
 20
-37.2557
 11
-32.7103
 21
-37.2354
  0
LINE
  8
0
 10
-32.7103
 20
-37.2354
 11
-32.6082
 21
-37.2158
  0
LINE
  8
0
 10
-32.6082
 20
-37.2158
 11
-32.5283
 21
-37.199
  0
LINE
  8
0
 10
-32.5283
 20
-37.199
 11
-32.4306
 21
-37.18
  0
LINE
  8
0
 10
-32.4306
 20
-37.18
 11
-32.3333
 21
-37.1642
  0
LINE
  8
0
 10
-32.3333
 20
-37.1642
 11
-32.2339
 21
-37.1486
  0
LINE
  8
0
 10
-32.2339
 20
-37.1486
 11
-32.1299
 21
-37.1306
  0
LINE
  8
0
 10
-32.1299
 20
-37.1306
 11
-32.0189
 21
-37.1072
  0
LINE
  8
0
 10
-32.0189
 20
-37.1072
 11
-31.8984
 21
-37.0758
  0
LINE
  8
0
 10
-31.8984
 20
-37.0758
 11
-31.7661
 21
-37.0335
  0
LINE
  8
0
 10
-31.7661
 20
-37.0335
 11
-31.6194
 21
-36.9776
  0
LINE
  8
0
 10
-31.6194
 20
-36.9776
 11
-31.4559
 21
-36.9052
  0
LINE
  8
0
 10
-31.4559
 20
-36.9052
 11
-31.2732
 21
-36.8135
  0
LINE
  8
0
 10
-31.2732
 20
-36.8135
 11
-31.0688
 21
-36.6998
  0
LINE
  8
0
 10
-31.0688
 20
-36.6998
 11
-30.8403
 21
-36.5613
  0
LINE
  8
0
 10
-30.8403
 20
-36.5613
 11
-30.5852
 21
-36.3952
  0
LINE
  8
0
 10
-30.5852
 20
-36.3952
 11
-30.3012
 21
-36.1986
  0
LINE
  8
0
 10
-30.3012
 20
-36.1986
 11
-29.9856
 21
-35.9689
  0
LINE
  8
0
 10
-29.9856
 20
-35.9689
 11
-29.6362
 21
-35.7031
  0
LINE
  8
0
 10
-29.6362
 20
-35.7031
 11
-29.2505
 21
-35.3986
  0
LINE
  8
0
 10
-29.2505
 20
-35.3986
 11
-28.826
 21
-35.0525
  0
LINE
  8
0
 10
-28.826
 20
-35.0525
 11
-28.3602
 21
-34.662
  0
LINE
  8
0
 10
-28.3602
 20
-34.662
 11
-27.8508
 21
-34.2244
  0
LINE
  8
0
 10
-27.8508
 20
-34.2244
 11
-25.2134
 21
-31.7177
  0
LINE
  8
0
 10
-25.2134
 20
-31.7177
 11
-23.0973
 21
-29.2619
  0
LINE
  8
0
 10
-23.0973
 20
-29.2619
 11
-21.4598
 21
-26.8695
  0
LINE
  8
0
 10
-21.4598
 20
-26.8695
 11
-20.2584
 21
-24.5528
  0
LINE
  8
0
 10
-20.2584
 20
-24.5528
 11
-19.4504
 21
-22.3243
  0
LINE
  8
0
 10
-19.4504
 20
-22.3243
 11
-18.9933
 21
-20.1965
  0
LINE
  8
0
 10
-18.9933
 20
-20.1965
 11
-18.8443
 21
-18.1818
  0
LINE
  8
0
 10
-18.8443
 20
-18.1818
 11
-18.9609
 21
-16.2925
  0
LINE
  8
0
 10
-18.9609
 20
-16.2925
 11
-19.3004
 21
-14.5413
  0
LINE
  8
0
 10
-19.3004
 20
-14.5413
 11
-19.8203
 21
-12.9404
  0
LINE
  8
0
 10
-19.8203
 20
-12.9404
 11
-20.4779
 21
-11.5024
  0
LINE
  8
0
 10
-20.4779
 20
-11.5024
 11
-21.2305
 21
-10.2397
  0
LINE
  8
0
 10
-21.2305
 20
-10.2397
 11
-22.0357
 21
-9.16466
  0
LINE
  8
0
 10
-22.0357
 20
-9.16466
 11
-22.8507
 21
-8.28978
  0
LINE
  8
0
 10
-22.8507
 20
-8.28978
 11
-23.6329
 21
-7.62749
  0
LINE
  8
0
 10
-23.6329
 20
-7.62749
 11
-24.3397
 21
-7.19023
  0
LINE
  8
0
 10
-24.3397
 20
-7.19023
 11
-24.9284
 21
-6.99045
  0
LINE
  8
0
 10
-24.9284
 20
-6.99045
 11
-25.3566
 21
-7.04054
  0
LINE
  8
0
 10
-25.3566
 20
-7.04054
 11
-25.5814
 21
-7.353
  0
LINE
  8
0
 10
-25.5814
 20
-7.353
 11
-25.5604
 21
-7.94022
  0
LINE
  8
0
 10
-25.5604
 20
-7.94022
 11
-25.4477
 21
-8.68059
  0
LINE
  8
0
 10
-25.4477
 20
-8.68059
 11
-25.4225
 21
-9.44028
  0
LINE
  8
0
 10
-25.4225
 20
-9.44028
 11
-25.4797
 21
-10.2134
  0
LINE
  8
0
 10
-25.4797
 20
-10.2134
 11
-25.6143
 21
-10.9942
  0
LINE
  8
0
 10
-25.6143
 20
-10.9942
 11
-25.8211
 21
-11.7767
  0
LINE
  8
0
 10
-25.8211
 20
-11.7767
 11
-26.095
 21
-12.5551
  0
LINE
  8
0
 10
-26.095
 20
-12.5551
 11
-26.4308
 21
-13.3236
  0
LINE
  8
0
 10
-26.4308
 20
-13.3236
 11
-26.8234
 21
-14.0763
  0
LINE
  8
0
 10
-26.8234
 20
-14.0763
 11
-27.2678
 21
-14.8074
  0
LINE
  8
0
 10
-27.2678
 20
-14.8074
 11
-27.7587
 21
-15.511
  0
LINE
  8
0
 10
-27.7587
 20
-15.511
 11
-28.2911
 21
-16.1812
  0
LINE
  8
0
 10
-28.2911
 20
-16.1812
 11
-28.8599
 21
-16.8122
  0
LINE
  8
0
 10
-28.8599
 20
-16.8122
 11
-29.4598
 21
-17.3982
  0
LINE
  8
0
 10
-29.4598
 20
-17.3982
 11
-30.0858
 21
-17.9333
  0
LINE
  8
0
 10
-30.0858
 20
-17.9333
 11
-30.7328
 21
-18.4117
  0
LINE
  8
0
 10
-30.7328
 20
-18.4117
 11
-31.3957
 21
-18.8275
  0
LINE
  8
0
 10
-31.3957
 20
-18.8275
 11
-32.0693
 21
-19.1748
  0
LINE
  8
0
 10
-32.0693
 20
-19.1748
 11
-32.7484
 21
-19.4478
  0
LINE
  8
0
 10
-32.7484
 20
-19.4478
 11
-33.4281
 21
-19.6407
  0
LINE
  8
0
 10
-33.4281
 20
-19.6407
 11
-34.103
 21
-19.7476
  0
LINE
  8
0
 10
-34.103
 20
-19.7476
 11
-34.7058
 21
-19.7534
  0
LINE
  8
0
 10
-34.7058
 20
-19.7534
 11
-35.1779
 21
-19.6525
  0
LINE
  8
0
 10
-35.1779
 20
-19.6525
 11
-35.5278
 21
-19.4537
  0
LINE
  8
0
 10
-35.5278
 20
-19.4537
 11
-35.7639
 21
-19.1657
  0
LINE
  8
0
 10
-35.7639
 20
-19.1657
 11
-35.8947
 21
-18.7971
  0
LINE
  8
0
 10
-35.8947
 20
-18.7971
 11
-35.9288
 21
-18.3566
  0
LINE
  8
0
 10
-35.9288
 20
-18.3566
 11
-35.8746
 21
-17.853
  0
LINE
  8
0
 10
-35.8746
 20
-17.853
 11
-35.7405
 21
-17.2949
  0
LINE
  8
0
 10
-35.7405
 20
-17.2949
 11
-35.5351
 21
-16.691
  0
LINE
  8
0
 10
-35.5351
 20
-16.691
 11
-35.2669
 21
-16.05
  0
LINE
  8
0
 10
-35.2669
 20
-16.05
 11
-34.9443
 21
-15.3807
  0
LINE
  8
0
 10
-34.9443
 20
-15.3807
 11
-34.5758
 21
-14.6916
  0
LINE
  8
0
 10
-34.5758
 20
-14.6916
 11
-34.1699
 21
-13.9915
  0
LINE
  8
0
 10
-34.1699
 20
-13.9915
 11
-33.7352
 21
-13.2891
  0
LINE
  8
0
 10
-33.7352
 20
-13.2891
 11
-33.2799
 21
-12.5931
  0
LINE
  8
0
 10
-33.2799
 20
-12.5931
 11
-32.8128
 21
-11.9121
  0
LINE
  8
0
 10
-32.8128
 20
-11.9121
 11
-32.3421
 21
-11.2549
  0
LINE
  8
0
 10
-32.3421
 20
-11.2549
 11
-31.8765
 21
-10.6302
  0
LINE
  8
0
 10
-31.8765
 20
-10.6302
 11
-31.4244
 21
-10.0466
  0
LINE
  8
0
 10
-31.4244
 20
-10.0466
 11
-30.9942
 21
-9.51282
  0
LINE
  8
0
 10
-30.9942
 20
-9.51282
 11
-32.565
 21
-9.26213
  0
LINE
  8
0
 10
-32.565
 20
-9.26213
 11
-34.0728
 21
-9.30864
  0
LINE
  8
0
 10
-34.0728
 20
-9.30864
 11
-35.5115
 21
-9.62686
  0
LINE
  8
0
 10
-35.5115
 20
-9.62686
 11
-36.8745
 21
-10.1912
  0
LINE
  8
0
 10
-36.8745
 20
-10.1912
 11
-38.1554
 21
-10.9762
  0
LINE
  8
0
 10
-38.1554
 20
-10.9762
 11
-39.3479
 21
-11.9562
  0
LINE
  8
0
 10
-39.3479
 20
-11.9562
 11
-40.4454
 21
-13.1059
  0
LINE
  8
0
 10
-40.4454
 20
-13.1059
 11
-41.4416
 21
-14.3995
  0
LINE
  8
0
 10
-41.4416
 20
-14.3995
 11
-42.3301
 21
-15.8117
  0
LINE
  8
0
 10
-42.3301
 20
-15.8117
 11
-43.1044
 21
-17.3168
  0
LINE
  8
0
 10
-43.1044
 20
-17.3168
 11
-43.7581
 21
-18.8895
  0
LINE
  8
0
 10
-43.7581
 20
-18.8895
 11
-44.2849
 21
-20.504
  0
LINE
  8
0
 10
-44.2849
 20
-20.504
 11
-44.6783
 21
-22.1349
  0
LINE
  8
0
 10
-44.6783
 20
-22.1349
 11
-44.9318
 21
-23.7567
  0
LINE
  8
0
 10
-44.9318
 20
-23.7567
 11
-45.0391
 21
-25.3439
  0
LINE
  8
0
 10
-45.0391
 20
-25.3439
 11
-44.9937
 21
-26.8708
  0
LINE
  8
0
 10
-44.9937
 20
-26.8708
 11
-44.7893
 21
-28.3121
  0
LINE
  8
0
 10
-44.7893
 20
-28.3121
 11
-44.4194
 21
-29.6421
  0
LINE
  8
0
 10
-44.4194
 20
-29.6421
 11
-43.8776
 21
-30.8353
  0
LINE
  8
0
 10
-43.8776
 20
-30.8353
 11
-43.1574
 21
-31.8662
  0
LINE
  8
0
 10
-43.1574
 20
-31.8662
 11
-43.5213
 21
-32.1506
  0
LINE
  8
0
 10
-43.5213
 20
-32.1506
 11
-43.8893
 21
-32.453
  0
LINE
  8
0
 10
-43.8893
 20
-32.453
 11
-44.2605
 21
-32.7724
  0
LINE
  8
0
 10
-44.2605
 20
-32.7724
 11
-44.6337
 21
-33.1082
  0
LINE
  8
0
 10
-44.6337
 20
-33.1082
 11
-45.0079
 21
-33.4594
  0
LINE
  8
0
 10
-45.0079
 20
-33.4594
 11
-45.3819
 21
-33.8252
  0
LINE
  8
0
 10
-45.3819
 20
-33.8252
 11
-45.7548
 21
-34.2047
  0
LINE
  8
0
 10
-45.7548
 20
-34.2047
 11
-46.1253
 21
-34.5972
  0
LINE
  8
0
 10
-46.1253
 20
-34.5972
 11
-46.4925
 21
-35.0017
  0
LINE
  8
0
 10
-46.4925
 20
-35.0017
 11
-46.8553
 21
-35.4174
  0
LINE
  8
0
 10
-46.8553
 20
-35.4174
 11
-47.2125
 21
-35.8436
  0
LINE
  8
0
 10
-47.2125
 20
-35.8436
 11
-47.563
 21
-36.2792
  0
LINE
  8
0
 10
-47.563
 20
-36.2792
 11
-47.906
 21
-36.7235
  0
LINE
  8
0
 10
-47.906
 20
-36.7235
 11
-48.2401
 21
-37.1757
  0
LINE
  8
0
 10
-48.2401
 20
-37.1757
 11
-48.5644
 21
-37.6349
  0
LINE
  8
0
 10
-48.5644
 20
-37.6349
 11
-48.8777
 21
-38.1003
  0
LINE
  8
0
 10
-48.8777
 20
-38.1003
 11
-49.179
 21
-38.571
  0
LINE
  8
0
 10
-49.179
 20
-38.571
 11
-49.4672
 21
-39.0462
  0
LINE
  8
0
 10
-49.4672
 20
-39.0462
 11
-49.7412
 21
-39.5249
  0
LINE
  8
0
 10
-49.7412
 20
-39.5249
 11
-50
 21
-40.0065
  0
LINE
  8
0
 10
-50
 20
-40.0065
 11
-50
 21
-41.37
  0
LINE
  8
0
 10
-50
 20
-41.37
 11
-53.001
 21
-41.37
  0
LINE
  8
0
 10
-53.001
 20
-41.37
 11
-53.001
 21
-48.63
  0
LINE
  8
0
 10
-53.001
 20
-48.63
 11
-50
 21
-48.63
  0
LINE
  8
0
 10
-50
 20
-48.63
 11
-50
 21
-50.0003
  0
LINE
  8
0
 10
-50
 20
-50.0003
 11
-48.4788
 21
-50.0003
  0
LINE
  8
0
 10
-48.4788
 20
-50.0003
 11
-48.4788
 21
-49.994
  0
LINE
  8
0
 10
-57
 20
-48.63
 11
-53.999
 21
-48.63
  0
LINE
  8
0
 10
-53.999
 20
-48.63
 11
-53.999
 21
-41.37
  0
LINE
  8
0
 10
-53.999
 20
-41.37
 11
-57
 21
-41.37
  0
LINE
  8
0
 10
-57
 20
-41.37
 11
-57
 21
-40.0065
  0
LINE
  8
0
 10
-57
 20
-40.0065
 11
-57.2588
 21
-39.5249
  0
LINE
  8
0
 10
-57.2588
 20
-39.5249
 11
-57.5328
 21
-39.0462
  0
LINE
  8
0
 10
-57.5328
 20
-39.0462
 11
-57.821
 21
-38.571
  0
LINE
  8
0
 10
-57.821
 20
-38.571
 11
-58.1223
 21
-38.1003
  0
LINE
  8
0
 10
-58.1223
 20
-38.1003
 11
-58.4356
 21
-37.6349
  0
LINE
  8
0
 10
-58.4356
 20
-37.6349
 11
-58.7599
 21
-37.1757
  0
LINE
  8
0
 10
-58.7599
 20
-37.1757
 11
-59.094
 21
-36.7235
  0
LINE
  8
0
 10
-59.094
 20
-36.7235
 11
-59.437
 21
-36.2792
  0
LINE
  8
0
 10
-59.437
 20
-36.2792
 11
-59.7875
 21
-35.8436
  0
LINE
  8
0
 10
-59.7875
 20
-35.8436
 11
-60.1447
 21
-35.4174
  0
LINE
  8
0
 10
-60.1447
 20
-35.4174
 11
-60.5075
 21
-35.0017
  0
LINE
  8
0
 10
-60.5075
 20
-35.0017
 11
-60.8747
 21
-34.5972
  0
LINE
  8
0
 10
-60.8747
 20
-34.5972
 11
-61.2452
 21
-34.2047
  0
LINE
  8
0
 10
-61.2452
 20
-34.2047
 11
-61.6181
 21
-33.8252
  0
LINE
  8
0
 10
-61.6181
 20
-33.8252
 11
-61.9921
 21
-33.4594
  0
LINE
  8
0
 10
-61.9921
 20
-33.4594
 11
-62.3663
 21
-33.1082
  0
LINE
  8
0
 10
-62.3663
 20
-33.1082
 11
-62.7395
 21
-32.7724
  0
LINE
  8
0
 10
-62.7395
 20
-32.7724
 11
-63.1107
 21
-32.453
  0
LINE
  8
0
 10
-63.1107
 20
-32.453
 11
-63.4787
 21
-32.1506
  0
LINE
  8
0
 10
-63.4787
 20
-32.1506
 11
-63.8426
 21
-31.8662
  0
LINE
  8
0
 10
-63.8426
 20
-31.8662
 11
-63.1224
 21
-30.8353
  0
LINE
  8
0
 10
-63.1224
 20
-30.8353
 11
-62.5806
 21
-29.6421
  0
LINE
  8
0
 10
-62.5806
 20
-29.6421
 11
-62.2107
 21
-28.3121
  0
LINE
  8
0
 10
-62.2107
 20
-28.3121
 11
-62.0063
 21
-26.8708
  0
LINE
  8
0
 10
-62.0063
 20
-26.8708
 11
-61.9609
 21
-25.3439
  0
LINE
  8
0
 10
-61.9609
 20
-25.3439
 11
-62.0682
 21
-23.7567
  0
LINE
  8
0
 10
-62.0682
 20
-23.7567
 11
-62.3217
 21
-22.1349
  0
LINE
  8
0
 10
-62.3217
 20
-22.1349
 11
-62.7151
 21
-20.504
  0
LINE
  8
0
 10
-62.7151
 20
-20.504
 11
-63.2419
 21
-18.8895
  0
LINE
  8
0
 10
-63.2419
 20
-18.8895
 11
-63.8956
 21
-17.3168
  0
LINE
  8
0
 10
-63.8956
 20
-17.3168
 11
-64.6699
 21
-15.8117
  0
LINE
  8
0
 10
-64.6699
 20
-15.8117
 11
-65.5584
 21
-14.3995
  0
LINE
  8
0
 10
-65.5584
 20
-14.3995
 11
-66.5546
 21
-13.1059
  0
LINE
  8
0
 10
-66.5546
 20
-13.1059
 11
-67.6521
 21
-11.9562
  0
LINE
  8
0
 10
-67.6521
 20
-11.9562
 11
-68.8446
 21
-10.9762
  0
LINE
  8
0
 10
-68.8446
 20
-10.9762
 11
-70.1255
 21
-10.1912
  0
LINE
  8
0
 10
-70.1255
 20
-10.1912
 11
-71.4885
 21
-9.62686
  0
LINE
  8
0
 10
-71.4885
 20
-9.62686
 11
-72.9272
 21
-9.30864
  0
LINE
  8
0
 10
-72.9272
 20
-9.30864
 11
-74.435
 21
-9.26213
  0
LINE
  8
0
 10
-74.435
 20
-9.26213
 11
-76.0058
 21
-9.51282
  0
LINE
  8
0
 10
-76.0058
 20
-9.51282
 11
-75.5756
 21
-10.0466
  0
LINE
  8
0
 10
-75.5756
 20
-10.0466
 11
-75.1235
 21
-10.6302
  0
LINE
  8
0
 10
-75.1235
 20
-10.6302
 11
-74.6579
 21
-11.2549
  0
LINE
  8
0
 10
-74.6579
 20
-11.2549
 11
-74.1872
 21
-11.9121
  0
LINE
  8
0
 10
-74.1872
 20
-11.9121
 11
-73.7201
 21
-12.5931
  0
LINE
  8
0
 10
-73.7201
 20
-12.5931
 11
-73.2648
 21
-13.2891
  0
LINE
  8
0
 10
-73.2648
 20
-13.2891
 11
-72.8301
 21
-13.9915
  0
LINE
  8
0
 10
-72.8301
 20
-13.9915
 11
-72.4242
 21
-14.6916
  0
LINE
  8
0
 10
-72.4242
 20
-14.6916
 11
-72.0557
 21
-15.3807
  0
LINE
  8
0
 10
-72.0557
 20
-15.3807
 11
-71.7331
 21
-16.05
  0
LINE
  8
0
 10
-71.7331
 20
-16.05
 11
-71.4649
 21
-16.691
  0
LINE
  8
0
 10
-71.4649
 20
-16.691
 11
-71.2595
 21
-17.2949
  0
LINE
  8
0
 10
-71.2595
 20
-17.2949
 11
-71.1254
 21
-17.853
  0
LINE
  8
0
 10
-71.1254
 20
-17.853
 11
-71.0712
 21
-18.3566
  0
LINE
  8
0
 10
-71.0712
 20
-18.3566
 11
-71.1053
 21
-18.7971
  0
LINE
  8
0
 10
-71.1053
 20
-18.7971
 11
-71.2361
 21
-19.1657
  0
LINE
  8
0
 10
-71.2361
 20
-19.1657
 11
-71.4722
 21
-19.4537
  0
LINE
  8
0
 10
-71.4722
 20
-19.4537
 11
-71.8221
 21
-19.6525
  0
LINE
  8
0
 10
-71.8221
 20
-19.6525
 11
-72.2942
 21
-19.7534
  0
LINE
  8
0
 10
-72.2942
 20
-19.7534
 11
-72.897
 21
-19.7476
  0
LINE
  8
0
 10
-72.897
 20
-19.7476
 11
-73.5719
 21
-19.6407
  0
LINE
  8
0
 10
-73.5719
 20
-19.6407
 11
-74.2516
 21
-19.4478
  0
LINE
  8
0
 10
-74.2516
 20
-19.4478
 11
-74.9307
 21
-19.1748
  0
LINE
  8
0
 10
-74.9307
 20
-19.1748
 11
-75.6043
 21
-18.8275
  0
LINE
  8
0
 10
-75.6043
 20
-18.8275
 11
-76.2672
 21
-18.4117
  0
LINE
  8
0
 10
-76.2672
 20
-18.4117
 11
-76.9142
 21
-17.9333
  0
LINE
  8
0
 10
-76.9142
 20
-17.9333
 11
-77.5402
 21
-17.3982
  0
LINE
  8
0
 10
-77.5402
 20
-17.3982
 11
-78.1401
 21
-16.8122
  0
LINE
  8
0
 10
-78.1401
 20
-16.8122
 11
-78.7089
 21
-16.1812
  0
LINE
  8
0
 10
-78.7089
 20
-16.1812
 11
-79.2413
 21
-15.511
  0
LINE
  8
0
 10
-79.2413
 20
-15.511
 11
-79.7322
 21
-14.8074
  0
LINE
  8
0
 10
-79.7322
 20
-14.8074
 11
-80.1766
 21
-14.0763
  0
LINE
  8
0
 10
-80.1766
 20
-14.0763
 11
-80.5692
 21
-13.3236
  0
LINE
  8
0
 10
-80.5692
 20
-13.3236
 11
-80.905
 21
-12.5551
  0
LINE
  8
0
 10
-80.905
 20
-12.5551
 11
-81.1789
 21
-11.7767
  0
LINE
  8
0
 10
-81.1789
 20
-11.7767
 11
-81.3857
 21
-10.9942
  0
LINE
  8
0
 10
-81.3857
 20
-10.9942
 11
-81.5203
 21
-10.2134
  0
LINE
  8
0
 10
-81.5203
 20
-10.2134
 11
-81.5775
 21
-9.44028
  0
LINE
  8
0
 10
-81.5775
 20
-9.44028
 11
-81.5523
 21
-8.68059
  0
LINE
  8
0
 10
-81.5523
 20
-8.68059
 11
-81.4396
 21
-7.94022
  0
LINE
  8
0
 10
-81.4396
 20
-7.94022
 11
-81.4186
 21
-7.353
  0
LINE
  8
0
 10
-81.4186
 20
-7.353
 11
-81.6434
 21
-7.04054
  0
LINE
  8
0
 10
-81.6434
 20
-7.04054
 11
-82.0716
 21
-6.99045
  0
LINE
  8
0
 10
-82.0716
 20
-6.99045
 11
-82.6603
 21
-7.19023
  0
LINE
  8
0
 10
-82.6603
 20
-7.19023
 11
-83.3671
 21
-7.62749
  0
LINE
  8
0
 10
-83.3671
 20
-7.62749
 11
-84.1493
 21
-8.28978
  0
LINE
  8
0
 10
-84.1493
 20
-8.28978
 11
-84.9643
 21
-9.16466
  0
LINE
  8
0
 10
-84.9643
 20
-9.16466
 11
-85.7695
 21
-10.2397
  0
LINE
  8
0
 10
-85.7695
 20
-10.2397
 11
-86.5221
 21
-11.5024
  0
LINE
  8
0
 10
-86.5221
 20
-11.5024
 11
-87.1797
 21
-12.9404
  0
LINE
  8
0
 10
-87.1797
 20
-12.9404
 11
-87.6996
 21
-14.5413
  0
LINE
  8
0
 10
-87.6996
 20
-14.5413
 11
-88.0391
 21
-16.2925
  0
LINE
  8
0
 10
-88.0391
 20
-16.2925
 11
-88.1557
 21
-18.1818
  0
LINE
  8
0
 10
-88.1557
 20
-18.1818
 11
-88.0067
 21
-20.1965
  0
LINE
  8
0
 10
-88.0067
 20
-20.1965
 11
-87.5496
 21
-22.3243
  0
LINE
  8
0
 10
-87.5496
 20
-22.3243
 11
-86.7416
 21
-24.5528
  0
LINE
  8
0
 10
-86.7416
 20
-24.5528
 11
-85.5402
 21
-26.8695
  0
LINE
  8
0
 10
-85.5402
 20
-26.8695
 11
-83.9027
 21
-29.2619
  0
LINE
  8
0
 10
-83.9027
 20
-29.2619
 11
-81.7866
 21
-31.7177
  0
LINE
  8
0
 10
-81.7866
 20
-31.7177
 11
-79.1492
 21
-34.2244
  0
LINE
  8
0
 10
-79.1492
 20
-34.2244
 11
-78.6398
 21
-34.662
  0
LINE
  8
0
 10
-78.6398
 20
-34.662
 11
-78.174
 21
-35.0525
  0
LINE
  8
0
 10
-78.174
 20
-35.0525
 11
-77.7495
 21
-35.3986
  0
LINE
  8
0
 10
-77.7495
 20
-35.3986
 11
-77.3638
 21
-35.7031
  0
LINE
  8
0
 10
-77.3638
 20
-35.7031
 11
-77.0144
 21
-35.9689
  0
LINE
  8
0
 10
-77.0144
 20
-35.9689
 11
-76.6988
 21
-36.1986
  0
LINE
  8
0
 10
-76.6988
 20
-36.1986
 11
-76.4148
 21
-36.3952
  0
LINE
  8
0
 10
-76.4148
 20
-36.3952
 11
-76.1597
 21
-36.5613
  0
LINE
  8
0
 10
-76.1597
 20
-36.5613
 11
-75.9312
 21
-36.6998
  0
LINE
  8
0
 10
-75.9312
 20
-36.6998
 11
-75.7268
 21
-36.8135
  0
LINE
  8
0
 10
-75.7268
 20
-36.8135
 11
-75.5441
 21
-36.9052
  0
LINE
  8
0
 10
-75.5441
 20
-36.9052
 11
-75.3806
 21
-36.9776
  0
LINE
  8
0
 10
-75.3806
 20
-36.9776
 11
-75.2339
 21
-37.0335
  0
LINE
  8
0
 10
-75.2339
 20
-37.0335
 11
-75.1016
 21
-37.0758
  0
LINE
  8
0
 10
-75.1016
 20
-37.0758
 11
-74.9811
 21
-37.1072
  0
LINE
  8
0
 10
-74.9811
 20
-37.1072
 11
-74.8701
 21
-37.1306
  0
LINE
  8
0
 10
-74.8701
 20
-37.1306
 11
-74.7661
 21
-37.1486
  0
LINE
  8
0
 10
-74.7661
 20
-37.1486
 11
-74.6667
 21
-37.1642
  0
LINE
  8
0
 10
-74.6667
 20
-37.1642
 11
-74.5694
 21
-37.18
  0
LINE
  8
0
 10
-74.5694
 20
-37.18
 11
-74.4717
 21
-37.199
  0
LINE
  8
0
 10
-74.4717
 20
-37.199
 11
-74.3918
 21
-37.2158
  0
LINE
  8
0
 10
-74.3918
 20
-37.2158
 11
-74.2897
 21
-37.2354
  0
LINE
  8
0
 10
-74.2897
 20
-37.2354
 11
-74.1657
 21
-37.2557
  0
LINE
  8
0
 10
-74.1657
 20
-37.2557
 11
-74.02
 21
-37.275
  0
LINE
  8
0
 10
-74.02
 20
-37.275
 11
-73.8528
 21
-37.2915
  0
LINE
  8
0
 10
-73.8528
 20
-37.2915
 11
-73.6643
 21
-37.3032
  0
LINE
  8
0
 10
-73.6643
 20
-37.3032
 11
-73.4547
 21
-37.3083
  0
LINE
  8
0
 10
-73.4547
 20
-37.3083
 11
-73.2243
 21
-37.305
  0
LINE
  8
0
 10
-73.2243
 20
-37.305
 11
-72.9733
 21
-37.2914
  0
LINE
  8
0
 10
-72.9733
 20
-37.2914
 11
-72.7018
 21
-37.2656
  0
LINE
  8
0
 10
-72.7018
 20
-37.2656
 11
-72.4102
 21
-37.2258
  0
LINE
  8
0
 10
-72.4102
 20
-37.2258
 11
-72.0985
 21
-37.1702
  0
LINE
  8
0
 10
-72.0985
 20
-37.1702
 11
-71.7671
 21
-37.0968
  0
LINE
  8
0
 10
-71.7671
 20
-37.0968
 11
-71.4162
 21
-37.0039
  0
LINE
  8
0
 10
-71.4162
 20
-37.0039
 11
-71.0459
 21
-36.8895
  0
LINE
  8
0
 10
-71.0459
 20
-36.8895
 11
-70.6565
 21
-36.7518
  0
LINE
  8
0
 10
-70.6565
 20
-36.7518
 11
-70.2482
 21
-36.589
  0
LINE
  8
0
 10
-70.2482
 20
-36.589
 11
-69.8212
 21
-36.3992
  0
LINE
  8
0
 10
-69.8212
 20
-36.3992
 11
-69.3757
 21
-36.1806
  0
LINE
  8
0
 10
-69.3757
 20
-36.1806
 11
-68.9119
 21
-35.9312
  0
LINE
  8
0
 10
-68.9119
 20
-35.9312
 11
-68.8595
 21
-36.2158
  0
LINE
  8
0
 10
-68.8595
 20
-36.2158
 11
-68.8009
 21
-36.5047
  0
LINE
  8
0
 10
-68.8009
 20
-36.5047
 11
-68.736
 21
-36.7976
  0
LINE
  8
0
 10
-68.736
 20
-36.7976
 11
-68.6649
 21
-37.0944
  0
LINE
  8
0
 10
-68.6649
 20
-37.0944
 11
-68.5876
 21
-37.3948
  0
LINE
  8
0
 10
-68.5876
 20
-37.3948
 11
-68.5042
 21
-37.6987
  0
LINE
  8
0
 10
-68.5042
 20
-37.6987
 11
-68.4145
 21
-38.0057
  0
LINE
  8
0
 10
-68.4145
 20
-38.0057
 11
-68.3187
 21
-38.3157
  0
LINE
  8
0
 10
-68.3187
 20
-38.3157
 11
-68.2168
 21
-38.6286
  0
LINE
  8
0
 10
-68.2168
 20
-38.6286
 11
-68.1087
 21
-38.944
  0
LINE
  8
0
 10
-68.1087
 20
-38.944
 11
-67.9946
 21
-39.2617
  0
LINE
  8
0
 10
-67.9946
 20
-39.2617
 11
-67.8743
 21
-39.5817
  0
LINE
  8
0
 10
-67.8743
 20
-39.5817
 11
-67.748
 21
-39.9035
  0
LINE
  8
0
 10
-67.748
 20
-39.9035
 11
-67.6157
 21
-40.2272
  0
LINE
  8
0
 10
-67.6157
 20
-40.2272
 11
-67.4773
 21
-40.5523
  0
LINE
  8
0
 10
-67.4773
 20
-40.5523
 11
-67.3329
 21
-40.8787
  0
LINE
  8
0
 10
-67.3329
 20
-40.8787
 11
-67.1825
 21
-41.2063
  0
LINE
  8
0
 10
-67.1825
 20
-41.2063
 11
-67.0261
 21
-41.5347
  0
LINE
  8
0
 10
-67.0261
 20
-41.5347
 11
-66.8637
 21
-41.8638
  0
LINE
  8
0
 10
-66.8637
 20
-41.8638
 11
-66.6954
 21
-42.1934
  0
LINE
  8
0
 10
-66.6954
 20
-42.1934
 11
-66.3209
 21
-42.8888
  0
LINE
  8
0
 10
-66.3209
 20
-42.8888
 11
-65.9331
 21
-43.5603
  0
LINE
  8
0
 10
-65.9331
 20
-43.5603
 11
-65.5337
 21
-44.2063
  0
LINE
  8
0
 10
-65.5337
 20
-44.2063
 11
-65.1242
 21
-44.8257
  0
LINE
  8
0
 10
-65.1242
 20
-44.8257
 11
-64.7063
 21
-45.4169
  0
LINE
  8
0
 10
-64.7063
 20
-45.4169
 11
-64.2816
 21
-45.9788
  0
LINE
  8
0
 10
-64.2816
 20
-45.9788
 11
-63.8517
 21
-46.5098
  0
LINE
  8
0
 10
-63.8517
 20
-46.5098
 11
-63.4182
 21
-47.0087
  0
LINE
  8
0
 10
-63.4182
 20
-47.0087
 11
-62.9827
 21
-47.4741
  0
LINE
  8
0
 10
-62.9827
 20
-47.4741
 11
-62.5469
 21
-47.9046
  0
LINE
  8
0
 10
-62.5469
 20
-47.9046
 11
-62.1122
 21
-48.2989
  0
LINE
  8
0
 10
-62.1122
 20
-48.2989
 11
-61.6804
 21
-48.6557
  0
LINE
  8
0
 10
-61.6804
 20
-48.6557
 11
-61.2531
 21
-48.9735
  0
LINE
  8
0
 10
-61.2531
 20
-48.9735
 11
-60.8318
 21
-49.251
  0
LINE
  8
0
 10
-60.8318
 20
-49.251
 11
-60.4182
 21
-49.4868
  0
LINE
  8
0
 10
-60.4182
 20
-49.4868
 11
-60.0138
 21
-49.6797
  0
LINE
  8
0
 10
-60.0138
 20
-49.6797
 11
-59.6203
 21
-49.8282
  0
LINE
  8
0
 10
-59.6203
 20
-49.8282
 11
-59.2393
 21
-49.931
  0
LINE
  8
0
 10
-59.2393
 20
-49.931
 11
-58.8724
 21
-49.9867
  0
LINE
  8
0
 10
-58.8724
 20
-49.9867
 11
-58.5212
 21
-49.994
  0
LINE
  8
0
 10
-58.5212
 20
-49.994
 11
-58.5212
 21
-50.0003
  0
LINE
  8
0
 10
-58.5212
 20
-50.0003
 11
-57
 21
-50.0003
  0
LINE
  8
0
 10
-57
 20
-50.0003
 11
-57
 21
-48.63
  0
LINE
  8
0
 10
91.071
 20
-47.872
 11
91.2827
 21
-46.7618
  0
LINE
  8
0
 10
91.2827
 20
-46.7618
 11
91.632
 21
-45.6869
  0
LINE
  8
0
 10
91.632
 20
-45.6869
 11
92.1132
 21
-44.6642
  0
LINE
  8
0
 10
92.1132
 20
-44.6642
 11
92.7188
 21
-43.7099
  0
LINE
  8
0
 10
92.7188
 20
-43.7099
 11
93.4393
 21
-42.8391
  0
LINE
  8
0
 10
93.4393
 20
-42.8391
 11
94.2632
 21
-42.0654
  0
LINE
  8
0
 10
94.2632
 20
-42.0654
 11
95.1776
 21
-41.4011
  0
LINE
  8
0
 10
95.1776
 20
-41.4011
 11
96.168
 21
-40.8566
  0
LINE
  8
0
 10
96.168
 20
-40.8566
 11
97.2188
 21
-40.4405
  0
LINE
  8
0
 10
97.2188
 20
-40.4405
 11
98.3136
 21
-40.1594
  0
LINE
  8
0
 10
98.3136
 20
-40.1594
 11
99.4349
 21
-40.0178
  0
LINE
  8
0
 10
99.4349
 20
-40.0178
 11
100
 21
-40.0178
  0
LINE
  8
0
 10
100
 20
-40.0178
 11
100
 21
-37
  0
LINE
  8
0
 10
100
 20
-37
 11
92.63
 21
-37
  0
LINE
  8
0
 10
92.63
 20
-37
 11
92.63
 21
-33.999
  0
LINE
  8
0
 10
92.63
 20
-33.999
 11
85.87
 21
-33.999
  0
LINE
  8
0
 10
85.87
 20
-33.999
 11
85.87
 21
-37
  0
LINE
  8
0
 10
85.87
 20
-37
 11
79.63
 21
-37
  0
LINE
  8
0
 10
79.63
 20
-37
 11
79.63
 21
-33.999
  0
LINE
  8
0
 10
79.63
 20
-33.999
 11
72.87
 21
-33.999
  0
LINE
  8
0
 10
72.87
 20
-33.999
 11
72.87
 21
-37
  0
LINE
  8
0
 10
72.87
 20
-37
 11
65.5
 21
-37
  0
LINE
  8
0
 10
65.5
 20
-37
 11
65.5
 21
-43
  0
LINE
  8
0
 10
65.5
 20
-43
 11
34.5
 21
-43
  0
LINE
  8
0
 10
34.5
 20
-43
 11
34.5
 21
-37
  0
LINE
  8
0
 10
34.5
 20
-37
 11
27.13
 21
-37
  0
LINE
  8
0
 10
27.13
 20
-37
 11
27.13
 21
-33.999
  0
LINE
  8
0
 10
27.13
 20
-33.999
 11
20.37
 21
-33.999
  0
LINE
  8
0
 10
20.37
 20
-33.999
 11
20.37
 21
-37
  0
LINE
  8
0
 10
20.37
 20
-37
 11
14.13
 21
-37
  0
LINE
  8
0
 10
14.13
 20
-37
 11
14.13
 21
-33.999
  0
LINE
  8
0
 10
14.13
 20
-33.999
 11
7.37
 21
-33.999
  0
LINE
  8
0
 10
7.37
 20
-33.999
 11
7.37
 21
-37
  0
LINE
  8
0
 10
7.37
 20
-37
 11
0
 21
-37
  0
LINE
  8
0
 10
0
 20
-37
 11
0
 21
-40.0178
  0
LINE
  8
0
 10
0
 20
-40.0178
 11
0.565109
 21
-40.0178
  0
LINE
  8
0
 10
0.565109
 20
-40.0178
 11
1.68642
 21
-40.1594
  0
LINE
  8
0
 10
1.68642
 20
-40.1594
 11
2.78114
 21
-40.4405
  0
LINE
  8
0
 10
2.78114
 20
-40.4405
 11
3.832
 21
-40.8566
  0
LINE
  8
0
 10
3.832
 20
-40.8566
 11
4.82243
 21
-41.4011
  0
LINE
  8
0
 10
4.82243
 20
-41.4011
 11
5.7368
 21
-42.0654
  0
LINE
  8
0
 10
5.7368
 20
-42.0654
 11
6.56071
 21
-42.8391
  0
LINE
  8
0
 10
6.56071
 20
-42.8391
 11
7.28114
 21
-43.7099
  0
LINE
  8
0
 10
7.28114
 20
-43.7099
 11
7.88675
 21
-44.6642
  0
LINE
  8
0
 10
7.88675
 20
-44.6642
 11
8.36798
 21
-45.6869
  0
LINE
  8
0
 10
8.36798
 20
-45.6869
 11
8.71724
 21
-46.7618
  0
LINE
  8
0
 10
8.71724
 20
-46.7618
 11
8.92903
 21
-47.872
  0
LINE
  8
0
 10
8.92903
 20
-47.872
 11
9
 21
-49
  0
LINE
  8
0
 10
9
 20
-49
 11
91
 21
-49
  0
LINE
  8
0
 10
91
 20
-49
 11
91.071
 21
-47.872
  0
ENDSEC
  0
SECTION
  2
OBJECTS
  0
DICTIONARY
  0
ENDSEC
  0
EOF
