<?xml version="1.0" encoding="utf-8"?>
<!-- Generator: Adobe Illustrator 16.0.3, SVG Export Plug-In . SVG Version: 6.00 Build 0)  -->
<!DOCTYPE svg PUBLIC "-//W3C//DTD SVG 1.1//EN" "http://www.w3.org/Graphics/SVG/1.1/DTD/svg11.dtd">
<svg version="1.1" id="Layer_1" xmlns="http://www.w3.org/2000/svg" xmlns:xlink="http://www.w3.org/1999/xlink" x="0px" y="0px"
	 width="87.29px" height="120.535px" viewBox="0 0 87.29 120.535" enable-background="new 0 0 87.29 120.535" xml:space="preserve">
<path fill="#D3D3D3" stroke="#000000" stroke-width="0.5416" d="M19.171,69.729C4.015,52.148,23.364-0.516,53.249,7.101
	c-7.776,9.45-21.243,29.833-8.71,28.675c12.532-1.157,26.89-19.469,23.934-33.081c-2.954-13.612,47.979,26.423-6.417,73.641
	c-9.938,8.632-11.263,7.934-13.105,8.334c-1.285,0.278-6.746,1.404-15.577-3.552c-0.92,5.275-3.011,11.386-6.21,17.545
	c-6.862,13.205-16.499,22.18-22.902,21.855v0.018H0v-28C4.684,83.52,12.421,74.868,19.171,69.729z"/>
</svg>
